<svg width="400" height="400" viewBox="0 0 400 400" fill="none" xmlns="http://www.w3.org/2000/svg">
<g clip-path="url(#clip0_442_960)">
<path d="M0 0H400V400H263.63H259.45H194.708H190.31H178.52H174.184H155.397H150.701H143.415H138.587H0V343.198V340.712V338.267V332.897V328.092V319.365V274.87V265.763V0Z" fill="#FBFAFB"/>
<path d="M198.774 107.092C202.745 103.576 207.488 101.779 212.786 102.209C221.671 102.929 226.757 107.662 228.74 116.056C233.62 115.842 237.479 116.738 241.258 120.086C245.896 124.272 245.696 129.762 244.155 135.305C244.145 135.342 244.81 136.098 244.849 136.126C251.838 141.209 251.433 151.131 245.717 157.032C244.809 157.969 243.933 158.796 242.894 159.635C243.58 161.885 243.566 162.697 243.388 165.056L243.507 165.57C244.721 165.963 250.645 165.609 252.253 165.677C267.963 166.23 277.945 178.677 277.383 193.855C277.073 202.233 275.488 211.563 285.365 214.46C297.865 218.127 307.59 220.42 313.998 233.189C318.995 243.152 319.063 253.915 315.453 264.5C314.11 268.443 312.095 272.123 309.495 275.378C308.968 277.663 308.883 279.46 308.023 281.775C313.015 301.083 319.613 320.31 316.318 340.63C315.815 343.725 314.65 348.14 312.95 350.763C310.995 352.4 309.5 356.785 308.3 358.268C297.26 371.895 274.313 371.275 258.778 367.938C251.808 366.44 249.934 364.553 243.428 363.733C239.937 363.29 238.253 361.37 236.728 359.115C228.695 362.488 221.408 363.913 212.722 362.813C210.778 362.565 208.261 361.423 206.341 361.49C200.023 361.713 193.708 362.693 187.376 362.738C175.174 362.51 162.947 361.55 150.751 360.948L129.473 359.943C123.534 359.655 119.647 359.713 113.758 358.228C111.658 357.698 107.244 358.94 104.152 358.16C86.5685 353.715 82.0805 334.648 85.9852 318.985C87.5962 312.375 89.6105 307.415 91.9185 301.243C96.3555 289.378 101.41 278.018 106.954 266.643C111.234 257.983 116.246 247.15 121.77 239.35C121.061 238.549 118.27 236.316 116.909 234.884C111.247 228.894 107.188 221.572 105.107 213.596C102.694 204.09 103.816 194.226 107.819 185.45C108.798 183.123 109.731 180.48 111.08 178.364C121.403 162.184 141.712 154.892 159.919 161.159C161.693 161.77 164.225 163.102 166.005 162.554L166.274 162.801C168.521 164.024 170.608 168.225 172.229 170.669C172.329 168.2 172.346 161.524 174.436 160.205C175.757 161.316 175.133 171.335 175.681 174.157C180.906 201.086 206.127 202.135 220.517 181.58C222.045 179.397 222.803 176.256 224.377 174.034C225.145 173.656 229.436 175.145 231.038 174.764C239.448 172.763 245.513 160.811 236.686 155.094C232.496 152.38 229.438 157.444 226.297 158.369C222.32 159.54 222.497 148.175 222.444 146.136C211.675 143.711 210.535 139.91 210.425 129.861C203.969 129.407 207.572 130.821 205.239 134.115C203.046 137.26 199.637 139.344 195.838 139.862C192.672 140.311 190.734 139.677 188.242 137.818L187.805 137.666L187.4 136.779L185.084 141.015C186.745 141.113 189.58 141.166 190.76 142.53C191.111 142.932 191.269 143.467 191.195 143.994C191.09 144.775 191.071 144.612 190.564 145.209C189.352 145.561 186.529 143.949 185.003 144.367C181.769 145.254 178.921 148.12 176.406 150.2C175.241 155.659 174.304 154.766 169.514 153.045C168.416 154.344 167.106 155.612 166.104 156.872L167.169 153.248C163.567 151.906 160.4 149.81 158.78 146.16C157.728 143.745 157.681 141.01 158.65 138.56C159.504 136.372 161.086 134.487 162.912 133.034C159.732 126.333 162.006 119.973 168.678 116.928C169.799 116.417 173.838 115.502 174.289 114.97C175.723 110.273 176.497 107.402 181.297 104.798C184.809 102.92 188.923 102.508 192.738 103.655C194.978 104.343 197.039 105.517 198.774 107.092Z" fill="black"/>
<path d="M171.499 191.929C172.537 191.299 173.553 190.62 174.753 190.831C175.433 191.419 175.222 191.17 175.341 192.343L177.22 192.801C178.672 192.788 179.897 192.478 181.315 192.184C183.779 194.004 184.806 194.842 187.45 196.324C187.862 198.8 187.733 202.094 187.672 204.632C187.366 204.618 187.059 204.614 186.753 204.619C184.84 204.665 184.132 205.591 182.927 206.901C181.066 204.673 181.026 204.183 179.983 201.488C179.618 200.543 179.358 200.288 178.512 199.948C177.459 200.194 177.092 200.694 176.832 201.693C177.446 204.21 190.577 221.082 192.942 224.344C194.691 226.767 196.337 229.263 197.877 231.824C203.828 224.945 208.152 220.876 215.428 215.171C219.547 211.995 223.792 208.986 228.153 206.151C230.363 204.709 235.103 202.115 236.431 200.132C236.577 199.229 236.623 199.657 236.276 198.802C234.112 197.908 227.793 205.523 224.438 203.804C223.384 202.447 223.007 193.032 222.973 190.901C224.9 191.154 225.631 191.22 227.544 191.23C229.306 191.239 232.982 190.819 234.474 191.19C235.069 191.573 237.73 192.033 238.509 192.072C244.096 192.347 254.895 199.799 245.442 204.116C242.38 205.514 238.838 207.108 235.859 208.722C235.444 208.965 235.48 209.568 235.494 209.957C237.507 211.245 248.981 204.859 251.265 203.611C256.583 205.723 257.643 207.318 258.895 212.801C257.318 212.638 255.745 212.475 254.193 212.908C249.494 214.221 245.093 216.967 240.689 219.001C233.232 222.444 225.315 225.661 217.524 228.23C215.276 228.971 205.728 230.777 204.801 231.571C204.527 231.805 204.315 232.028 204.163 232.358C205.069 234.306 209.633 232.67 211.093 232.422C220.92 230.751 230.935 226.442 239.731 221.799L241.484 220.868C232.313 240.703 229.678 267.14 237.196 288.002C239.511 294.425 243.248 300.997 249.244 304.57C251.375 304.242 252.275 304.025 254.333 303.37C252.8 304.617 251.735 305.36 249.888 306.142C252.63 309.427 254.013 310.582 257.785 312.807C257.7 314.88 257.77 317.585 258.128 319.625C255.678 320.02 253.188 320.69 250.738 321.22C247.988 321.812 244.579 321.377 242.215 322.582C238.788 319.215 235.662 315.552 231.981 312.47C227.535 308.745 225.694 304.995 219.517 304.44C219.741 303.495 220.089 301.987 220.455 301.1C221.451 298.692 223.756 296.627 222.527 293.942C220.803 292.497 218.292 294.45 218.269 292.357C218.247 290.34 217.288 289.107 216.779 287.22C216.068 284.577 216.402 281.402 217.01 278.755C218.514 277.09 220.423 276.327 219.113 274.177C216.238 272.99 156.592 270.89 151.918 271.437C152.353 267.042 153.285 263.167 154.105 258.885C156.792 244.843 160.992 232.234 166.585 219.094C170.564 224.013 179.752 228.594 185.661 230.878C185.366 232.54 184.717 238.698 184.275 239.758L184.859 241.559C186.347 240.066 186.747 233.39 186.845 231.099C187.925 231.643 191.418 233.497 190.667 230.42C190.082 229.898 189.182 229.821 188.383 229.656C187.61 228.357 189.044 227.525 187.541 225.919C186.595 225.641 186.97 225.62 186.059 225.876C185.071 226.721 185.604 227.224 185.016 228.167C183.961 227.858 178.441 225.108 177.204 224.309C171.733 220.614 163.138 215.628 160.968 209.124C159.712 205.361 163.633 201.405 167.326 200.799L167.056 199.77C167.158 197.692 170.208 193.716 171.499 191.929Z" fill="#FCC32E"/>
<path d="M171.499 191.929C172.119 192.405 172.407 192.442 172.45 193.356C172.527 194.969 172.469 196.528 172.668 198.145C172.705 200.144 172.333 205.705 171.536 207.405L171.037 207.587C169.351 206.413 168.247 202.478 167.326 200.799L167.056 199.771C167.158 197.693 170.208 193.716 171.499 191.929Z" fill="#FBFAFB"/>
<path d="M184.859 241.559C184.849 244.327 183.684 258.187 182.23 259.91L181.835 259.772C181.66 259.292 180.296 257.132 180.269 257.51C180.507 254.18 181.732 241.37 184.275 239.758L184.859 241.559Z" fill="#FBFAFB"/>
<path d="M171.499 191.929C172.537 191.299 173.553 190.62 174.753 190.831C175.433 191.419 175.222 191.17 175.341 192.343L177.22 192.801C177.144 195.308 175.178 197.679 172.668 198.144C172.469 196.528 172.527 194.969 172.45 193.356C172.407 192.442 172.119 192.405 171.499 191.929Z" fill="#FCF7DD"/>
<path d="M206.114 258.14L205.897 257.982C205.374 257.595 205.047 257.445 204.802 256.855C205.282 254.875 205.653 253.252 205.959 251.25C206.557 247.333 206.579 235.493 209.466 233.089C210.71 235.408 209.778 255.095 209.242 258.777C209.203 259.04 208.604 259.94 208.404 260.217C207.668 259.367 207.137 258.63 206.114 258.14Z" fill="#FBFAFB"/>
<path d="M206.114 258.14C207.137 258.63 207.668 259.368 208.405 260.218C208.763 261.548 208.494 262.09 207.537 262.908C206.672 263.045 207.07 263.12 206.307 262.67C205.316 261.178 205.809 260.003 206.114 258.14Z" fill="black"/>
<path d="M209.571 226.324C210.44 226.337 210.605 226.272 211.271 226.75C211.653 227.593 211.305 228.525 211.101 229.495C210.08 229.497 210.44 229.637 209.68 229.068C209.286 228.138 209.476 227.356 209.571 226.324Z" fill="black"/>
<path d="M198.774 107.092C202.745 103.576 207.488 101.779 212.786 102.209C221.671 102.929 226.757 107.662 228.74 116.056C233.62 115.842 237.479 116.738 241.258 120.086C245.896 124.272 245.696 129.762 244.155 135.305C244.145 135.342 244.81 136.098 244.849 136.126C251.838 141.209 251.433 151.131 245.717 157.032C244.809 157.969 243.933 158.796 242.894 159.635C243.58 161.885 243.566 162.697 243.388 165.056C242.25 171.633 237.782 175.724 231.319 177.07C230.315 187.99 223.68 182.581 223.05 186.73L222.973 190.901C223.007 193.033 223.384 202.447 224.438 203.804C227.793 205.523 234.112 197.908 236.276 198.802C236.623 199.657 236.577 199.229 236.431 200.132C235.103 202.115 230.363 204.709 228.153 206.152C223.792 208.986 219.547 211.995 215.428 215.171C208.152 220.877 203.828 224.945 197.877 231.824C196.337 229.263 194.691 226.768 192.942 224.344C190.577 221.082 177.446 204.21 176.832 201.693C177.092 200.694 177.459 200.195 178.512 199.949C179.358 200.288 179.618 200.544 179.983 201.489C181.026 204.183 181.066 204.673 182.927 206.902C184.132 205.591 184.84 204.666 186.753 204.619C187.059 204.614 187.366 204.619 187.672 204.632C187.733 202.094 187.862 198.8 187.45 196.325C184.806 194.842 183.779 194.004 181.315 192.184C179.897 192.479 178.672 192.789 177.22 192.802L175.341 192.344C175.703 189.612 177.036 190.054 179.518 189.939C175.493 185.682 173.788 178.689 172.928 172.996C168.952 171.623 165.111 167.135 166.274 162.801C168.521 164.024 170.608 168.225 172.229 170.669C172.329 168.2 172.346 161.524 174.436 160.205C175.757 161.316 175.133 171.335 175.681 174.157C180.906 201.086 206.127 202.135 220.517 181.58C222.045 179.397 222.803 176.256 224.377 174.034C225.145 173.656 229.436 175.145 231.038 174.764C239.448 172.763 245.513 160.811 236.686 155.094C232.496 152.38 229.438 157.444 226.297 158.369C222.32 159.54 222.497 148.175 222.444 146.136C211.675 143.711 210.535 139.91 210.425 129.861C203.969 129.407 207.572 130.821 205.239 134.115C203.046 137.26 199.637 139.344 195.838 139.862C192.672 140.311 190.734 139.677 188.242 137.818L187.805 137.666L187.4 136.779L185.084 141.015C186.745 141.113 189.58 141.166 190.76 142.53C191.111 142.932 191.269 143.467 191.195 143.994C191.09 144.775 191.071 144.612 190.564 145.209C189.352 145.561 186.529 143.949 185.003 144.367C181.769 145.254 178.921 148.12 176.406 150.2C175.241 155.659 174.304 154.766 169.514 153.045C168.416 154.344 167.106 155.612 166.104 156.872L167.169 153.248C163.567 151.906 160.4 149.81 158.78 146.16C157.728 143.745 157.681 141.01 158.65 138.56C159.504 136.372 161.086 134.487 162.912 133.034C159.732 126.333 162.006 119.973 168.678 116.928C169.799 116.417 173.838 115.502 174.289 114.97C175.723 110.273 176.497 107.402 181.297 104.798C184.809 102.92 188.923 102.508 192.738 103.655C194.978 104.343 197.039 105.517 198.774 107.092Z" fill="black"/>
<path d="M188.525 134.267C196.579 140.401 199.667 132.689 206.078 129.712C202.909 133.585 200.378 136.815 194.847 137.628C192.853 137.921 190.018 136.241 188.654 136.499C188.329 137.004 188.335 137.234 188.242 137.818L187.804 137.666L187.4 136.779L188.525 134.267Z" fill="#FBFAFB"/>
<path d="M220.249 186.46C221.356 187.582 219.131 201.671 222.773 206.97C214.047 211.677 204.312 220.404 198.1 228.212C197.373 226.66 194.906 222.985 193.876 221.369C192.856 219.431 186.669 212.707 186.951 211.642C187.551 211.645 188.44 211.627 188.823 211.135C190.641 208.801 190.311 200.201 190.316 197.461C199.768 202.841 214.352 194.015 220.249 186.46Z" fill="#FBFAFB"/>
<path d="M213.682 133.114C214.943 133.762 217.151 139.32 217.58 140.809C214.259 140.052 213.634 135.92 213.682 133.114Z" fill="#FBFAFB"/>
<path d="M121.77 239.35C121.061 238.549 118.27 236.316 116.909 234.884C111.247 228.894 107.188 221.572 105.107 213.596C102.694 204.09 103.816 194.226 107.819 185.45C108.798 183.123 109.731 180.48 111.08 178.364C121.403 162.184 141.712 154.892 159.919 161.159C161.693 161.77 164.225 163.102 166.005 162.554L166.274 162.801C165.111 167.135 168.952 171.623 172.928 172.996C173.788 178.689 175.493 185.682 179.518 189.939C177.036 190.054 175.703 189.612 175.341 192.344C175.222 191.17 175.433 191.42 174.753 190.831C173.553 190.62 172.537 191.299 171.499 191.929C170.208 193.716 167.158 197.693 167.056 199.771L166.865 199.114C164.817 198.097 161.117 200.489 159.502 201.739C153.878 201.9 144.647 207.165 144.874 213.622C144.9 214.375 145.624 216.082 145.922 216.843C144.697 218.021 141.264 219.233 139.449 220.457C130.646 226.393 127.33 230.77 121.77 239.35Z" fill="#FED774"/>
<path d="M231.319 177.07C237.782 175.723 242.25 171.633 243.388 165.056L243.507 165.57C244.721 165.963 250.645 165.608 252.253 165.676C267.963 166.23 277.945 178.677 277.383 193.855C277.073 202.233 275.488 211.562 285.365 214.46C297.865 218.127 307.59 220.42 313.998 233.189C318.995 243.151 319.063 253.915 315.453 264.5C314.11 268.442 312.095 272.122 309.495 275.377C309.533 269.287 309.363 264.62 307.34 258.802C305.613 253.682 301.908 249.469 297.05 247.104C290.17 243.754 291.573 243.783 287.443 237.796C283.263 231.739 276 225.101 269.37 221.856C268.738 216.438 265.568 214.924 260.753 213.378C261.69 206.483 257.865 203.293 251.753 201.475C251.833 199.081 251.795 197.939 250.538 195.809C248.501 192.353 244.854 190.517 241.053 189.621C239.8 189.325 237.484 188.979 236.119 188.67C235.907 188.798 235.694 188.927 235.482 189.056L234.474 191.19C232.982 190.819 229.306 191.239 227.544 191.23C225.631 191.22 224.9 191.154 222.973 190.901L223.05 186.73C223.68 182.581 230.315 187.99 231.319 177.07Z" fill="#FED774"/>
<path d="M223.05 186.73C223.281 186.659 224.092 186.447 224.239 186.505C226.042 187.22 234.615 187.899 235.482 189.056L234.474 191.19C232.982 190.819 229.306 191.239 227.544 191.23C225.631 191.22 224.9 191.154 222.973 190.901L223.05 186.73Z" fill="#FCE7AD"/>
<path d="M264.873 222.013C269.823 225.378 274.768 227.446 279.13 232.185C281.583 234.896 284.773 237.904 286.683 241.05C299.265 261.775 307.235 284.165 312.055 308.042C314.713 321.202 316.383 341.375 308.868 353.955C306.978 357.12 299.54 361.857 296.455 364.165C295.563 364.76 290.133 365.795 288.975 366.035C277.853 368.352 266.785 366.565 255.745 364.517L252.408 363.135C248.67 361.485 247.702 361.415 243.732 360.787C243.702 360.145 243.789 359.827 243.905 359.207C246.95 357.802 248.71 354.242 249.859 351.185C252.425 344.355 252.865 335.77 249.87 328.995C248.696 326.342 247.107 325.607 244.643 324.362C256.923 323.815 269.48 319.157 282.158 321.725C284.63 322.225 290.05 324.337 292.075 324.092C292.81 322.272 289.745 321.362 288.405 320.865C281.65 318.362 275.085 318.477 268.003 318.537C267.39 312.642 265.888 305.865 264.898 299.95C264.313 296.467 263.093 287.64 261.855 284.717L261.33 284.292L260.923 284.427C260.043 286.402 262.003 298.025 262.533 300.75C259.763 299.677 258.573 298.912 257.383 296.077C250.683 280.1 251.28 262.73 255.088 246.121C257.035 237.628 259.973 229.313 264.873 222.013Z" fill="#FCC32E"/>
<path d="M255.458 355.773C258.495 347.633 260.328 341.168 257.88 332.41C257.558 331.26 256.303 328.445 256.385 327.763L256.808 327.558C257.383 327.633 258.118 327.79 258.473 328.29C262.96 334.58 262.47 350.125 257.165 355.47L255.458 355.773Z" fill="black"/>
<path d="M255.458 355.773L257.165 355.47C257.29 356.363 256.493 362.055 256.393 363.37C256.37 363.67 255.928 364.263 255.745 364.518L252.408 363.135C251.165 358.82 253.605 361.013 254.42 357.455C254.695 356.248 254.395 356.75 255.458 355.773Z" fill="#FED774"/>
<path d="M269.405 253.183C269.978 253.613 269.785 253.345 270.028 253.99C269.208 257.44 266.568 263.175 265.428 266.97C264.873 268.815 262.585 277.318 261.835 278.175L261.22 277.533C260.19 272.913 265.485 256.068 269.405 253.183Z" fill="black"/>
<path d="M138.99 223.353C141.671 221.769 143.893 220.321 146.475 218.58C145.775 220.763 144.998 222.832 144.201 224.986C141.42 232.503 139.861 240.649 138.436 248.519C137.47 253.858 137.701 259.468 136.616 264.803C136.309 262.5 135.136 252.44 134.014 251.19L133.458 251.033C131.895 252.598 134.646 267.985 134.832 271.09C131.797 270.838 127.885 270.29 125.576 272.675C120.553 277.863 120.328 286.04 124.71 291.533C117.027 292.708 116.392 298.415 115.806 305.11C109.47 304.115 105.071 304.063 99.4563 307.965C98.9588 308.313 98.5496 308.615 98.4003 309.2C99.1038 309.633 100.425 309.413 101.146 309.185C106.393 307.533 107.566 306.925 113.171 307.39C112.194 308.508 109.191 311.973 108.302 312.67C102.164 317.488 102.066 318.15 101.605 325.97C101.427 328.998 100.765 331.58 101.059 335.133C101.656 342.35 103.312 350.183 109.101 355.108C109.28 355.26 109.461 355.41 109.643 355.558C103.739 355.34 98.3408 353.5 94.2783 349.063C89.4123 343.75 87.1546 336.005 87.5051 328.905C88.4521 309.715 105.089 276.293 113.905 258.545C115.293 255.75 116.017 252.258 117.664 249.704C118.678 248.133 120.14 246.927 121.245 245.432C123.267 242.697 124.842 239.618 126.865 236.858C129.315 233.516 132.263 230.418 134.532 226.971L135.713 224.43C137.057 224.077 137.711 223.881 138.99 223.353Z" fill="#FCC32E"/>
<path d="M138.99 223.353C138.828 224.963 136.718 226.564 135.368 227.19C134.868 227.121 134.962 227.186 134.533 226.971L135.713 224.429C137.057 224.077 137.711 223.881 138.99 223.353Z" fill="#FCF7DD"/>
<path d="M219.651 306.982C226.375 308.007 237.467 322.425 242.435 327.29C244.47 329.282 247.204 327.407 248.331 332.005C250.517 340.922 249.065 347.48 244.849 355.302C242.669 355.022 242.089 354.652 239.622 355.015C236.915 355.41 234.816 357.192 232.291 358.23C230.433 358.992 228.103 359.66 226.106 359.91C218.69 360.847 210.231 361.042 203.901 356.46C203.045 355.84 202.67 355.422 202.542 354.43C203.658 351.867 215.36 356.347 219.458 353.705C219.9 352.92 219.846 353.317 219.707 352.49C218.383 351.27 211.902 352.137 208.861 351.32C204.991 350.282 204.028 350.22 200.211 348.232C198.89 347.475 196.618 345.912 197.255 344.142C197.464 344.01 197.672 343.88 197.881 343.747C204.416 344.357 211.265 345.687 217.855 344.705C220.12 344.367 220.501 343.655 220.472 342.262C219.215 341.33 212.597 342.257 210.509 342.035C208.341 341.802 189.966 340.645 196.271 335.44C196.561 335.2 199.925 335.19 200.828 335.22C205.193 335.365 217.983 336.082 221.343 332.72L221.336 332.225C217.527 328.915 199.953 332.202 199.196 327.242C201.484 322.035 222.546 325.047 227.319 320.825L227.345 320.377C226.726 319.682 225.943 319.547 225.028 319.242C223.119 316.5 219.613 310.37 219.651 306.982Z" fill="#FBFAFB"/>
<path d="M116.155 307.587C116.365 308.52 116.508 309.135 116.884 310.035C117.27 310.955 118.923 312.587 118.984 313.345C117.513 314.615 117.315 314.885 116.843 316.762C115.66 317.715 113.189 316.262 112.285 317.997C113.321 319.827 121.953 320.982 123.752 320.25C124.253 319.56 124.231 318.81 124.333 317.93C124.463 317.49 124.386 317.697 124.883 317.332C126.421 317.157 128.997 317.26 130.524 317.535C131.681 318.875 131.924 318.722 132.79 320.372C133.402 323.092 135.72 324.21 135.597 325.935C133.53 328.82 118.293 326.837 114.576 328.045C114.158 328.182 114.118 328.662 114.014 329.057C115.607 334.322 135.867 330.72 139.465 334.34C139.81 335.302 139.781 334.825 139.546 335.825C136.716 339.18 125.822 339.27 121.402 338.932C119.797 338.807 115.763 338.33 114.459 338.54C114.088 339.327 114.148 338.915 114.354 339.827C115.855 341.892 125.979 341.76 128.627 341.565C130.389 341.437 135.905 340.675 137.307 340.902L137.615 341.465C137.703 343.577 136.669 344.547 134.785 345.357C131.12 346.932 127.316 347.865 123.319 347.99C120.86 348.065 118.137 347.565 115.741 347.832L115.465 348.277C116.714 352.775 130.71 349.625 132.396 350.67C133.21 356.112 115.701 359.035 110.435 352.93C104.864 346.475 104.394 341.9 103.311 333.497C103.007 331.14 103.781 328.747 103.822 326.402C104.084 316.687 109.923 314.622 116.155 307.587Z" fill="#FBFAFB"/>
<path d="M131.534 316.065C142.508 316.317 153.478 316.745 164.439 317.342C170.265 317.632 180.073 318.255 185.674 317.91C182.224 324.242 181.471 332.37 185.986 338.375C171.42 338.062 156.865 336.762 142.279 336.362C141.992 329.227 135.031 330.407 129.541 330.122C130.897 329.785 135.464 328.867 136.312 328.352C140.998 325.5 137.273 320.655 132.79 320.372C131.924 318.722 131.681 318.875 130.524 317.535C130.674 317.3 130.601 317.137 130.599 316.757L131.534 316.065Z" fill="#FCC32E"/>
<path d="M171.385 324.247C171.492 323.345 171.422 322.642 171.888 321.982C172.551 323.325 172.202 331.26 171.822 332.835C172.225 333.645 172.71 334.2 172.504 334.88L172.707 334.745L172.701 335.072L172.383 335.087H172.462L172.35 334.54H171.991C170.754 331.96 170.519 330.135 170.734 327.247C170.792 326.47 170.869 324.695 171.385 324.247Z" fill="#FED774"/>
<path d="M171.822 332.835C172.225 333.645 172.71 334.2 172.504 334.88L172.707 334.745L172.701 335.073L172.383 335.088H172.462L172.35 334.54H171.991C170.754 331.96 170.519 330.135 170.734 327.248C170.792 326.47 170.869 324.695 171.385 324.248C171.204 326.885 171.039 330.3 171.822 332.835Z" fill="#CF9C14"/>
<path d="M127.241 297.505C139.75 298.395 152.357 298.312 164.881 299.01C171.485 299.377 178.132 299.282 184.735 299.705C183.857 302.65 183.476 304.95 183.524 308.027C183.545 309.355 184.243 311.577 184.081 312.202L183.562 312.292C165.064 311.857 146.505 310.46 127.993 310.14C124.605 310.082 124.932 306.335 124.854 303.775C124.776 301.2 124.88 299.03 127.241 297.505Z" fill="#FBFAFB"/>
<path d="M140.343 341.018C141.929 341.33 145.718 341.37 147.552 341.423C152.68 341.555 157.81 341.653 162.94 341.713C170.607 341.843 178.277 342.413 185.91 342.505C183.204 345.943 183.822 352.145 184.337 356.265C183.782 356.478 180.496 356.218 179.663 356.175C174.921 355.805 169.587 355.72 164.77 355.458L134.323 353.71C134.828 352.795 135.295 351.79 135.756 350.848C135.248 350.19 135 349.968 134.768 349.193C135.587 346.38 141.676 347.155 140.343 341.018Z" fill="#FBFAFB"/>
<path d="M130.887 277.037C132.584 276.992 134.233 277.04 135.929 277.102C148.213 277.552 160.5 277.73 172.782 278.27C176.015 278.412 179.314 278.517 182.548 278.497C181.392 282.905 181.018 285.602 181.968 290.052L145.573 288.752C142.36 288.63 134.085 288.59 131.024 287.97C128.901 287.54 129.731 279.227 130.887 277.037Z" fill="#FBFAFB"/>
<path d="M187.374 274.882C188.353 275.097 189.582 275.067 190.605 275.115C199.093 275.52 207.454 276.947 215.978 276.755C212.304 281.965 213.042 286.505 215.386 291.927C214.812 292.292 214.253 292.12 213.538 292.045C204.146 291.825 195.865 291.602 186.452 291.975C183.872 288.367 181.984 282.515 185.905 278.665C186.031 278.542 187.22 278.63 187.862 278.027C188.01 276.982 187.638 275.935 187.374 274.882Z" fill="#FBFAFB"/>
<path d="M195.912 284.998C200.775 284.823 206.387 284.935 211.292 284.995C211.656 285.608 211.475 285.74 211.381 286.64C209.693 286.78 197.582 286.93 196.071 286.698C195.667 285.993 195.836 285.993 195.912 284.998Z" fill="black"/>
<path d="M197.698 280.815C200.054 280.692 209.871 280.25 211.289 281.402L211.31 281.815L210.871 282.295L210.062 282.28C207.471 282.347 198.522 282.605 196.356 282.122L196.202 281.612C196.7 280.84 196.493 281.09 197.698 280.815Z" fill="black"/>
<path d="M188.73 313.642C186.949 312.425 186.062 311.357 186.023 309.077C185.883 300.885 186.295 298.04 195.094 298.265C203.167 298.47 211.187 297.807 219.277 298.187C217.38 301.045 215.356 304.02 216.941 307.527C214.889 307.52 200.11 307.202 199.199 307.775C201.685 308.932 213.713 308.342 216.68 308.57C216.717 310.18 217.762 311.865 218.554 313.24C209.053 313.257 198.152 313.267 188.73 313.642Z" fill="#FBFAFB"/>
<path d="M208.18 301.87C210.475 301.837 213.724 301.67 215.841 302.45L215.901 302.805C214.275 303.902 208.699 303.56 206.688 303.525C205.283 303.517 199.787 303.647 199.039 302.98L199.274 302.655C201.472 301.807 205.731 301.917 208.18 301.87Z" fill="black"/>
<path d="M219.065 318.438L219.901 318.767C220.028 319.355 220.005 319.32 219.855 319.91C216.979 321.695 203.181 320.32 199.521 323.125C191.416 329.34 199.866 331.233 205.027 332.295C202.399 332.553 199.683 332.505 197.047 332.77C193.443 333.132 192.788 334.55 191.821 337.652C186.593 340.245 185.303 330.223 185.764 327.035C186.3 323.33 185.861 322.358 188.375 319.285C197.051 319.223 210.419 319.175 219.065 318.438Z" fill="#FBFAFB"/>
<path d="M189.363 342.165C191.822 341.715 193.359 341.775 195.804 341.842C195.238 342.567 194.398 343.49 193.782 344.207C195.733 348.332 195.936 349.46 200.278 351.562C201.019 351.92 199.896 353.692 199.8 354.527C199.693 355.465 199.736 356.007 199.825 356.982C201.164 357.67 202.384 358.395 203.68 359.16C201.658 359.275 190.624 360.242 189.628 359.647C189.261 358.282 189.938 357.935 190.85 356.952C190 356.662 188.196 356.315 187.239 356.107C185.646 350.615 185.86 346.66 189.363 342.165Z" fill="#FBFAFB"/>
<path d="M199.825 356.983C201.164 357.67 202.384 358.395 203.68 359.16C201.658 359.275 190.624 360.243 189.628 359.648C189.261 358.283 189.938 357.935 190.85 356.953C192.765 357.455 198.239 357.763 199.825 356.983Z" fill="#FED774"/>
<path d="M126.847 293.865C127.957 293.805 129.148 293.445 129.742 294.46C128.925 295.498 125.915 295.793 124.334 296.2C121.486 300.085 121.043 311.228 127.099 312.143C131.789 312.853 137.431 312.345 142.257 312.613C156.498 313.405 170.766 313.643 185.015 314.365C185.717 314.4 186.203 314.375 186.66 314.883L186.427 315.493C175.471 316.145 162.186 315.095 151.13 314.625C142.717 314.268 134.045 314.14 125.668 313.318C124.409 313.125 122.903 312.905 121.869 312.13C117.428 308.805 118.157 300.025 121.285 296.063C122.681 294.295 124.695 294.043 126.847 293.865Z" fill="#356E93"/>
<path d="M126.104 276.275C128.738 272.502 132.847 273.295 136.988 273.127C144.012 272.842 152.244 273.23 159.194 273.567C162.958 273.747 183.069 273.62 185.015 274.985L185.058 275.417C184.752 275.7 184.315 276.1 183.888 276.125C179.744 276.377 174.523 276.087 170.43 275.927C161.797 275.527 153.158 275.255 144.517 275.112C140.631 275.01 133.66 274.717 129.895 274.935C128.779 276.077 128.471 276.425 127.6 277.752C127.447 276.36 128.487 275.655 129.475 274.41L129.154 274.285C128.342 274.992 127.087 275.87 126.104 276.275Z" fill="#CF9C14"/>
<path d="M294.042 248.474C297.78 249.309 303.397 254.985 304.527 258.63C306.335 264.457 306.615 271.132 306.41 277.2C304.515 274.665 301.082 264.047 299.815 260.572C298.52 257.025 294.925 251.26 294.042 248.474Z" fill="#FCC32E"/>
<path d="M134.451 294.023C144.586 293.835 154.412 294.655 164.518 294.85C166.951 294.898 172.271 295.308 174.367 295.215L173.957 297.735C168.014 297.905 162.174 297.04 156.25 296.505C151.392 296.068 140.994 296.523 136.737 295.533C134.227 295.43 132.258 296.335 130.515 295.01L130.506 294.53C131.48 293.765 133.273 293.955 134.451 294.023Z" fill="#204D58"/>
<path d="M136.737 295.533C134.227 295.43 132.258 296.335 130.515 295.01L130.506 294.53C131.48 293.765 133.273 293.955 134.451 294.023C135.09 294.17 135.705 294.303 136.333 294.493L136.311 294.81C135.971 294.908 135.606 295.003 135.271 295.11L136.645 295.148L136.799 295.418L136.737 295.533Z" fill="#356E93"/>
<path d="M129.912 290.07C132.571 289.725 139.702 290.517 142.752 290.585C148.696 290.715 155.305 291.027 161.172 291.43C166.048 291.767 179.893 291.268 183.79 292.94L183.798 293.263C182.206 293.915 179.145 293.472 177.308 293.455C164.887 293.337 152.446 292.948 140.046 292.225C138.494 292.135 131.046 291.983 130.057 291.625C130.493 290.81 130.365 290.7 129.912 290.07Z" fill="#8C6709"/>
<path d="M137.793 357.875C135.833 357.653 132.17 357.875 130.59 357.273L130.448 356.895C132.313 354.97 138.938 356.313 141.64 356.363C144.264 356.413 147.514 356.448 150.068 356.718C153.85 356.663 159.48 357.098 163.373 357.488C161.855 359.12 159.841 358.548 157.664 358.778C153.074 359.02 142.595 358.218 137.793 357.875Z" fill="#FCC32E"/>
<path d="M137.793 357.875C135.833 357.653 132.17 357.875 130.59 357.273L130.448 356.895C132.313 354.97 138.938 356.313 141.64 356.363C144.264 356.413 147.514 356.448 150.068 356.718C147.585 356.985 139.298 356.78 137.793 357.875Z" fill="#F3AC21"/>
<path d="M163.373 357.487C167.541 357.487 172.104 357.947 176.297 358.187C177.811 358.272 182.642 358.46 183.823 358.727C184.878 358.767 185.21 358.722 186.128 359.212L186.654 359.867L186.475 360.192C184.322 360.562 179.346 360.215 177.02 359.96C172.643 359.937 168.049 359.337 163.654 359.222C161.76 359.172 159.53 359.025 157.664 358.777C159.841 358.547 161.855 359.12 163.373 357.487Z" fill="#F3AC21"/>
<path d="M219.065 318.437C217.97 315.235 192.745 318.427 190.61 316.872L190.543 316.315C191.971 315.21 216.582 315.332 218.961 316.737C219.708 317.802 219.398 318.17 219.901 318.767L219.065 318.437Z" fill="#A96F0D"/>
<path d="M126.104 276.275C127.087 275.87 128.342 274.993 129.154 274.285L129.475 274.41C128.487 275.655 127.447 276.36 127.6 277.753C127.215 281.12 125.856 288.54 129.912 290.07C130.364 290.7 130.493 290.81 130.057 291.625C123.792 291.028 123.517 280.345 126.104 276.275Z" fill="#F3AC21"/>
<path d="M261.937 313.093C262.315 313 263.79 312.955 264.265 312.93C264.757 314.648 265.532 316.608 265.252 318.303C264.69 318.983 264.735 318.768 263.56 318.945C262.287 318.998 260.775 319.19 259.487 319.323C259.5 317.188 258.767 315.413 259.582 313.735C260.502 313.073 260.72 313.235 261.937 313.093Z" fill="#FCC32E"/>
<path d="M174.367 295.215C175.14 295.292 177.339 295.42 177.869 295.76C180.204 295.58 183.842 295.377 185.989 296.482L186.182 296.872C185.099 298.37 177.621 298.125 175.709 297.787L173.957 297.735L174.367 295.215Z" fill="#204D58"/>
<path d="M174.367 295.215C175.14 295.292 177.339 295.42 177.869 295.76C177.902 296.602 178.083 297.087 177.668 297.64L175.709 297.787L173.957 297.735L174.367 295.215Z" fill="#356E93"/>
<path d="M124.333 317.93C122.568 318.252 120.157 318.492 119.06 316.74C120.941 315.142 128.857 315.91 131.534 316.065L130.599 316.757C130.601 317.137 130.674 317.3 130.524 317.535C128.997 317.26 126.421 317.157 124.883 317.332C124.386 317.697 124.463 317.49 124.333 317.93Z" fill="#FCC32E"/>
<path d="M157.34 206.336L157.589 206.37C157.882 207.121 157.758 206.963 157.515 207.925L156.971 208.095C151.801 209.724 149.755 210.827 147.234 215.668L147.076 215.653L146.889 215.397C150.673 208.652 149.947 209.114 157.34 206.336Z" fill="#9F9579"/>
<path d="M189.945 294.222C191.942 294.227 195.993 294.155 197.753 294.705L197.885 295.092L197.438 295.385C195.423 295.772 192.182 296.597 190.352 295.845C189.808 295.172 189.988 295.302 189.945 294.222Z" fill="#8C6709"/>
<path d="M243.732 360.787C242.596 360.53 239.705 359.477 239.222 358.382C240.551 357.737 242.415 358.77 243.905 359.207C243.789 359.827 243.702 360.145 243.732 360.787Z" fill="#F3AC21"/>
<path d="M94.6064 48.6018C95.6129 48.4035 98.5729 48.3903 99.6194 48.446C108.689 48.928 114.872 52.0745 122.374 56.5073L122.612 56.0948C124.31 53.0818 122.79 51.8165 125.393 50.1595C126.449 51.1073 128.042 52.2715 129.187 53.21C138.68 61.0888 144.626 72.439 145.698 84.7293C147.166 99.8383 141.269 113.148 131.615 124.023C130.426 125.362 131.669 126.306 130.983 127.141C130.253 126.9 129.607 126.054 129.054 125.459C126.182 128.258 121.877 130.737 118.282 132.515C106.196 138.493 93.4594 138.782 80.7801 134.394C80.1109 136.204 79.8169 137.031 78.6439 138.551C81.9324 140.131 84.7819 141.46 85.0419 145.536C86.5416 147.287 90.2001 153.013 87.1934 154.557C84.0056 154.224 57.9901 143.229 55.6069 141.347L55.5684 140.66C57.1246 137.207 65.4091 135.294 68.9636 135.561C69.9721 135.636 71.3354 135.904 72.3506 136.098C73.0201 134.415 73.6446 133.232 74.8911 131.929C72.3964 130.459 62.9469 124.707 63.1244 121.866C63.6706 121.032 63.3971 121.311 64.3284 120.853C65.4194 120.895 65.7529 121.436 66.7864 122.105C67.7884 121.72 67.9981 120.339 69.8979 119.059C69.4729 118.778 68.7364 118.316 68.3886 117.982C47.2926 97.73 55.7576 60.9808 83.0079 51.148C87.1561 49.6513 90.1851 49.0238 94.6064 48.6018Z" fill="black"/>
<path d="M75.4906 60.4572C75.5608 59.0825 75.6671 58.6635 76.7991 57.7717C82.9193 52.95 89.6761 51.808 96.9103 50.9912C96.2901 55.0192 97.9291 56.8975 98.7481 60.675C99.6428 64.803 99.7816 68.581 102.39 72.1535C102.55 72.3752 102.716 72.5927 102.888 72.8057C103.903 72.2277 105.057 71.621 105.985 70.9317C102.308 67.496 102.854 65.125 102.059 60.5492C101.752 58.7855 99.8538 56.1872 99.9131 54.1992C100.077 48.6827 111.583 53.9342 114.327 54.763C112.303 58.4092 113.065 59.8 114.042 63.5122C114.452 65.0725 113.681 68.0912 115.846 68.8885C120.302 70.5302 125.033 67.1307 126.029 62.955C127.132 64.3102 128.22 65.7017 129.444 66.9467C127.751 62.3297 127.392 61.503 124.004 57.881C125.084 56.3905 125.496 55.6997 126.231 54.0197C168.709 92.6435 124.189 153.046 75.5403 128.689C73.1603 127.497 70.6783 125.646 68.5098 124.085C69.4708 123.125 71.2333 121.278 72.2441 120.494C74.4508 122.341 77.8583 125.967 80.9398 124.747C81.3803 124.308 81.3183 124.415 81.9716 124.217C87.4721 122.821 86.2283 120.885 90.4293 117.969C91.0801 117.518 93.5346 117.149 94.3988 116.718C96.8506 115.453 99.6526 112.873 100.709 110.287C103.192 104.21 95.2488 102.121 91.0823 100.799C89.9418 93.5685 83.4953 92.1302 77.1043 91.6162C71.0581 86.5007 72.8183 80.069 81.0856 83.7477C82.1723 84.2312 83.3323 84.6557 84.4668 85.0095C85.7178 84.668 87.9893 81.417 89.2166 80.214L89.4281 80.0087C93.3413 79.0667 98.0913 79.5895 98.4776 74.4905C98.8493 69.5795 94.4018 70.157 91.0096 70.2277C91.0421 71.484 90.8541 71.1445 91.4938 72.0142C93.3358 72.9147 96.6176 72.3297 95.0198 75.7545C94.3771 76.266 93.8166 76.3072 92.9906 76.432C87.2143 77.305 86.9308 77.8777 83.9176 82.433C81.4078 81.1945 78.7471 79.6157 75.8726 80.538C72.6103 81.5845 72.0963 85.8677 70.8063 86.9777C68.4876 85.4902 71.8483 80.6312 64.4296 79.608C64.3781 77.9877 64.8221 77.342 64.5306 75.7632C63.9253 75.2182 63.0283 74.6085 62.3516 74.118C64.7808 71.2415 71.4726 59.328 74.8816 59.6532L75.4906 60.4572Z" fill="#FBFAFB"/>
<path d="M62.3516 74.1178C64.7808 71.2413 71.4726 59.3278 74.8816 59.653L75.4906 60.457C74.4096 61.3865 66.3566 73.223 65.5466 74.6468L65.4283 74.857C65.6656 75.5468 65.6893 75.8298 66.2613 76.2835C66.7773 75.9635 68.7008 72.988 69.3151 72.2575C72.1143 68.929 75.6143 68.0125 77.4681 63.97C78.2496 63.7023 78.0208 63.7975 79.0063 64.1535C80.6698 71.9005 88.3221 62.7643 91.8268 63.2583C93.7303 64.9388 89.1423 67.3855 90.5538 69.7188L91.0096 70.2275C91.0421 71.4838 90.8541 71.1443 91.4938 72.014C93.3358 72.9145 96.6176 72.3295 95.0198 75.7543C94.3771 76.2658 93.8166 76.307 92.9906 76.4318C87.2143 77.3048 86.9308 77.8775 83.9176 82.4328C81.4078 81.1943 78.7471 79.6155 75.8726 80.5378C72.6103 81.5843 72.0963 85.8675 70.8063 86.9775C68.4876 85.49 71.8483 80.631 64.4296 79.6078C64.3781 77.9875 64.8221 77.3418 64.5306 75.763C63.9253 75.218 63.0283 74.6083 62.3516 74.1178Z" fill="#FCC32E"/>
<path d="M82.7496 63.3009C83.4366 63.7157 83.6261 63.8447 84.3734 64.1084C85.9126 63.3079 87.9081 59.4434 91.7228 60.6967C93.1743 61.1737 93.8781 61.8384 94.8771 62.9424C93.9291 65.1377 92.3796 68.1187 90.5538 69.7192C89.1423 67.3859 93.7304 64.9392 91.8269 63.2587C88.3221 62.7647 80.6698 71.9009 79.0063 64.1539C80.2461 63.8707 81.5088 63.5669 82.7496 63.3009Z" fill="black"/>
<path d="M120.962 105.603C116.301 105.418 110.129 104.781 109.842 98.2544C109.649 93.8589 113.107 88.6999 117.332 87.4607C119.035 86.9609 122.226 86.9562 123.45 85.7669C123.427 84.0169 119.957 81.5067 121.974 78.9407C123.79 76.6307 129.575 72.0807 132.537 74.2107C133.086 75.0417 133.037 75.5394 133.127 76.5354C133.572 78.4414 134.268 81.0804 134.534 82.9637C134.952 85.2607 135.225 95.3534 134.868 97.7524C136.128 102.087 132.647 109.132 130.158 112.593C128.644 114.699 124.825 119.891 122.382 120.346C121.474 120.082 121.831 120.326 121.247 119.628C121.248 119.469 121.26 117.758 121.249 117.729C120.844 116.721 119.967 116.247 120.412 115.168C121.437 112.681 122.261 110.497 122.855 107.877C122.244 106.984 121.682 106.394 120.962 105.603Z" fill="#FCC32E"/>
<path d="M120.962 105.603C116.301 105.418 110.129 104.781 109.842 98.2544C109.649 93.8589 113.107 88.6999 117.332 87.4607C119.035 86.9609 122.226 86.9562 123.45 85.7669C123.427 84.0169 119.957 81.5067 121.974 78.9407C123.79 76.6307 129.575 72.0807 132.537 74.2107C133.086 75.0417 133.037 75.5394 133.127 76.5354C131.173 76.9069 123.615 78.2139 124.369 81.5352C124.647 82.7627 126.2 84.4542 126.858 85.6152C124.224 90.1317 124.023 88.7517 119.168 89.6962C114.519 90.6007 108.869 99.3344 115.49 102.016C118.56 103.259 123.73 101.724 125.271 106.1C126.05 108.185 124.792 112.462 124.24 114.781C128.479 111.167 130.224 107.572 132.463 102.541C133.089 101.134 133.844 98.7732 134.868 97.7524C136.128 102.087 132.647 109.132 130.158 112.593C128.644 114.699 124.825 119.891 122.382 120.346C121.474 120.082 121.831 120.326 121.247 119.628C121.248 119.469 121.26 117.758 121.249 117.729C120.844 116.721 119.967 116.247 120.412 115.168C121.437 112.681 122.261 110.497 122.855 107.877C122.244 106.984 121.682 106.394 120.962 105.603Z" fill="black"/>
<path d="M127.387 85.5861C128.028 84.8311 128.737 83.7406 129.612 83.5571C130.315 84.0876 130.463 84.9144 130.603 85.8276C129.226 86.0616 128.555 86.2924 127.387 85.5861Z" fill="black"/>
<path d="M78.7296 85.8774C79.9789 85.9199 83.2261 87.4832 83.8439 88.6207C83.6544 89.5162 83.6186 89.3212 82.9146 90.1124C80.1809 91.1497 77.5564 89.1404 78.7296 85.8774Z" fill="black"/>
<path d="M78.0733 94.1899C81.6173 94.9337 86.4993 96.3179 88.1178 99.5059C88.9928 100.874 89.9358 102.099 91.1245 103.156C93.0285 104.849 97.6743 105.249 98.3228 107.87C96.5763 115.665 85.697 114.034 85.54 119.267C84.6143 121.014 80.945 121.715 81.9713 124.217C81.318 124.415 81.38 124.308 80.9395 124.747C80.0945 123.811 79.5778 123.195 78.5733 122.424C77.7145 122.11 74.7403 120.978 74.4033 120.235L75.9143 119.216C80.09 108.11 71.0698 105.719 71.7655 101.417C72.1788 98.8614 76.08 95.6839 78.0733 94.1899Z" fill="#FCC32E"/>
<path d="M78.5734 122.424C78.0256 120.683 76.5994 119.502 78.1091 117.645C79.6736 117.098 83.7641 118.712 85.5401 119.267C84.6144 121.014 80.9451 121.715 81.9714 124.217C81.3181 124.415 81.3801 124.308 80.9396 124.747C80.0946 123.811 79.5779 123.195 78.5734 122.424Z" fill="#FBFAFB"/>
<path d="M61.5469 77.1304C62.3034 77.5431 62.5726 78.6206 63.1471 79.2041C67.4531 83.5764 69.6966 89.7641 74.9649 93.0521C67.3429 98.6526 66.7271 104.612 74.1799 110.818L73.9324 114.06C73.7429 115.681 73.6716 117.37 73.5771 119.004C62.4054 111.075 56.7151 95.0241 60.3044 81.8779C60.7361 80.2966 61.1481 78.7214 61.5469 77.1304Z" fill="#FBFAFB"/>
<path d="M59.1821 140.068C61.7386 139.531 70.7829 143.579 73.7044 144.679C77.0089 145.923 84.5239 147.546 85.3714 151.242C83.1779 150.926 60.3176 141.448 59.1821 140.068Z" fill="#FBFAFB"/>
<path d="M116.276 56.54C118.031 57.0025 122.515 60.5705 123.806 61.839C122.824 62.849 122.091 63.4178 120.98 64.2935L118.026 66.33C116.626 61.9443 115.244 61.1233 116.276 56.54Z" fill="#FED774"/>
<path d="M66.231 138.349C70.2317 137.981 80.4315 140.371 81.4857 144.517C80.8 144.456 80.122 144.324 79.4627 144.125C77.3682 143.511 67.0252 139.776 66.231 138.349Z" fill="#FBFAFB"/>
<path d="M76.2285 133.087C77.3745 133.346 77.7658 133.359 78.1988 134.489C78.116 135.578 77.428 136.508 76.8588 137.487C75.7175 137.431 75.9788 137.605 75.1643 137.04C74.7253 135.711 75.6033 134.41 76.2285 133.087Z" fill="#FBFAFB"/>
<path d="M297.09 122.574C294.582 122.188 289.615 122.002 287.787 120.949C286.997 119.572 288.447 118.503 289.595 117.821C296.152 113.927 302.9 110.378 309.51 106.566L321.752 99.4436C323.665 98.3144 330.6 93.6381 332.737 94.4134C334.687 95.1199 337.675 98.1121 339.34 99.4731C349.4 108.44 359.932 116.875 369.852 125.989C370.495 126.578 371.045 127.327 371.402 128.116C371.397 128.541 371.497 128.783 371.227 128.995C369.712 130.186 363.842 129.323 361.795 129.223C361.31 134.848 360.587 134.905 355.217 133.294C353.452 132.765 351.18 132.731 349.325 132.755C350.115 134.052 350.3 134.28 351.417 135.328C349.682 144.846 349.202 155.593 347.875 165.415C349.487 165.568 351.1 165.699 352.715 165.81C352.75 162.313 353.037 158.498 353.445 155.011C354.21 148.437 354.612 141.627 355.577 135.089C356.337 134.858 357.017 134.55 357.767 134.749C358.075 135.47 355.042 162.422 354.962 166.642L354.96 166.836C355.622 167.258 356.382 167.715 357.022 168.156C357.047 169.637 357.045 171.179 357.21 172.645C358.507 172.95 359.807 173.242 361.11 173.523C361.38 174.902 361.655 176.28 361.937 177.657C362.667 178.464 363.205 178.862 363.32 179.917C362.912 181.438 361.417 181.42 360.015 181.272C355.81 180.83 351.617 180.408 347.405 180.032C333.72 178.78 320.042 177.426 306.377 175.972C300.102 175.336 293.757 174.775 287.487 174.05C286.2 173.901 286.075 173.853 285.432 172.728C285.197 170.72 286.832 169.773 288.47 169.242C289.855 166.619 289.652 166.338 292.585 166.126C292.81 162.547 292.58 161.575 296.387 161.35C296.565 155.253 297.225 149.728 297.842 143.703C298.36 138.664 299.432 132.873 298.687 127.94L298.457 127.399C295.802 126.315 296.595 125.24 297.09 122.574Z" fill="black"/>
<path d="M307.798 131.915C310.228 130.853 310.705 127.957 313.415 128.538C314.753 129.693 314.025 130.691 315.663 132.433L313.4 154.744C313.14 157.278 312.848 159.808 312.568 162.34C312.543 162.567 311.98 163.076 311.765 163.219C311.148 163.628 310.863 164.33 310.8 165.046C310.773 165.933 311.06 167.347 311.225 168.273C308.233 167.894 305.255 167.526 302.258 167.188C299.895 166.922 297.228 166.874 294.965 166.315C292.698 163.314 301.32 162.253 304.078 164.064C304.718 165.551 304.563 165.935 306.335 165.737C307.448 164.986 306.928 163.582 306.453 162.53C305.953 162.134 305.543 161.832 305.018 161.47C305.138 161.159 306.86 141.833 306.955 140.212C307.508 138.067 307.683 134.192 307.798 131.915Z" fill="#FBFAFB"/>
<path d="M298.458 127.399C301.07 127.031 305.59 127.607 308.283 128.005C307.363 129.973 307.385 130.321 305.22 130.904L305.055 131.088C305.588 131.604 305.745 131.756 306.355 132.167C306.758 134.341 306.225 139.257 306.955 140.212C306.86 141.833 305.138 161.159 305.018 161.47L304.14 161.407C302.335 161.279 300.53 161.134 298.728 160.972C299.13 157.215 301.133 133.242 301.973 131.527C302.578 131.294 303.008 131.215 303.37 130.694C302.793 129.659 300.035 127.961 298.688 127.94L298.458 127.399Z" fill="#FBFAFB"/>
<path d="M306.355 132.167C306.758 134.341 306.225 139.257 306.955 140.212C306.86 141.833 305.138 161.159 305.018 161.47L304.14 161.407C305.193 154.816 305.37 147.459 306.23 140.767C306.543 138.333 306.305 134.738 306.355 132.167Z" fill="#3F474A"/>
<path d="M331.682 96.6841C333.202 96.8173 350.522 113.067 353.312 115.297C357.54 118.676 363.222 123.69 367.392 127.213C356.475 125.344 342.98 124.93 331.777 123.551C330.082 123.299 328.142 123.117 326.425 122.972C315.045 122.007 303.317 120.01 291.917 119.713C293.88 118.723 295.807 117.638 297.712 116.544C309.117 109.998 320.565 103.715 331.682 96.6841Z" fill="#FBFAFB"/>
<path d="M331.633 100.944C332.573 101.346 337.123 105.119 337.905 106.027C339.805 108.232 354.73 119.483 354.205 121.5C353.108 122.153 350.703 121.976 349.418 121.86C335.755 120.62 322.168 118.714 308.475 117.779C307.683 117.725 305.068 117.38 304.475 117.053L304.408 116.594C305.413 115.078 308.568 113.614 310.26 113.087L310.56 112.996C311.355 112.731 311.61 112.575 312.415 112.672L312.525 112.96C311.835 113.948 310.725 114.692 309.755 115.449C319.935 115.733 330.455 117.408 340.618 118.331C343.423 118.586 346.578 118.838 349.303 119.496C347.183 117.862 344.468 115.295 342.41 113.427C339.143 110.463 334.368 106.777 331.648 103.482C330.055 104.505 324.833 107.746 322.97 106.72L323.065 106.195C324.57 104.285 329.305 102.084 331.633 100.944Z" fill="black"/>
<path d="M327.903 129.873C331.88 130.982 329.235 131.875 332.293 133.961C331.155 142.756 330.63 152.447 329.333 161.264C329.07 163.039 327.863 167.049 327.365 169.075C326.77 169.581 326.695 169.375 325.623 169.322L322.513 169.189C322.575 167.856 322.605 166.828 322.835 165.51C323.228 165.048 323.258 165.036 323.52 164.496L323.278 164.003C322.895 163.799 321.905 163.303 321.923 163.044C322.563 153.581 323.708 143.949 324.908 134.492C325.008 133.707 327.238 131.07 327.903 129.873Z" fill="#FBFAFB"/>
<path d="M344.39 131.965C347.642 132.449 346.167 133.425 348.592 135.938L348.827 136.179C348.59 137.232 348.44 138.24 348.315 139.311C347.32 147.921 346.177 156.615 345.685 165.271C342.802 167.133 344.372 167.887 343.455 170.573L339.56 170.456C339.547 167.989 338.795 165.002 338.962 162.857C339.67 153.862 340.205 144.659 341.725 135.77C341.995 134.189 343.167 132.914 344.39 131.965Z" fill="#FBFAFB"/>
<path d="M291.62 169.184C292.97 169.063 305.27 170.31 307.3 170.503L343.77 173.743C348.02 174.096 353.935 175.009 357.99 175.018C358.63 176.295 359.673 176.934 359.82 178.09C359.213 178.642 359.305 178.45 358.19 178.441C348.313 177.567 338.443 176.596 328.583 175.529C315.373 174.277 302.173 172.948 288.978 171.542C289.743 170.79 290.795 169.91 291.62 169.184Z" fill="#FBFAFB"/>
<path d="M333.477 130.798C336.137 130.709 338.797 130.999 341.375 131.658C338.45 136.174 338.427 141.617 337.92 146.86C337.467 151.885 336.962 156.906 336.402 161.921C336.352 162.762 336.432 163.38 335.915 163.996C335.21 164.354 335.16 164.389 334.39 164.327L331.71 164.14C332.077 157.899 332.927 151.422 333.515 145.159C333.862 141.472 334.577 137.357 334.457 133.631C334.442 133.129 333.75 131.729 333.53 130.979L333.477 130.798Z" fill="#FBFAFB"/>
<path d="M321.005 132.355C321.84 132.41 321.968 132.582 322.438 133.079C322.538 134.687 321.288 145.765 320.953 148.203C320.408 152.195 320.12 158.594 319.568 162.253C318.933 162.626 318.2 162.464 317.44 162.404C316.685 162.369 315.945 162.418 315.305 162.047C315.25 160.149 315.81 155.282 316.008 153.246C316.678 146.44 317.455 139.645 318.343 132.864C319.15 132.65 320.168 132.502 321.005 132.355Z" fill="#FBFAFB"/>
<path d="M299.49 122.752C315.818 124.185 332.123 125.845 348.405 127.731C349.908 127.901 358.385 128.601 359.055 129.365L358.75 130.263C354.988 131.246 327.525 127.597 322.258 127.088L307.753 125.614C306.153 125.458 301.118 125.13 299.89 124.71C299.358 123.865 299.538 123.914 299.49 122.752Z" fill="#FBFAFB"/>
<path d="M313.788 165.058C316.288 164.994 322.728 164.109 321.355 168.482C320.715 169.129 321.05 168.958 320.063 169.043C317.523 169.013 314.438 168.603 311.935 168.16C312.403 166.822 312.588 165.775 313.788 165.058Z" fill="#FBFAFB"/>
<path d="M330.035 166.312C332.653 166.197 334.528 166.357 337.09 166.627C337.443 167.915 337.98 169.173 337.47 170.339L336.808 170.483C333.9 170.289 331.348 170.151 328.475 169.662C328.935 168.385 329.21 167.395 330.035 166.312Z" fill="#FBFAFB"/>
<path d="M346.143 168.199C349.183 168.158 355.77 167.258 354.435 172.232C351.555 171.82 348.54 171.485 345.645 171.119L346.143 168.199Z" fill="#FBFAFB"/>
<path d="M316.683 129.018C318.398 128.856 322.845 129.039 324.358 129.788C324.425 130.42 324.018 131.037 323.723 131.7C323.66 131.792 323.35 132.068 323.255 132.156C321.728 132.281 320.298 131.897 318.903 131.301C317.368 130.643 317.32 130.581 316.683 129.018Z" fill="#FBFAFB"/>
<path d="M92.0691 219.491L92.6196 219.456C95.3021 220.926 95.2536 226.346 95.1456 229.037C94.8353 236.764 91.8353 243.61 86.0973 248.903C87.0733 253.772 87.9093 263.132 89.9643 267.43C90.9106 259.515 93.3503 249.929 101.626 245.985C102.178 245.722 102.653 246.005 103.097 246.284C104.357 248.179 103.982 253.51 103.544 255.715C101.905 263.972 98.2881 269.16 91.5866 273.857C92.0748 275.37 93.1608 277.715 91.9833 279.087L91.4233 279.107C89.7573 278.075 89.5306 276.547 88.9081 274.68C81.1243 273.95 79.3701 274.087 72.9668 269.085C70.6408 266.885 64.3981 258.197 66.3136 255.187C67.6523 254.347 69.9858 254.81 71.4696 255.202C79.7301 257.387 82.9533 261.305 87.1301 268.01C85.8568 263.315 84.0776 254.325 83.5558 249.508C73.6868 247.727 67.0178 237.492 67.4073 227.935C67.4441 227.029 67.5993 226.728 68.2176 226.163C70.5611 225.53 74.5218 228.354 76.1786 229.878C79.6028 233.03 81.4566 237.306 83.1956 241.516C82.8983 233.487 84.4596 223.897 92.0691 219.491Z" fill="black"/>
<path d="M68.666 257.062C69.3455 257.222 70.0235 257.39 70.6995 257.565C81.1655 260.283 81.2438 264.452 85.6918 271.995C82.785 271.372 80.8738 270.962 78.2358 269.392C73.967 266.852 69.8505 261.94 68.666 257.062Z" fill="#FBFAFB"/>
<path d="M91.9132 222.399C92.5959 222.925 92.5787 223.702 92.6644 224.514C93.5017 232.45 91.4729 238.438 86.4747 244.584L86.2869 244.588C85.7287 243.969 85.8391 241.553 85.7864 240.47C85.4401 233.371 86.9099 227.674 91.9132 222.399Z" fill="#FBFAFB"/>
<path d="M100.979 249.201C101.471 249.676 101.266 250.478 101.266 251.108C101.273 259.173 98.5892 264.868 92.6927 270.333C92.4647 270.158 92.2639 269.995 92.2764 269.638C92.5979 260.465 94.2407 255.7 100.979 249.201Z" fill="#FBFAFB"/>
<path d="M69.9561 229.069C76.1098 230.766 80.4973 240.75 82.0328 246.45C80.6033 246.216 78.5048 244.947 77.3888 244.014C72.4356 239.872 70.6303 235.27 69.9561 229.069Z" fill="#FBFAFB"/>
<path d="M338.413 257.01C341.013 257.755 343.433 259.148 345.91 259.788C357.298 262.735 368.818 256.113 371.873 245.065C373.278 239.912 372.595 234.413 369.973 229.76C365.45 221.774 355.278 217.757 346.475 220.153C339.8 221.97 333.373 227.606 331.47 234.382C330.228 238.943 330.84 244.036 332.103 248.492C332.425 249.634 332.84 251.285 332.493 252.425L332.13 252.463C329.81 250.305 328.16 244.342 328.143 241.081C328.048 221.656 347.828 210.974 364.37 220.402C365.895 221.272 367.393 222.518 368.665 223.772C372.923 227.966 375.29 233.712 375.223 239.688C375.205 246.179 373.015 251.833 368.393 256.403C363.793 260.9 357.58 263.363 351.148 263.24C349.268 263.213 346.823 262.888 345.018 262.34C343.995 264.528 342.92 266.745 342.01 268.978C341.823 269.435 342.588 270.678 342.238 271.565C340.383 276.29 338.13 280.895 335.923 285.465C334.305 288.61 333.005 292.088 331.033 295.02C329.885 296.728 327.255 299.008 325.135 297.758C323.053 296.533 321.88 295.145 321.28 292.778L321.22 292.535C322.033 288.755 325.9 281.678 327.73 278C329.34 274.77 331.748 269.713 333.508 266.643C334.195 266.205 334.34 266.235 335.178 266.13C336.343 264.898 338.343 259.455 338.23 257.753L338.413 257.01Z" fill="black"/>
<path d="M340.698 260.873C341.353 261.058 341.533 261.06 342.033 261.535C342.453 263.268 340.51 266.498 339.585 268.023C338.74 267.585 338.415 267.535 338.05 266.725C337.868 264.568 339.395 262.525 340.698 260.873Z" fill="#FBFAFB"/>
<path d="M337.708 35.4043C338.21 35.4365 339.468 35.4913 339.628 35.9105C341.333 40.3855 339.538 45.4808 342.093 50.445C344.79 55.6898 353.593 55.5445 355.438 57.5785C355.265 58.173 355.02 58.608 354.38 58.82C351.57 59.751 346.275 60.1743 343.81 62.109C339.695 65.339 338.678 72.4096 337.835 77.2266C337.715 77.9238 337.128 78.162 336.585 78.5093C335.86 78.378 334.783 78.226 334.7 77.3355C334.298 72.8485 334.435 68.5065 332.485 64.2778C330.298 59.53 324.59 58.983 320.175 57.6753C319.355 57.432 318.988 57.1715 318.665 56.4488C319.408 54.5005 324.098 54.4838 325.928 54.104C327.083 53.8585 328.203 53.4845 329.273 52.9885C336.808 49.5345 335.65 41.0558 337.708 35.4043Z" fill="#FCC32E"/>
<path d="M337.757 47.8784C338.805 48.7659 339.485 52.3759 340.57 53.7597C342.225 55.8704 343.822 56.5782 346.207 57.4854C339.197 60.5302 339.757 61.1929 336.812 67.4672C336.285 66.8864 336.212 66.2757 335.957 65.5249C334.18 60.2887 333.565 59.2517 328.542 56.8237C333.717 54.5857 335.452 53.2444 337.757 47.8784Z" fill="#FBFAFB"/>
<path d="M74.9213 189.112C77.0903 189.9 83.5178 200.03 81.2036 201.88C79.3591 201.336 76.5236 195.131 75.3946 193.083C74.3946 197.36 74.0873 201.597 73.1666 205.779C71.5548 207.468 69.5638 208.617 67.6256 209.916C70.2348 209.294 72.8341 208.628 75.4218 207.921C76.0266 209.32 77.9423 211.226 79.0303 212.427C79.9086 213.835 81.1168 218.327 80.2183 219.737L79.7708 219.658C77.7106 217.71 76.9066 213.268 74.9591 210.066C72.7938 211.032 66.3223 213.593 64.0626 212.774C63.0781 211.675 63.3338 210.879 64.4051 209.931C66.5096 208.07 68.9648 206.398 71.2403 204.758C71.1603 200.517 72.2836 192.395 74.9213 189.112Z" fill="black"/>
<path d="M249.918 67.8977C251.152 65.4112 253.702 57.7785 255.585 56.96L256.12 56.9952C256.595 57.6005 256.68 58.3262 256.532 59.0597C255.75 62.942 254.34 64.6752 254.167 68.8247C256.795 67.9925 261 65.7495 263.212 66.8277C264.562 69.0477 256.542 71.4195 254.952 73.3717L254.535 73.2232C253.167 73.588 252.75 74.0857 251.732 75.014L248.52 72.3092C248.074 72.057 247.165 71.844 246.631 71.6962L247.34 71.092C247.347 69.1482 242.973 67.7387 242.308 64.9925C242.416 64.2755 242.41 64.158 242.749 63.4857C244.36 62.7955 248.279 66.8057 249.918 67.8977Z" fill="#FCC32E"/>
<path d="M248.52 72.3091C249.601 70.9339 251.292 68.9589 253.492 70.3889C254.267 70.8926 254.602 72.2916 254.535 73.2231C253.167 73.5879 252.75 74.0856 251.732 75.0139L248.52 72.3091Z" fill="#FBFAFB"/>
<path d="M349.557 222.317C363.67 221.416 373.092 232.153 368.722 245.875C368.275 247.281 366.245 252.952 364.07 250.99C363.7 249.315 364.615 248.387 365.575 246.866C365.912 246.212 366.365 245.201 366.587 244.504C367.832 240.652 367.482 236.462 365.62 232.868C362.942 227.785 357.94 225.241 352.055 224.735C350.092 224.566 343.17 226.75 342.292 226.485L342.197 226.058C343.43 223.72 347.195 222.766 349.557 222.317Z" fill="black"/>
<path d="M246.631 71.6958C247.165 71.8436 248.074 72.0565 248.52 72.3088L251.732 75.0135C252.75 74.0853 253.167 73.5876 254.535 73.2228L254.952 73.3713C256.347 74.6285 259.885 77.906 259.525 79.885L258.925 80.0793C256.38 79.6685 253.855 77.3333 251.61 75.7101C251.57 76.0143 251.517 76.3168 251.452 76.6168C251.067 78.452 249.082 84.2511 247.444 85.3473C246.572 85.3783 246.942 85.5093 246.286 84.9723C245.358 82.4788 248.828 77.5551 247.68 75.4361C245.223 74.8483 239.74 80.0951 237.391 78.0108L237.366 77.4281C238.407 75.5313 244.121 73.1358 246.631 71.6958Z" fill="#FCC32E"/>
<path d="M335.07 235.852L335.757 236.043C336.197 236.695 335.97 240.715 336.195 241.958C337.57 249.578 343.797 255.16 351.64 255.053C353.39 255.028 356.042 254.375 357.775 254.855L357.985 255.27C357.715 256.04 357.145 256.313 356.452 256.81C346.25 260.013 335.192 253.55 333.787 242.764C333.457 240.24 333.492 237.98 335.07 235.852Z" fill="black"/>
<path d="M83.5209 200.234C84.2821 200.163 91.1676 200.149 91.8784 200.749C92.1986 201.02 92.0836 200.991 92.1266 201.476C91.1721 203.171 86.5876 205.5 84.3989 207.297C85.4641 208.661 86.0031 209.427 86.8901 210.906C86.9419 211.931 87.0614 211.566 86.5541 212.38C83.6749 213.416 79.5411 206.983 82.8136 205.214C84.1561 204.488 85.3701 203.734 86.6331 202.875C85.3834 202.86 82.9991 203.126 82.3451 202.059C82.4886 201.196 82.9039 200.898 83.5209 200.234Z" fill="black"/>
<path d="M137.09 135.603C139.516 136.526 139.178 138.429 141.2 138.745C142.903 137.992 144.831 137.904 144.523 140.374C143.837 141.248 141.963 141.951 140.887 142.429C140.912 144.564 142.96 146.296 141.201 148.783C137.482 147.409 139.34 144.446 138.714 142.852C137.48 143.32 136.671 143.883 135.397 143.836C134.236 143.203 134.055 142.355 134.644 141.23C135.517 140.628 136.698 140.589 137.793 140.432C137.179 138.529 136.964 137.575 137.09 135.603Z" fill="black"/>
<path d="M208.738 142.049C208.994 142.031 209.25 142.023 209.506 142.025C212.717 142.05 217.543 143.724 217.536 147.951C217.535 148.527 217.112 148.757 216.688 149.013C215.744 148.813 215.755 148.613 214.971 147.93C213.383 146.685 211.305 145.373 209.175 145.614C207.683 145.783 205.808 146.389 204.703 145.197C204.537 144.234 204.512 144.627 204.868 143.718C206.19 142.55 207.088 142.351 208.738 142.049Z" fill="black"/>
<path d="M194.564 155.564L195.64 155.796C197.724 157.713 193.216 164.495 191.997 166.483C193.309 167.676 194.844 168.128 195.679 169.415C195.729 170.419 195.681 170.151 195.128 171.18C191.943 170.671 190.625 169.459 189.483 166.54C190.4 163.922 193.121 159.324 194.564 155.564Z" fill="black"/>
<path d="M295.37 190.645C297.148 190.906 299.255 193.147 300.638 194.412L295.73 197.8C293.825 198.474 291.975 195.867 291.015 194.546C292.243 193.684 294.213 191.73 295.37 190.645Z" fill="black"/>
<path d="M91.21 168.665C94.37 168.794 99.7828 173.291 100.183 176.741C100.252 177.334 99.4903 177.879 99.0805 178.255C97.7768 178.124 96.9643 176.609 96.1278 175.637C94.219 173.418 92.4443 172.419 89.9268 171.075C90.3695 170.316 90.7993 169.45 91.21 168.665Z" fill="black"/>
<path d="M276.335 95.7857C278.688 95.7014 284.393 95.4512 286.01 97.2769L285.953 97.8212C285.18 98.5577 284.503 98.6649 283.478 98.9887C281.5 99.3057 273.868 99.1827 273.075 97.2779C273.775 96.2767 275.178 96.0542 276.335 95.7857Z" fill="black"/>
<path d="M308.988 77.4451C309.083 77.4458 309.46 77.4378 309.585 77.4738C314.688 78.9566 309.56 83.2723 307.538 84.5851C306.303 84.4953 305.235 83.1538 304.373 82.2673C305.515 80.1538 307.02 78.7456 308.988 77.4451Z" fill="black"/>
<path d="M265.543 102.157C266.538 102.391 266.97 102.677 267.54 103.464C267.938 105.208 265.8 109.1 265.005 111C263.543 111.084 262.39 111.241 262.148 109.53C261.78 106.927 263.653 103.706 265.543 102.157Z" fill="black"/>
<path d="M264.752 128.482L264.94 128.477C269.05 128.396 267.212 132.477 268.687 134.381C270.632 136.891 271.712 137.513 268.755 140.065C267.475 140.128 266.44 139.941 265.7 138.817C265.285 137.049 266.502 135.444 267.367 133.827C266.415 132.269 265.505 130.163 264.752 128.482Z" fill="black"/>
<path d="M47.3928 158.225C50.4986 158.899 55.7801 161.728 51.0753 164.679C47.8573 163.868 43.1793 161.557 47.3928 158.225Z" fill="black"/>
<path d="M58.0014 166.656C59.9201 166.995 66.3516 170.364 67.6729 171.929C67.8154 172.682 67.8814 172.338 67.4474 172.99C63.9464 173.707 57.2281 170.826 58.0014 166.656Z" fill="black"/>
<path d="M325.61 203.768C327.743 203.777 330.713 204.244 330.628 206.895C330.173 207.867 329.595 208.201 328.755 208.878C325.008 210.967 322.24 206.39 325.61 203.768Z" fill="black"/>
<path d="M83.5298 167.798C84.2218 167.96 84.2153 168.043 84.688 168.561C85.2873 171.67 79.0118 172.519 76.6448 173.078C75.5795 172.888 75.7728 173.096 75.2603 172.442L75.3705 171.873C76.9385 169.866 81.0215 168.268 83.5298 167.798Z" fill="black"/>
<path d="M298.102 88.8804C298.9 89.0161 298.86 88.9946 299.47 89.5196C300.307 91.9049 295.21 95.5216 293.415 96.5296C292.795 95.7696 291.997 94.9534 291.32 94.2261C293.7 92.4316 295.825 90.7999 298.102 88.8804Z" fill="black"/>
<path d="M309 194.456C311.978 194.145 317.84 197.461 317.578 200.885C314.493 200.798 311.168 197.918 308.893 195.921C308.625 195.14 308.695 195.409 309 194.456Z" fill="black"/>
<path d="M185.316 151.935C189.206 152.128 188.501 156.653 186.182 158.895C182.482 158.516 182.742 154.166 185.316 151.935Z" fill="black"/>
<path d="M205.473 173.442C206.092 173.491 206.489 173.806 206.942 174.213C207.314 176.907 201.482 179.11 199.302 179.331C198.516 179.012 198.215 178.888 197.994 178.083C198.66 176.714 202.862 175.701 205.243 173.643L205.473 173.442Z" fill="black"/>
<path d="M99.7299 192.164C101.992 192.288 103.924 194.098 103.275 196.465C102.803 197.212 102.181 197.296 101.31 197.6C100.072 198.032 99.8109 198.018 98.7746 197.355C97.6406 195.629 98.1154 193.415 99.7299 192.164Z" fill="black"/>
<path d="M208.021 153.145C212.11 153.441 211.05 157.783 208.954 159.978C207.886 160.128 207.214 159.243 206.498 158.56C206.427 156.088 206.141 154.981 208.021 153.145Z" fill="black"/>
<path d="M231.967 160.284C233.386 160.127 235.061 159.852 235.758 161.378L235.446 161.941C234.598 162.515 233.632 162.464 232.571 162.55C231.772 163.283 231.475 163.618 230.798 164.468C230.099 165.43 229.766 166.117 228.522 166.187C227.156 164.358 230.385 161.262 231.967 160.284Z" fill="black"/>
<path d="M262.76 118.456C263.34 118.474 264.195 118.495 264.69 118.818C266.13 119.761 266.735 122.994 265.708 124.315C264.895 124.543 264.68 124.564 263.833 124.637C261.838 123.562 262.265 120.342 262.76 118.456Z" fill="black"/>
<path d="M188.304 175.149C189.708 175.179 194.191 176.806 195.262 177.901C195.474 178.751 195.476 178.32 195.122 179.229C192.634 179.826 187.28 178.663 188.304 175.149Z" fill="black"/>
<path d="M99.4681 183.333C103.214 183.46 101.704 188.473 100.665 190.594C99.8086 191.053 99.9783 191.152 99.3043 190.956C98.4466 189.392 99.0583 185.063 99.4681 183.333Z" fill="black"/>
<path d="M132.311 130.131C134.957 130.387 135.109 131.767 135.774 134.052C132.669 133.619 132.373 133.238 132.311 130.131Z" fill="black"/>
<path d="M334.665 255.848C336.228 256.223 336.928 256.418 338.413 257.01L338.23 257.753C337.358 257.385 335.568 256.343 334.665 255.848Z" fill="#222025"/>
</g>
<defs>
<clipPath id="clip0_442_960">
<rect width="400" height="400" fill="white"/>
</clipPath>
</defs>
</svg>
