<svg width="400" height="400" viewBox="0 0 400 400" fill="none" xmlns="http://www.w3.org/2000/svg">
<g clip-path="url(#clip0_442_861)">
<path d="M0 0H400V67.0645V71.1247V75.095V78.9585V94.666V100.511V104.851V118.98V127.868V130.629V136.608V140.208V145.917V148.56V151.204V154.057V156.008V158.884V207.422V216.367V218.363V220.673V237.043V239.922V247.225V252.342V265.34V268.027V273.8V278.285V400H0V360.33V357.72V320.535V318.022V255.56V251.807V220.251V217.621V210.596V207.027V0Z" fill="white"/>
<path d="M115.28 212.411C113.887 210.394 112.451 207.839 111.634 205.55C109.67 200.044 111.177 194.272 114.675 189.754C117.379 186.262 119.94 184.435 121.074 179.959C121.972 176.418 121.781 173.961 121.876 170.31C122.041 163.915 123.375 157.708 126.127 151.916C130.503 142.705 138.373 135.431 148.009 132.054C153.953 129.971 157.573 130.231 163.628 130.41C164.828 130.446 168.023 129.43 169.47 129.295C175.68 128.715 180.813 129.853 186.356 132.482C191.881 135.104 193.584 137.738 197.597 141.407C205.151 148.312 209.188 156.607 210.977 166.629C212.217 173.578 212.366 180.472 216.804 186.588C220.049 191.059 223.455 191.918 227.988 194.555C235.183 198.74 240.873 204.771 243.566 212.729C246.267 220.71 244.912 228.47 241.237 235.837C243.15 237.183 244.058 238.251 245.198 240.245L245.278 240.398C245.643 241.111 245.721 241.388 245.935 242.158C246.042 242.228 246.326 242.433 246.43 242.457C247.428 241.794 247.073 241.839 248.145 241.767C251.433 243.119 262.235 252.893 265.078 255.675C265.918 254.22 266.85 251.868 268.753 252.018C271.38 251.77 271.27 244.74 271.285 242.847C271.62 238.972 273.78 230.715 276.038 227.722L276.2 227.496C276.678 227.707 277.635 227.998 278.018 227.552C280.51 224.653 281.258 219.32 281.815 215.705C282.905 218.844 283.085 220.488 286.563 222.348C291.745 225.122 299.033 227.506 304.833 226.027C305.323 226.497 305.873 226.114 306.438 225.922C307.725 225.014 308.48 224.555 309.865 223.8C314.833 220.167 313.328 228.321 312.775 230.512C312.368 232.072 311.813 233.589 311.115 235.042C311.538 235.909 312.548 235.971 312.5 236.654C311.803 246.943 311.285 264.44 306.87 273.743C320.878 274.733 334.998 276.4 348.895 278.27C351.348 278.6 353.368 282.028 352.853 284.393C351.42 290.995 349.093 297.993 347.045 304.445C344.905 311.178 343.045 318.9 340.34 325.29C340.975 328.52 341.328 332.165 341.923 335.288C343.713 344.673 341.813 344.43 333.9 348.193C331.785 351.983 325.22 355.858 321.133 357.115C323.783 354.225 326.58 352.175 329.595 349.715C330.485 348.99 331.185 348.178 331.233 346.998L330.965 346.575C330.545 346.63 330.573 346.538 330.333 346.84C327.065 350.983 310.578 358.513 308.96 362.213L309.145 362.58C310.753 362.263 312.895 360.405 315.278 360.373L315.485 360.603C314.305 362.645 310.828 365.383 308.54 366.08C305.698 366.948 285.425 364.018 281.325 363.543L251.59 360.255C245.714 359.588 239.349 358.623 233.527 358.243C227.921 357.875 220.761 358.493 215.057 358.863C210.937 359.133 205.545 359.355 201.527 359.85C198.982 362.395 196.046 362.445 192.684 362.578C189.855 362.688 185.703 361.265 183.356 361.6C178.48 362.3 173.173 363.348 168.31 364.263C156.849 366.45 145.413 368.76 134.002 371.195C128.097 372.478 119.096 374.818 113.323 375.588C108.101 372.033 64.3924 341.783 63.5669 339.775C63.7544 337.728 66.0351 338.248 67.4299 337.5C68.2869 337.04 68.8469 336.035 69.8686 335.833C70.7364 336.705 70.1946 337.878 69.9294 339.013C76.6481 343.465 82.3676 349.068 88.9639 353.478C97.5164 359.195 106.155 366.335 114.931 371.54C132.374 367.1 149.965 363.26 167.671 360.023C172.492 359.178 182.654 356.98 187.153 357.873L188.303 359.605C191.471 359.538 194.912 359.56 197.987 358.825L199.087 356.68C205.997 354.893 212.081 354.643 219.142 354.153C234.039 353.12 248.891 353.685 263.81 353.198C263.203 352.105 262.378 350.718 261.888 349.6C256.778 349.068 252.218 347.308 247.424 345.9C232.764 341.6 215.952 342.29 202.635 350.24C201.266 351.058 196.511 354.448 195.362 354.295C194.062 352.41 202.377 347.165 204.069 346.265C218.885 338.39 236.479 340.085 252.128 344.278C255.39 345.153 258.93 345.638 262.243 346.533C259.83 344.258 249.068 337.358 245.563 335.03C240.818 331.91 236.049 328.828 231.255 325.785C223.208 320.648 223.825 320.613 214.395 319.275C194.866 316.505 174.586 314.42 156.217 323.223C167.609 332.14 179.295 340.695 190.191 350.228C191.417 351.3 193.166 352.893 193.549 354.52C193.448 354.74 193.384 355.103 193.105 355.093C187.324 354.843 181.674 352.098 175.969 351.03C159.236 347.898 143.442 353.595 128.487 360.655C124.709 362.44 119.349 365.303 115.399 366.328C112.083 365.153 108.478 362.235 105.533 360.26C97.7169 355.023 90.3226 349.338 82.9464 343.51C79.1201 340.488 74.8124 337.86 70.9906 334.81C69.6739 333.793 67.9421 332.805 68.3624 331.063C69.2956 330.183 69.9594 330.098 70.1289 329.278C69.2836 327.4 67.9299 325.95 67.2651 324.513C64.5974 318.745 65.4131 312.025 67.6889 306.285C68.9206 303.18 70.8694 298.198 73.7681 296.523C74.1769 296.503 74.3496 296.475 74.7559 296.52L75.0996 296.58C75.7801 296.015 75.9176 294.68 76.0224 293.81C75.8806 293.295 75.7984 292.813 75.8286 292.275C76.0089 289.078 86.9049 273 89.6149 270.565C89.0981 269.695 86.3749 263.828 86.4914 262.893C86.6094 261.93 87.1426 261.065 87.9511 260.53C90.9021 258.533 93.2774 260.255 94.9346 262.703C96.7236 259.105 99.9394 255.338 102.85 252.583C94.0341 243.257 98.3121 227.745 107.111 220.018C109.751 217.7 113.23 215.659 115.094 212.707L115.28 212.411Z" fill="#010102"/>
<path d="M281.815 215.705C282.905 218.844 283.085 220.487 286.563 222.348C291.745 225.122 299.033 227.505 304.833 226.026C305.323 226.496 305.873 226.114 306.438 225.922C307.725 225.013 308.48 224.555 309.865 223.799L310.475 224.712C309.72 234.184 309.913 243.049 308.635 252.42C308.123 256.185 307.665 259.692 306.975 263.442C306.365 266.76 305.335 270.807 305.14 274.092C301.335 272.922 296.093 272.562 292.038 272.102C288.828 271.737 280.595 270.135 278.293 272.23C277.478 268.55 270.188 271.147 267.955 272.275C266.518 275.352 264.99 278.367 264.343 281.715L264.438 281.932C263.913 282.41 263.543 282.955 263.328 283.627C261.175 290.315 259.115 297.08 256.898 303.747C255.085 302.592 252.785 301.532 250.798 300.607C243.995 297.435 237.914 293.162 231.803 288.855C230.302 287.797 228.126 286.087 226.584 285.215C226.022 281.3 224.875 266.675 223.329 264.215L222.832 263.947C221.352 264.882 221.746 267.367 221.971 268.945C224.063 283.667 225.262 298.387 226.665 313.18C226.902 315.685 227.14 318.55 227.575 320.997C222.625 316.99 219.606 317.51 213.567 316.555C195.709 313.725 170.217 311.54 154.125 321.907C145.862 316.82 142.347 315.222 132.627 314.915C133.58 311.937 134.497 307.017 131.009 305.18L131.154 304.652C130.439 302.535 127.736 299.05 125.296 299.265C125.158 295.177 124.305 290.235 123.365 286.217C122.814 283.862 122.845 271.287 122.019 270.505C121.121 270.465 121.476 270.32 120.864 270.777C120.233 275.007 122.462 291.685 122.933 297.102C121.33 296.625 119.803 296.227 118.18 295.817C117.038 294.515 115.147 291.695 114.143 290.182C109.294 282.882 104.903 275.202 100.209 267.787C99.6134 266.845 97.3711 264.202 97.1934 263.682C98.1616 261.992 99.9171 260.102 101.1 258.502C106.069 251.785 116.715 240.931 124.234 237.347C127.969 235.567 139.886 232.2 144.502 230.694C144.292 236.021 145.795 239.543 149.35 243.705C163.917 260.76 195.501 253.155 196.636 229.522C196.705 228.087 196.828 227.068 195.82 225.954C195.235 225.61 192.736 225.73 191.455 225.548C194.899 225.684 196.384 225.07 199.485 224.91C205.506 224.6 212.924 224.7 218.809 226.024C221.723 226.68 225.528 228.112 228.045 229.479C231.166 231.173 242.168 239.751 245.198 240.245L245.278 240.398C245.643 241.111 245.721 241.388 245.935 242.158C246.042 242.228 246.326 242.433 246.43 242.457C247.428 241.794 247.073 241.839 248.145 241.767C251.433 243.118 262.235 252.892 265.078 255.675C265.918 254.22 266.85 251.867 268.753 252.017C271.38 251.77 271.27 244.74 271.285 242.847C271.62 238.972 273.78 230.715 276.038 227.722L276.2 227.496C276.678 227.707 277.635 227.997 278.018 227.552C280.51 224.652 281.258 219.32 281.815 215.705Z" fill="#3674EC"/>
<path d="M246.43 242.457C247.428 241.794 247.073 241.839 248.145 241.767C251.433 243.118 262.235 252.892 265.078 255.675C265.918 254.22 266.85 251.867 268.753 252.017C267.95 256.235 262.863 266.895 260.498 270.59C260.53 268.63 260.613 266.67 260.745 264.712C258.97 267.697 257.89 271.272 257.095 274.647C256.913 275.42 256.778 276.642 256.193 277.157C255.343 277.267 255.658 277.272 254.793 276.872C251.96 272.747 261.24 261.167 264.038 257.987C259.705 253.09 251.253 248.044 246.43 242.457Z" fill="#010102"/>
<path d="M276.038 227.722C276.29 227.832 277.01 228.035 277.015 228.341C277.055 231.079 273.383 242.554 271.675 244.145L271.285 242.847C271.62 238.972 273.78 230.715 276.038 227.722Z" fill="#010102"/>
<path d="M309.865 223.799L310.475 224.712C309.265 225.25 307.727 226.112 306.438 225.922C307.725 225.013 308.48 224.555 309.865 223.799Z" fill="#010102"/>
<path d="M281.635 227.691C283.83 228.015 288.087 231.718 291.055 232.819C295.155 234.342 298.182 234.203 302.512 234.494C302.782 234.988 302.662 235.886 302.652 236.542C302.412 236.555 302.172 236.566 301.932 236.577C296.71 236.801 281.795 234.575 281.635 227.691Z" fill="#010102"/>
<path d="M153.19 170.356C162.808 166.005 171.946 155.454 172.807 144.788C172.91 143.514 172.35 142.46 172.371 141.186C173.377 141.216 174.345 143.195 174.985 143.173C183.869 142.562 193 150.816 196.28 158.554C197.935 162.458 199.181 170.896 200.342 175.431C203.048 186.01 202.433 199.105 194.654 207.469C189.448 213.067 180.892 214.612 173.6 212.809C172.229 212.482 168.168 211.109 167.069 211.145L166.811 211.524C166.989 212.252 167.045 212.551 167.744 213.051C172.408 216.395 178.107 218.159 183.68 217.767C183.82 218.801 184.111 220.329 184.174 221.31C184.53 226.86 186.979 225.209 191.455 225.548C192.736 225.73 195.235 225.611 195.82 225.954C194.632 227.29 194.511 230.946 193.889 233.186C193.425 234.804 192.79 236.368 191.993 237.851C189.532 242.465 184.656 247.749 179.472 249.213C168.456 252.323 156.119 249.677 149.381 239.853C147.633 237.303 146.796 234.017 145.933 231.08C147.119 230.626 153.97 228.411 154.222 227.683C155.959 221.767 154.183 214.66 154.004 208.556C153.934 206.17 153.144 205.247 154.464 203.149C154.436 201.43 151.985 197.783 151.024 196.175C149.921 196.723 148.216 197.504 147.034 197.749C144.11 198.339 141.072 197.724 138.608 196.042C135.833 194.177 133.898 191.071 133.214 187.809C132.327 183.576 134.36 178.074 139.149 177.388C142.682 176.881 145.823 179.299 148.445 181.35C153.289 178.923 152.982 175.114 153.19 170.356Z" fill="white"/>
<path d="M181.885 172.329C183.905 172.592 184.002 174.921 185.15 176.329C188.161 180.02 194.961 186.676 185.863 188.745C184.721 188.58 184.297 188.636 183.638 187.804C183.962 186.363 186.699 185.328 188.036 183.998C185.703 181.779 179.552 175.856 181.885 172.329Z" fill="#010102"/>
<path d="M189.57 192.413C190.484 192.582 190.681 192.937 190.888 193.766C190.002 198.136 183.003 199.756 179.312 198.626C177.09 197.946 176.315 197.51 174.397 196.176C173.544 195.469 172.503 194.478 173.234 193.308C177.376 192.412 181.414 201.756 189.57 192.413Z" fill="#010102"/>
<path d="M191.001 168.873C194.565 169.4 195.237 173.824 192.4 176.114L191.631 176.055C189.103 174.655 188.593 170.672 191.001 168.873Z" fill="#010102"/>
<path d="M168.511 172.609C171.645 172.997 173.547 177.237 170.804 179.556C167.393 180.094 166.23 175.236 168.511 172.609Z" fill="#010102"/>
<path d="M140.565 183.271C143.564 183.531 145.849 185.606 146.878 188.486C147.035 188.925 146.898 188.914 146.648 189.275C145.945 189.44 145.817 189.344 145.143 189.114C143.993 187.59 143.2 186.422 141.582 185.398C140.315 185.498 138.735 185.922 137.994 184.755C138.597 183.735 139.397 183.599 140.565 183.271Z" fill="#010102"/>
<path d="M267.955 272.275C270.188 271.148 277.478 268.55 278.293 272.23C278.58 272.74 278.493 272.89 279.098 272.963C289.39 274.22 300.183 275.285 310.47 276.478L311.013 277.528L310.895 277.87C310.168 277.88 309.085 277.765 308.568 278.18C301.788 278.638 298.618 278.79 291.785 278.183C286.538 277.715 278.59 276.395 273.55 276.305C270.1 279.508 269.44 284.085 268.125 288.518L263.72 303.278C262.415 307.59 261.088 311.895 259.733 316.193C258.435 320.295 256.453 325.658 256.238 329.845C276.533 331.565 297.168 334.935 317.453 337.13C320.08 337.413 326.253 338.555 328.598 337.75C330.115 335.05 331.648 328.413 332.583 325.158L337.813 307.383C339.48 301.62 341.605 295.993 343.04 290.175C343.468 288.443 344.678 284.955 343.215 283.76L343.45 283.413C344.075 283.005 344.873 283.158 345.653 283.193C346.753 283.265 346.758 283.085 347.505 283.625C347.825 285.433 332.73 337.883 331.323 342.968C328.5 342.22 324.373 341.868 321.375 341.5C315.443 340.768 309.505 340.083 303.56 339.445L251.353 333.35C251.705 330.075 253.378 325.848 254.238 322.568C257.613 309.7 262.315 297.205 265.053 284.168C265.298 283.005 265.07 282.778 264.438 281.933L264.343 281.715C264.99 278.368 266.518 275.353 267.955 272.275Z" fill="white"/>
<path d="M76.0224 293.81C78.5644 292.487 80.599 287.382 82.247 285.005C85.0197 281.005 87.6012 276.687 90.524 272.797C94.969 279.57 99.2432 285.185 103.543 292.285C101.868 292.35 99.828 292.345 98.3152 293.022C96.7785 293.71 95.596 295.252 93.884 295.54C93.0795 295.675 91.6762 295.567 90.866 295.472C88.2822 295.127 85.9315 295.605 83.5457 296.59C82.653 296.96 81.6692 297.23 81.0215 298.02C80.5147 298.635 80.4912 299.18 80.6982 299.9C81.3642 300.187 81.9507 299.895 82.8062 299.667C86.512 298.687 89.4195 298.205 93.2895 298.367C91.0277 300.167 89.775 301.88 87.7792 303.63C80.812 309.74 77.9257 317.972 82.5075 326.877C79.1672 327.535 76.3257 328.12 73.0475 329.002C69.9117 323.22 67.9554 320.06 68.8834 313.202C69.7374 306.89 72.7695 302.392 74.756 296.52L75.0997 296.58C75.7802 296.015 75.9177 294.68 76.0224 293.81Z" fill="#3674EC"/>
<path d="M119.318 298.788C121.506 299.288 123.086 299.82 125.296 299.265C127.736 299.05 130.439 302.535 131.154 304.653L131.009 305.18C130.863 305.803 130.923 308.14 130.907 308.98C130.865 311.128 130.702 312.608 130.351 314.725C126.552 309.498 122.873 304.185 119.318 298.788Z" fill="white"/>
<path d="M325.007 278.032C326.725 277.97 331.03 278.355 332.505 279.082C331.807 279.99 321.582 279.217 320.132 278.777C321.52 278.757 324.402 279.2 325.007 278.032Z" fill="#515153"/>
<path d="M343.215 283.76C342.883 283.79 333.96 283.272 334.155 283.35C335.195 282.627 336.522 283.525 337.367 282.3C336.76 282.007 336.39 281.807 335.81 281.467L335.763 280.942C336.455 281.157 336.983 281.512 337.888 281.78C340.393 282.52 343.213 282.66 345.653 283.192C344.873 283.157 344.075 283.005 343.45 283.412L343.215 283.76Z" fill="#515153"/>
<path d="M310.47 276.478C312.815 276.655 314.992 276.978 317.315 277.31L317.362 277.998C316.725 278.353 316.16 278.27 315.415 278.273L308.567 278.18C309.085 277.765 310.167 277.88 310.895 277.87L311.012 277.528L310.47 276.478Z" fill="#B2D3F3"/>
<path d="M317.315 277.31C319.233 277.318 322.973 277.815 325.008 278.033C324.403 279.2 321.52 278.758 320.133 278.778C318.75 278.76 316.783 278.495 315.415 278.273C316.16 278.27 316.725 278.353 317.363 277.998L317.315 277.31Z" fill="#868B90"/>
<path d="M273.82 278.627C275.13 279.052 279.922 279.475 281.49 279.647L298.242 281.435C311.905 282.885 327.822 285.162 341.267 286.087C336.532 302.415 331.355 318.897 326.753 335.197L326.605 335.345C325.468 335.737 265.552 328.13 259.562 327.462C262.075 320.435 264.205 311.407 266.42 304.122C268.788 296.327 272.128 286.52 273.82 278.627Z" fill="white"/>
<path d="M296.795 295.088C304.523 294.313 312.395 301.39 309.835 309.38C308.563 313.35 304.873 315.345 301.42 317.035C300.225 317.523 298.978 317.883 297.705 318.108C281.568 320.878 290.843 302.938 294.388 295.758C294.638 295.253 296.228 295.158 296.795 295.088Z" fill="#3674EC"/>
<path d="M296.757 300.1C297.242 300.428 299.98 303.42 300.595 304.053C302.237 305.735 303.435 306.8 305.27 308.285C303.185 308.92 301.132 309.865 299.125 310.73L293.107 313.343C294.372 309.363 295.885 304.165 296.757 300.1Z" fill="white"/>
<path d="M131.531 316.988C143.342 316.823 153.74 323.91 162.249 331.258C166.801 335.19 172.028 338.615 176.63 342.49C180.017 345.343 183.175 348.418 186.612 351.248C169.727 345.133 154.414 346.82 137.941 353.605C130.219 356.785 122.822 360.78 115.118 363.958C113.713 363.008 112.264 361.938 110.873 360.95C103.667 356.193 95.1941 349.538 88.2846 344.198C82.8326 339.985 77.4648 336.535 72.0381 332.568L72.0708 332.18C74.1218 331.058 81.5706 329.733 84.2088 329.23C84.9908 329.083 86.0541 330.145 86.7921 330.793C91.3281 334.783 100.594 338.635 106.606 336.71C107.829 336.333 109.99 333.735 111.16 333.765C116.134 333.89 117.222 334.388 120.517 329.755C123.429 329.575 124.198 329.003 126.232 326.995C127.502 329.15 133.868 335.503 136.343 335.083C138.621 331.483 131.434 321.535 131.523 317.325L131.531 316.988Z" fill="white"/>
<path d="M101.915 294.57C108.06 294.508 118.585 304.458 122.623 308.963C123.754 310.225 129.386 317.358 128.759 318.923C126.863 323.66 120.893 317.61 119.078 315.773C116.683 313.46 106.817 304.605 103.862 306.535C104.093 308.51 113.584 314.57 115.607 316.495C118.463 319.218 121.538 321.35 123.847 324.77C123.402 325.358 122.735 326.455 122.072 326.688C119.275 327.678 113.705 323.99 110.527 322.633C109.83 322.243 109.299 321.803 108.562 322.093C109.067 323.713 116.913 328.858 117.13 330.073C116.286 331.215 115.299 330.915 114.533 331.153C109.414 332.743 98.0759 323.4 95.1444 324.18C94.2859 327.68 106.099 331.328 107.136 333.528C102.072 336.18 94.6222 332.91 90.1859 330.29C88.9072 329.535 86.2174 326.955 86.1762 325.39C85.9804 317.935 89.1399 310.81 91.3784 303.843C91.6259 303.073 94.4239 301.075 94.9849 300.238C97.5637 296.38 97.1184 295.31 101.915 294.57Z" fill="white"/>
<path d="M98.9484 314.88C101.421 315.15 104.972 317.645 105.167 320.312C103.511 320.097 100.864 318.562 99.7304 317.295C98.8831 316.347 98.8924 316.16 98.9484 314.88Z" fill="#010102"/>
<path d="M227.211 288.723C236.544 295.878 245.476 301.555 256.298 306.208L249.974 327.123C249.349 329.398 248.816 331.83 248.272 334.135C246.012 332.055 233.004 323.66 230.047 322.253C229.809 311.205 227.37 300.21 227.211 288.723Z" fill="white"/>
<path d="M252.362 336.098L303.485 342.095L318.285 343.818C321.52 344.21 325.567 344.855 328.752 344.848C321.192 351.218 315.672 354.27 307.575 359.558C301.617 359.168 294.625 358.153 288.497 357.625C286.502 357.41 283.497 357.385 282.085 357.195C281.955 356.735 282.732 353.99 282.895 352.97C287.17 353.54 304.56 355.958 307.57 354.973C310.622 353.975 317.992 348.813 321.167 346.73C316.482 344.97 302.375 344.328 296.61 343.575C287.495 342.475 278.365 341.325 269.257 340.168C265.877 339.738 253.442 339.795 252.362 336.098Z" fill="white"/>
<path d="M258.933 341.652L297.545 345.96C303.3 346.622 308.328 347.847 314.128 348.042C313.448 348.465 311.245 349.85 310.605 349.892C307.988 350.065 304.26 349.067 301.665 349.005C297.203 348.902 292.918 348.717 288.495 348.472L289.318 349.347C293.655 349.902 297.935 350.532 302.258 351.177C304.048 351.445 306.72 351.177 308.348 351.86L308.385 352.222C306.115 353.882 298.165 352.442 295.155 352.087C289.6 351.41 284.043 350.77 278.478 350.17C274.385 349.755 269.153 350.007 265.823 349.532C265.578 348.962 266.1 347.557 266.205 346.537C265.758 345.327 260.47 342.587 258.933 341.652Z" fill="white"/>
<path d="M289.317 349.348C288.232 349.228 286.322 349.063 285.482 348.378C286.305 348.093 287.57 348.36 288.495 348.473L289.317 349.348Z" fill="#010102"/>
<path d="M93.0904 271.965C92.5704 271.348 92.5902 271.385 92.3579 270.61C92.5962 268.77 94.2517 267.645 95.6519 266.365C96.5472 267.355 97.1399 267.945 97.5869 269.213C100.544 272.435 102.624 276.445 105.006 280.12C109.379 286.865 113.463 294.145 117.961 300.768C116.232 299.423 114.348 297.928 112.583 296.693C111.598 296.005 107.919 293.67 107.412 293.103C105.126 290.538 94.3042 274.44 93.7557 272.435L93.0904 271.965Z" fill="white"/>
<path d="M93.0904 271.965C92.5704 271.348 92.5902 271.385 92.3579 270.61C92.5962 268.77 94.2517 267.645 95.6519 266.365C96.5472 267.355 97.1399 267.945 97.5869 269.213L96.7054 269.813C95.8207 270.66 94.7362 271.765 93.7557 272.435L93.0904 271.965Z" fill="#B2D3F3"/>
<path d="M93.0903 271.965C94.0421 270.987 95.3278 269.307 96.7053 269.812C95.8206 270.66 94.7361 271.765 93.7556 272.435L93.0903 271.965Z" fill="#010102"/>
<path d="M251.297 357.558C254.167 357.51 257.235 357.405 260.085 357.533C269.862 357.473 279.752 358.97 289.465 360.228C292.175 360.578 305.267 361.495 306.457 362.368L306.497 362.863C305.345 364.003 296.875 362.478 295.015 362.345C282.165 361.423 268.61 358.73 255.825 358.198C254.957 358.355 252.25 357.748 251.297 357.558Z" fill="white"/>
<path d="M251.297 357.558C254.167 357.51 257.235 357.405 260.085 357.533C259.047 357.628 256.34 357.648 255.825 358.198C254.957 358.355 252.25 357.748 251.297 357.558Z" fill="#515153"/>
<path d="M137.031 199.57C137.595 199.743 138.048 200.111 138.03 200.747C137.793 209.102 135.156 216.361 129.608 222.684C128.097 224.568 126.857 226.532 125.726 228.634C124.78 230.393 125.046 234.892 124.263 235.914C118.461 232.372 132.553 217.307 134.076 212.789C135.669 208.063 135.776 204.467 136.947 199.892L137.031 199.57Z" fill="white"/>
<path d="M205.983 195.603C207.055 196.037 208.215 198.805 208.559 199.935C211.437 209.384 222.749 213.27 220.76 224.42L220.001 224.491C219.869 224.378 219.737 224.265 219.605 224.151C219.421 221.497 219.048 218.454 217.952 216.031C217.046 214.028 215.118 211.886 213.607 210.28C209.871 206.306 206.957 201.009 205.983 195.603Z" fill="white"/>
<path d="M162.86 153.192C163.653 154.018 163.12 155.923 162.613 156.775C159.203 162.506 153.127 168.929 146.828 171.18L146.536 170.728C147.092 169.089 150.638 167.601 152.101 166.428C153.144 165.592 153.888 164.94 154.844 164.015C157.167 161.787 159.195 159.272 160.879 156.529C161.561 155.426 162.046 154.21 162.86 153.192Z" fill="white"/>
<path d="M271.303 351.877C273.378 352.18 281.118 352.632 281.898 353.54C281.605 357.445 274.23 355.942 271.695 355.3C271.1 353.945 271.078 353.202 269.598 352.68C270.308 352.082 270.373 352.095 271.303 351.877Z" fill="white"/>
<path d="M87.2428 307.467C87.3213 307.55 87.5001 307.89 87.5658 308.007C87.2888 309.32 86.1483 311.402 85.6246 312.98C84.9141 315.125 84.4453 321.075 83.1736 322.245C80.9583 317.287 83.1248 310.82 87.2428 307.467Z" fill="white"/>
<path d="M129.449 322.568C129.75 322.39 129.58 322.455 130.063 322.568C131.223 324.098 133.411 327.863 132.655 329.775C131.964 329.94 132.161 329.87 131.339 329.458C130.383 328.6 126.886 324.613 126.372 323.52L126.801 323.18C128.029 323.11 128.333 322.97 129.449 322.568Z" fill="#B2D3F3"/>
<path d="M89.506 262.123C91.9662 262.525 94.2042 263.855 92.35 266.445C91.4585 267.108 91.7465 267.108 90.853 267.088C89.4282 266.07 89.3655 263.73 89.506 262.123Z" fill="#3674EC"/>
<path d="M269.598 352.68C268.345 352.463 267.968 352.385 266.748 351.94L266.92 351.963L266.438 351.403L266.395 351.743L266.08 351.543L266.15 351.39C267.645 351.21 269.763 351.64 271.303 351.878C270.373 352.095 270.308 352.083 269.598 352.68Z" fill="#B2D3F3"/>
<path d="M245.145 167.921C245.956 163.932 247.6 158.879 248.676 154.821C251.583 143.857 254.983 132.984 258.098 122.08C260.11 115.029 261.77 107.817 263.825 100.765C264.85 97.2488 265.685 93.4751 267.13 90.1206C268.798 88.8638 271.065 90.3888 272.043 91.5991C272.635 92.3318 275.153 93.6406 276.1 94.1541L298.425 106.015C302.853 108.361 311.66 112.157 314.68 115.473C312.993 124.512 309.303 134.291 307.108 143.33C306.58 145.51 302.028 156.035 303.68 157.778C308.163 161.997 308.18 154.543 309.135 152.592C311.84 147.063 316.473 123.031 319.198 120.334L319.585 120.413C320.973 123.113 319.223 127.992 318.38 130.663C316.29 137.301 314.78 144.185 312.648 150.797C315.075 153.22 316.323 160.28 316.995 163.891C317.618 167.24 319.268 174.1 319.08 177.233C318.473 187.311 311.905 197.496 308.753 206.915C308.083 208.922 307.66 211.003 307.495 213.112C307.373 214.691 307.833 219.308 305.258 218.557C304.053 216.875 304.528 210.272 305.235 208.287C308.303 199.678 314.785 187.987 316.123 179.118C316.973 173.482 313.395 159.138 311.808 153.588C310.34 157.002 310.13 159.12 309.518 162.763C310.103 163.691 311.118 164.695 311.04 165.615C310.585 165.695 310.02 165.723 309.658 165.363C305.775 161.496 293.523 152.987 288.045 155.5C287.085 156.965 289.89 158.84 291.073 159.075C294.603 159.775 307.748 168.715 308.268 172.113L307.965 172.421C305.395 172.558 303.455 169.998 301.458 168.413C297.653 165.394 293.533 162.686 288.803 161.353C287.273 160.921 282.803 159.757 282.55 162.207C284.448 164.312 289.363 165.67 291.853 167.275C294.353 168.885 301.628 173.453 301.85 176.711L301.613 176.979C300.213 176.887 296.84 173.616 295.625 172.601C293.1 170.492 284.453 165.206 281.103 166.791C279.633 168.844 283.57 170.404 285.025 171.285C288.253 173.241 295.788 177.261 296.62 181.094L296.4 181.393C294.065 181.614 291.19 178.38 289.388 177.047C288.025 176.049 286.593 175.153 285.1 174.364C284.013 173.793 281.01 172.274 280.518 174.028C281.278 176.94 288.9 182.394 290.508 185.674C291.373 187.437 288.4 192.393 287.725 194.386C285.573 200.747 286.258 203.773 288.83 209.5C288.19 212.035 287.353 216.938 286.38 219.075C291.943 221.924 294.403 223.531 301.07 224.454C302.463 224.647 303.915 224.902 304.833 226.027C299.033 227.506 291.745 225.122 286.563 222.348C283.085 220.488 282.905 218.844 281.815 215.705C281.258 219.32 280.51 224.653 278.018 227.552C277.635 227.998 276.678 227.707 276.2 227.496C276.758 224.556 278.175 217.852 280.468 216.116C281.933 215.006 282.893 215.249 284.54 215.44C285.088 213.513 285.228 211.594 285.858 209.693C283.148 202.45 283.373 198.037 286.333 190.94C278.418 186.277 269.473 181.834 261.503 177.225C257.583 174.959 248.098 170.637 245.145 167.921Z" fill="#010102"/>
<path d="M268.705 92.4551C271.93 95.0406 276.052 96.4368 279.557 98.5321C290.132 104.853 301.877 109.797 312.13 116.56C310.605 120.597 309.325 127.026 307.847 131.429C305.225 139.246 302.182 147.703 300.302 155.689C295.93 153.598 282.61 148.113 285.41 158.367C284.897 159.026 280.445 158.691 279.357 161.069C279.337 162.191 279.597 162.267 280.175 163.189C280.047 164.303 277.89 165.202 277.83 166.734C277.755 168.646 278.705 168.775 279.51 170.273C279.307 172.737 276.43 171.957 278.892 176.471C280.582 178.836 289.035 185.492 287.62 187.863C285.73 188.189 253.237 169.283 248.098 166.901C248.777 165.15 249.588 161.847 250.115 159.943L253.445 148.242C258.74 129.76 263.417 110.98 268.705 92.4551Z" fill="#3674EC"/>
<path d="M113.136 33.0901C119.579 32.4516 126.049 33.9949 131.509 37.4722C136.564 40.7047 141.728 46.5301 143.023 52.5401C158.641 44.3411 179.949 57.5449 174.811 75.7831C178.491 77.2609 181.926 79.6132 184.156 82.9344C186.851 86.9477 188.124 91.4979 187.177 96.2902C186.594 99.2424 185.313 102.097 183.665 104.605C177.191 114.455 168.09 112.196 166.788 113.715C166.191 114.411 165.697 115.675 165.226 116.495C163.461 119.57 161.313 122.057 158.368 124.047C157.335 123.301 156.983 123.002 156.074 122.108C160.884 118.577 161.808 116.212 164.299 111.182C164.536 110.705 169.453 112.876 171.098 111.877C173.902 110.174 177.612 107.546 179.792 105.094C180.764 103.999 181.586 102.78 182.236 101.469C185.902 94.1444 184.472 85.6389 177.996 80.4902C176.011 78.9124 174.232 78.0406 171.989 76.9229L172.037 76.7109C175.08 63.2441 166.169 52.7952 152.266 52.7537C149.035 52.7442 144.055 53.9009 141.345 55.7254C141.005 54.7946 140.658 53.8669 140.303 52.9419C138.542 47.7909 135.612 43.8804 131.179 40.7052C125.389 36.6184 118.209 35.0084 111.228 36.2309C100.194 38.1214 92.3887 46.5104 89.4262 57.5579C89.4315 57.5381 89.682 58.9087 89.706 59.0319C89.616 59.2322 89.526 59.4327 89.4362 59.6329C86.2767 60.5797 83.1662 61.4369 80.2385 62.9734C69.1887 68.7724 64.3025 83.9454 70.6777 94.9224C74.8922 102.179 79.3782 103.994 86.8737 106.267C85.9015 112.145 86.4925 112.589 88.5865 118.108C88.8537 118.812 89.0017 119.185 88.7112 119.782C84.027 121.686 83.617 110.942 83.9555 108.241C80.5732 107.3 78.0665 106.519 75.253 104.319C70.0952 100.287 65.4017 93.7221 64.6837 87.1269C63.7045 78.1316 66.6225 71.9696 72.8767 65.7971C74.9765 63.5071 76.6465 61.6347 79.424 60.1379C82.034 58.7312 84.4712 58.0769 87.3607 57.4797C87.6912 57.1284 87.9312 55.0222 87.999 54.6924C90.6092 42.0124 101.362 34.4766 113.136 33.0901Z" fill="#010102"/>
<path d="M142.096 74.896L143.227 75.3022C144.785 76.9285 144.953 79.1952 145.018 81.3417C147.719 81.4285 153.913 80.361 155.248 82.5672C155.229 83.051 155.331 83.2917 155.067 83.5402C154.255 84.3065 151.55 84.0652 150.362 84.0427C149.879 88.2407 148.349 92.25 145.912 95.7022C149.324 98.7167 151.807 99.5637 155.785 101.507C156.255 101.737 156.25 102.032 156.297 102.456C155.197 103.613 151.942 103.03 150.562 102.585C148.903 102.052 145.052 98.5937 143.741 98.3175L143.332 98.6855C141.098 100.625 135.983 104.363 132.778 103.746C132.304 103.385 131.516 102.165 132.038 101.874C135.842 99.763 138.572 99.6937 141.509 95.9817C138.765 93.0277 137.569 90.7775 135.996 87.1872L137.018 84.2557C135.196 84.32 132.21 84.8865 131.228 83.261C131.264 82.339 131.137 82.6255 131.582 81.89C133.812 81.1935 139.679 81.4667 142.29 81.497C141.936 79.8312 141.407 78.0577 141.269 76.3605C141.208 75.6057 141.626 75.3652 142.096 74.896Z" fill="#010102"/>
<path d="M138.622 84.1143C141.751 84.0523 144.88 84.0411 148.009 84.0811C147.344 86.4966 146.501 88.8596 145.486 91.1501C144.837 92.3673 144.439 92.9821 143.642 94.1123C140.722 90.3533 139.246 89.1011 138.622 84.1143Z" fill="white"/>
<path d="M227.494 105.509C231.61 107.094 227.875 110.249 228.612 113.478C229.032 115.315 229.084 117.619 230.113 119.356C230.805 120.524 232.092 121.198 232.361 122.636C232.251 122.939 232.251 123.159 231.993 123.218C228.685 123.982 224.935 123.973 221.608 124.816C219.592 125.326 218.658 125.96 216.956 127.026C216.185 127.275 216.019 127.081 215.517 126.613C214.902 125.017 215.503 123.08 215.873 121.427C215.553 120.394 214.966 118.869 214.423 117.955C209.127 109.043 215.334 109.994 223.059 108.996C224.468 107.772 225.886 106.439 227.494 105.509Z" fill="#3674EC"/>
<path d="M110.549 65.3677C111.03 65.5324 111.529 65.6867 111.914 66.0339C112.662 66.7077 120.382 93.5337 120.356 95.4447C120.348 96.0612 120.215 96.1199 119.802 96.5342C117.887 96.9782 117.382 94.8767 116.967 93.3387C116.438 91.3814 115.92 89.4569 115.358 87.5082L110.562 87.6479C109.036 87.6467 107.442 87.7117 105.912 87.7509C105.17 89.8302 104.585 92.0632 104 94.1974C103.589 95.6924 102.715 97.3244 100.891 96.6249L100.674 96.0599C100.899 92.8739 108.957 67.6257 110.549 65.3677Z" fill="#010102"/>
<path d="M110.947 71.6025C111.653 72.5613 114.162 83.0088 114.809 85.071L110.875 85.028L106.862 85.007C108.197 81.6043 109.877 75.2693 110.947 71.6025Z" fill="white"/>
<path d="M243.523 71.5693C243.673 71.6388 243.821 71.7116 243.969 71.7873C245.144 72.4016 245.108 72.9833 244.982 74.1483C244.625 77.4373 244.052 80.7621 245.066 83.9956C246.156 84.9601 248.21 86.6113 248.133 88.1443C246.661 89.4996 243.052 87.7918 240.884 87.8376C239.189 87.8733 237.781 87.9871 236.101 88.1373C235.033 90.0336 234.698 90.6056 232.828 91.7508C232.072 91.5666 232.1 91.5738 231.444 91.1488C230.792 89.7751 232.172 86.9183 232.398 85.1896C232.934 81.0881 231 80.3456 228.93 77.3856C228.468 76.7258 228.428 76.4296 228.553 75.7701C230.052 74.8361 238.801 77.2388 241.15 76.2938C241.967 75.9656 242.939 72.7873 243.523 71.5693Z" fill="#3674EC"/>
<path d="M239.79 77.9253L240.047 78.007C240.947 79.0905 240.781 82.571 240.799 84.1073C239.844 84.3548 238.537 84.813 237.576 85.1228L237.12 84.9583C236.289 84.0423 236.374 80.8425 237.324 79.8633C239.229 79.4345 238.965 79.5478 239.79 77.9253Z" fill="#B2D3F3"/>
<path d="M121.165 118.637C122.098 119.115 125.496 123.06 127.5 124.31C133.8 128.238 139.161 125.838 146.001 126.032C146.29 126.041 146.21 126.076 146.454 126.384C145.879 131.051 133.665 129.731 130.68 128.593C126.213 126.89 123.967 125.745 120.667 122.267C119.567 123.402 119.045 123.833 117.782 124.797C110.126 129.866 98.1984 130.542 91.1104 124.088C91.4606 123.954 92.8683 123.414 93.1278 123.441C96.7076 123.805 99.0543 125.607 102.916 125.864C111.018 126.404 115.352 123.383 121.165 118.637Z" fill="#010102"/>
<path d="M276.642 88.8643C281.172 90.0278 284.475 91.7163 288.735 93.6183C292.542 95.3173 296.37 96.9643 300.222 98.5585C305.127 100.581 310.057 102.548 315.007 104.459C317.82 105.558 327.867 107.939 322.47 111.869C321.817 111.45 320.845 109.853 320.242 109.611C318.147 108.77 316.08 107.95 314.007 107.046C305.152 103.187 295.992 100.016 287.22 95.947C283.967 94.439 277.565 92.4478 276.217 89.0345L276.642 88.8643Z" fill="#010102"/>
<path d="M163.53 354.105C165.974 353.95 168.422 353.885 170.87 353.908C173.738 353.94 179.734 354.093 181.769 356.168C181.346 356.848 179.636 356.56 178.858 356.478C165.548 355.105 152.391 357.235 139.782 361.895C137.107 362.705 127.207 367.23 125.26 366.29C125.849 365.01 129.897 363.293 131.36 362.668C141.775 358.203 152.187 354.92 163.53 354.105Z" fill="#010102"/>
<path d="M56.128 165.511C58.2275 165.252 60.1668 166.056 62.2028 166.676C65.828 170.344 64.4593 173.176 62.5075 177.175C61.7895 177.702 62.0728 177.551 60.9478 177.461C59.6235 177.133 56.9813 177.239 55.5435 177.245C50.2288 173.438 50.5683 168.856 56.128 165.511Z" fill="#3674EC"/>
<path d="M58.1918 168.158C59.0048 168.209 60.3368 168.72 60.7646 169.428C62.1598 171.74 60.1583 173.406 58.4071 174.552C57.5556 174.556 56.3076 174.204 55.8598 173.497C54.3708 171.146 56.6896 169.195 58.1918 168.158Z" fill="white"/>
<path d="M224.125 346.598C228.681 345.978 248.939 347.783 251.495 350.758L251.325 351.175C243.066 350.63 237.095 349.333 228.28 349.315C222.628 349.348 217.341 349.928 211.839 351.285C209.995 351.74 204.496 354.1 203.323 353.688L203.148 353.318C204.746 349.61 219.973 346.96 224.125 346.598Z" fill="#010102"/>
<path d="M77.0825 131.513C79.656 131.175 82.3285 132.071 83.5648 134.495C84.2778 135.913 84.3723 137.564 83.8258 139.054C82.9733 141.43 81.3333 142.494 79.208 143.472C76.4895 143.68 73.667 142.662 72.4685 140.027C71.8508 138.643 71.8063 137.071 72.3443 135.655C73.2535 133.234 74.95 132.474 77.0825 131.513Z" fill="#3674EC"/>
<path d="M77.4432 134.437C79.4717 134.383 80.5787 136.014 81.775 137.44C80.5435 139.166 80.173 139.618 78.4352 140.761C77.554 140.795 75.9392 140.123 75.4547 139.429C73.8357 137.111 76.0032 135.49 77.4432 134.437Z" fill="white"/>
<path d="M83.9717 190.516C84.3262 189.846 84.3724 189.707 84.3587 188.949C84.3349 188.013 84.6704 187.102 85.2967 186.405C85.5529 186.115 85.7377 186.062 86.0889 185.934C87.5819 185.933 88.1017 186.764 89.4489 187.201C91.4914 187.864 94.5637 187.71 95.1699 190.288C94.4079 193.163 91.8434 192.172 91.9964 196.879C92.0842 198.131 92.6262 199.262 92.0929 200.319C90.4897 200.973 89.3717 199.616 88.7682 198.432C86.4982 193.98 84.3344 197.084 81.9639 195.697C79.6234 194.327 82.5052 191.651 83.9717 190.516Z" fill="#3674EC"/>
<path d="M83.9717 190.516C84.6132 191.57 84.5279 191.813 84.4202 193.033C85.9817 194.347 89.9069 196.968 91.9964 196.879C92.0842 198.131 92.6262 199.262 92.0929 200.319C90.4897 200.973 89.3717 199.616 88.7682 198.432C86.4982 193.98 84.3344 197.084 81.9639 195.697C79.6234 194.327 82.5052 191.651 83.9717 190.516Z" fill="#3674EC"/>
<path d="M87.2126 188.359C89.1328 188.477 90.5668 189.675 91.9591 190.86C91.1313 192.369 90.2343 193.466 89.6326 195.151C89.2153 194.91 89.0226 194.585 88.5821 194.252C87.6088 193.516 86.3116 193.406 85.1211 193.239C85.7001 191.517 86.4016 189.978 87.2126 188.359Z" fill="white"/>
<path d="M46.7965 133.034C53.3212 132.557 58.2852 140.58 50.2272 144.459C44.0525 145.343 42.2852 141.715 42.7837 136.294C44.241 134.38 44.601 134.033 46.7965 133.034Z" fill="#3674EC"/>
<path d="M48.1455 135.486C49.8073 135.547 52.1965 136.366 51.916 138.388C51.7053 139.907 50.4337 140.66 49.3122 141.475C46.248 142.616 43.3588 138.175 48.1455 135.486Z" fill="white"/>
<path d="M61.4208 213.681C61.6726 213.691 62.1211 213.71 62.3186 213.868C65.8046 216.654 69.2678 221.12 72.9563 223.508C76.8961 223.617 82.5048 221.842 84.4261 222.386L84.8471 223.157C82.4876 226.394 74.6558 226.625 71.1846 225.149C68.0478 223.263 64.7041 219.314 62.1793 216.514C63.1403 219.464 66.3983 226.343 64.1263 228.962L63.6153 228.975C62.3198 227.886 59.7446 217.166 59.5488 215.296C59.9266 214.51 60.6568 214.178 61.4208 213.681Z" fill="#010102"/>
<path d="M82.3281 157.733C83.4819 157.568 84.5164 157.638 85.6334 158.001C87.2409 158.522 88.5566 159.693 89.2609 161.229C90.8396 164.721 88.9139 167.532 85.6209 168.818C81.2916 169.362 77.1201 166.679 78.6906 161.98C79.3104 160.149 80.6136 158.627 82.3281 157.733Z" fill="#3674EC"/>
<path d="M83.2255 160.785C86.3608 160.439 88.973 162.752 85.4455 165.335C84.492 165.642 84.0928 165.859 83.0953 165.707C81.0298 164.52 81.1415 161.978 83.2255 160.785Z" fill="white"/>
<path d="M83.5634 225.95C84.1416 225.889 84.1034 225.873 84.6119 226.15C84.5426 226.716 82.3096 229.569 81.8126 230.289C80.4444 232.271 79.4659 233.762 78.6639 236.071C79.5564 240.047 81.7516 244.201 81.8206 248.157C81.8376 249.126 81.5431 249.252 80.9611 249.778C79.4566 248.734 78.3469 243.542 76.8474 241.655C75.4376 239.881 76.5094 234.395 77.3346 232.328C78.6239 229.102 80.2984 227.415 83.5634 225.95Z" fill="#010102"/>
<path d="M68.0792 240.462C65.3702 241.542 59.559 243.175 56.5025 243.175C55.8625 243.074 55.4157 242.56 55.0662 242.088C53.3817 239.813 58.5077 235.359 60.5547 236.047C60.6505 237.387 58.987 239.536 58.1767 240.748C61.7382 239.815 64.6065 238.902 68.2742 239.455L68.0792 240.462Z" fill="#010102"/>
<path d="M71.7837 243.859L73.4394 243.268C75.4584 245.304 78.1357 247.782 79.5507 250.223C79.5257 251.095 79.6567 250.695 79.0489 251.425C76.5049 251.84 73.0737 245.917 71.7837 243.859Z" fill="#010102"/>
<path d="M68.2741 239.455C70.7211 239.736 71.7984 241.428 73.4391 243.268L71.7834 243.859C70.7439 242.101 70.2651 240.715 68.0791 240.462L68.2741 239.455Z" fill="#010102"/>
<path d="M82.7588 238.236C83.8531 238.309 83.7001 238.121 84.3428 238.701C84.6391 239.763 84.1216 241.097 83.8221 242.238C83.5333 242.215 83.4461 242.137 83.1618 242.016C82.7923 240.895 82.4996 239.402 82.7588 238.236Z" fill="#263B7E"/>
<path d="M276.217 89.0346C274.952 89.3846 273.435 90.8966 272.15 90.0483C273.057 88.9188 275.262 88.5096 276.642 88.8643L276.217 89.0346Z" fill="#010102"/>
</g>
<defs>
<clipPath id="clip0_442_861">
<rect width="400" height="400" fill="white"/>
</clipPath>
</defs>
</svg>
