<svg width="400" height="400" viewBox="0 0 400 400" fill="none" xmlns="http://www.w3.org/2000/svg">
<g clip-path="url(#clip0_442_777)">
<path d="M0 0H400V135.791V138.251V144.655V147.361V400H294.29H289.858H238.792H234.492H217.709H213.802H210.763H206.268H186.899H185.408H176.653H172.043H63.4933H63.1915H54.4053H49.2957H0V237.777V220.306V207.413V191.449V181.471V179.434V0Z" fill="white"/>
<path d="M54.4053 400C57.6193 396.255 59.7645 397.273 63.1915 400H54.4053Z" fill="white"/>
<path d="M176.653 400C179.281 397.405 183.147 396.287 185.409 400H176.653Z" fill="white"/>
<path d="M119.8 244.302C127.789 244.05 146.823 241.723 153.8 238.205C155.002 237.599 155.989 236.726 156.901 235.746C159.384 233.078 161.931 230.089 164.056 227.13C165.413 225.242 166.609 223.24 167.945 221.337C169.336 219.357 170.86 217.468 172.201 215.453C174.826 211.507 181.424 199.112 185.265 197.314C186.732 197.534 186.333 198.586 187.253 198.305C188.702 195.529 190.964 191.384 191.656 188.423C193.989 178.408 194.282 168.102 196.512 158.075C197.608 153.396 197.973 148.08 199.894 143.68C200.755 141.706 203.043 140.822 204.927 143.026C207.489 146.024 209.201 140.85 211.635 148.041C212.509 146.731 213.724 144.589 215.126 144.013C216.657 143.996 217.465 144.79 217.794 146.25C217.594 147.162 217.834 146.834 217.135 147.323C216.216 147.246 215.917 147.15 215.016 146.901L214.767 147.127C214.766 148.109 214.9 149.233 214.916 150.221C214.961 153.096 214.245 162.249 215.004 164.372C216.475 165.005 218.091 165.384 218.484 166.86C219.128 169.277 221.415 176.92 221.505 179.044C221.063 179.651 221.351 179.429 220.555 179.649C217.347 178.423 218.277 168.598 215.369 167.369C214.926 167.476 214.44 167.488 214.277 168.013C213.004 172.151 213.811 176.718 213.666 181.017C213.492 186.138 213.438 191.295 213.44 196.417C213.441 199.51 216.741 200.493 217.792 202.498C219.073 204.943 219.543 207.753 220.777 210.388C226.145 208.72 230.63 205.18 233.725 200.502C232.485 197.412 229.707 193.073 229.084 190.214C226.79 179.702 224.677 169.022 223.491 158.324C223.149 155.159 220.95 148.704 221.863 146.046C222.448 145.441 222.107 145.604 222.893 145.485C223.762 146.334 224.057 150.195 224.356 151.653C226.863 163.886 228.558 176.274 231.259 188.477C232.042 192.021 233.454 194.406 234.635 197.628C235.741 197.258 236.879 196.847 238.014 196.601C240.364 198.971 241.951 200.934 243.481 203.937C246.023 208.926 249.949 213.101 253.097 217.73C256.385 222.561 260.562 226.901 264.02 231.596C266.477 231.397 273.525 233.046 276.675 233.462C283.052 234.305 290.115 234.376 296.305 235.25C295.937 233.476 295.937 232.361 295.93 230.536C292.022 230.379 286.537 230.334 283.842 227.199C280.157 222.912 278.592 214.303 278.875 208.881C278.915 208.177 278.97 207.474 279.037 206.772C276.127 205.132 275.405 204.444 274.185 201.251L274.37 201.035C275.797 199.406 279.582 196.793 280.277 195.495C282.375 191.587 281.035 188.466 283.245 183.825C286.495 199.366 277.41 199.168 277.21 202.093C278.02 203.556 280.057 204.726 281.527 205.513C281.377 212.089 280.892 220.365 285.652 225.23C290.26 229.937 297.99 229.011 303.357 226.59C303.732 226.422 304.147 226.749 304.497 226.94C305.352 228.886 299.815 230.741 298.425 231.142C298.835 233.948 299.35 237.938 298.615 240.657L298.205 241.111C297.157 240.737 296.735 238.901 296.435 237.91C286.025 236.427 274.63 236.837 264.53 233.607C263.547 236.012 260.387 244.917 258.167 245.421C256.445 243.689 261.907 234.788 262.945 232.87C261.075 231.215 258.602 229.168 257.062 227.227C252.647 221.661 248.348 215.809 244.333 209.954C241.938 206.46 239.982 202.566 237.331 199.286C232.471 207.497 226.108 212.341 216.52 213.817C219.854 220.544 222.039 226.497 225.078 232.985C229.757 242.781 235.398 252.088 241.917 260.77C243.259 262.59 244.622 264.7 246.139 266.358C248.683 269.138 251.937 271.558 254.765 274.03C258.62 277.4 264.877 279.415 268.645 282.38C268.712 276.92 268.577 271.903 269.925 266.553L270.387 266.128L270.915 266.175C272.15 267.725 271.372 274.705 271.517 276.88C271.915 282.875 271.277 290.028 272.105 295.895C272.312 296.325 272.475 296.685 272.73 297.095L273.227 296.69C273.98 297.193 274.142 297.455 274.59 298.24L274.992 298.285L275.28 297.715C276.63 298.303 276.597 298.833 276.977 300.175L276.24 301.398C276.55 302.373 276.527 301.89 276.305 302.898C274.597 305.193 266.987 305.963 264.145 306.568C263.022 306.805 262.612 306.678 261.71 306.065C263.4 303.308 267.605 303.163 270.652 302.64C269.817 296.66 269.592 291.02 268.955 285.08C268.155 284.758 267.365 284.413 266.582 284.048C249.863 276.163 241.675 266.94 232.417 251.163C225.886 240.035 219.989 228.973 215.189 216.87C213.673 213.047 213.413 210.622 217.651 209.385C216.109 204.142 215.581 202.917 211.672 199.002C207.276 202.578 206.712 204.673 204.872 209.746C206.154 210.162 206.95 210.455 207.654 211.607C208.329 214.736 199.656 232.537 197.659 236.113C196.685 238.315 194.161 241.306 193.356 243.443C190.889 249.99 188.343 255.173 183.894 260.575C183.197 261.423 182.488 264.455 181.659 265.555C178.945 268.745 176.408 273.07 173.535 276.023C165.849 283.925 155.615 288.303 145.343 290.923C145.189 293.653 145.219 297.808 144.141 300.238C143.739 301.143 143.133 301.353 142.244 301.653C142.006 301.725 139.579 302.503 139.479 302.51L138.772 303.745C139.606 304.69 140.346 304.733 141.556 304.808C144.37 304.988 158.583 304.168 159.923 305.698C160.317 306.148 160.266 306.708 160.55 307.173C162.67 308.99 162.162 312.835 162.618 315.463C163.068 318.055 162.281 321.975 159.069 322.12C157.254 322.24 155.649 320.913 154.337 319.74C153.176 319.75 151.756 319.73 150.625 319.813C145.377 322.875 147.661 325.093 145.713 327.683C144.939 328.283 144.355 329.683 143.872 330.615C145.302 331.558 147.149 333.17 148.852 332.263C148.941 332.06 149.121 331.683 149.174 331.485L149.575 331.088C150.806 330.845 152.307 331.148 153.587 331.318C153.954 331.098 154.322 330.88 154.693 330.665C158.833 328.22 162.528 329.733 162.061 334.865C161.672 339.145 160.501 343.853 159.525 348.043C158.982 350.378 152.442 349.885 150.692 350.005C147.248 349.943 135.059 352.773 137.355 346.09C138.031 344.123 139.677 341.763 138.888 339.513C137.512 335.583 132.31 335.428 128.968 336.383C127.039 336.95 125.832 339.668 125.163 341.368C126.334 345.178 130.232 350.598 122.441 350.375C114.054 350.133 105.633 350.528 97.2959 350.143C96.8052 350.12 96.1737 348.378 96.0139 347.973C95.4084 347.738 94.1484 348.183 93.4714 348.315C89.1709 349.163 84.7522 347.74 80.7204 346.478C77.3064 349.493 74.6659 349.633 70.3262 350.518C61.6654 352.285 51.9827 353.035 43.4904 350.225C36.2444 347.83 31.0754 343.445 27.9997 336.548C23.4047 327.4 23.5777 313.165 26.8252 303.553C27.2999 301.945 28.0232 300.47 28.7187 298.945C29.8134 296.328 30.0899 295.333 30.4929 292.51C31.1557 291.675 33.2032 287.313 33.7584 286.158C35.9509 281.595 38.1747 277.003 40.3582 272.435C41.2882 270.49 43.1904 268.285 44.4249 266.455C45.9972 264.318 47.4479 261.693 49.1989 259.708C52.4164 256.063 57.8217 251.6 62.1522 249.476C69.1619 246.039 77.5452 245.518 85.1599 244.773C85.1689 245.205 85.1847 245.636 85.2077 246.067C85.3687 248.983 87.1804 254.333 89.0174 256.745C89.9224 257.523 91.8389 258.145 92.5517 259.078C96.8734 264.743 101.014 267.708 108.474 267.273C111.181 267.113 113.308 266.025 115.152 263.88L115.74 263.94C118.013 262.93 121.178 259.48 120.955 256.878C120.338 252.795 122.104 251.63 119.922 246.526C119.4 247.564 119.001 248.623 118.033 249.251L117.487 249.334C115.885 247.281 118.497 242.49 117.705 240.083C117.472 239.374 117.197 238.138 117.391 237.414C118.796 236.66 121.537 237.614 123.258 237.67C136.751 238.109 138.919 225.917 137.799 215.133C140.021 213.677 140.979 212.954 142.783 211.009C138.905 208.894 137.336 208.043 135.846 203.726C135.181 201.797 134.107 195.34 134.809 193.822L135.29 193.685C136.651 194.797 137.254 202.576 138.274 204.232C140.07 207.147 143.108 207.607 145.317 210.687C144.92 211.632 144.613 212.338 144.048 213.202C143.6 213.887 140.514 216.508 140.529 216.99C140.745 224.162 139.546 235.12 131.938 238.303C128.993 239.535 124.803 239.521 121.608 239.528C121.086 240.985 120.448 242.943 119.8 244.302Z" fill="#FD9E2D"/>
<path d="M58.8867 312.097C59.2447 309.187 64.7929 284.4 66.0792 283.44C66.1569 283.382 66.2414 283.335 66.3224 283.28L66.6814 283.435C67.9159 287.037 62.5534 307.157 61.4382 312.257C65.4399 312.682 69.4142 313.362 73.3754 314.065C75.3582 314.417 77.1132 314.415 78.7707 315.595C79.9977 315.51 83.7072 311.782 85.0119 310.892C86.1622 310.107 86.8837 309.66 88.1662 308.972L88.3739 308.377C89.7742 307.64 93.0737 307.952 94.9582 307.307C96.0702 306.472 99.3287 304.665 100.676 304.947L101.041 305.75C100.836 304.227 101.471 301.93 102.697 300.917C103.736 300.057 104.321 300.225 105.589 300.287C106.758 300.44 108.2 300.532 109.242 300.997L109.465 301.462L109.519 303.312C111.39 302.785 112.832 303.36 114.757 303.567C120.304 304.165 127.061 302.377 120.58 296.185C120.692 293.757 120.809 292.405 122.759 290.612C126.361 287.3 131.852 287.492 135.182 291.105C138.887 295.122 132.278 298.555 135.15 302.322C135.994 303.43 137.346 304.367 138.772 303.745C139.606 304.69 140.346 304.732 141.556 304.807C144.37 304.987 158.583 304.167 159.923 305.697C160.317 306.147 160.266 306.707 160.55 307.172C162.67 308.99 162.162 312.835 162.618 315.462C163.068 318.055 162.281 321.975 159.069 322.12C157.254 322.24 155.649 320.912 154.337 319.74C153.176 319.75 151.756 319.73 150.625 319.812C145.377 322.875 147.661 325.092 145.713 327.682C144.939 328.282 144.355 329.682 143.872 330.615C145.302 331.557 147.149 333.17 148.852 332.262C148.941 332.06 149.121 331.682 149.174 331.485L149.575 331.087C150.806 330.845 152.307 331.147 153.587 331.317C153.954 331.097 154.322 330.88 154.693 330.665C158.833 328.22 162.528 329.732 162.061 334.865C161.672 339.145 160.501 343.852 159.525 348.042C158.982 350.377 152.442 349.885 150.692 350.005C147.248 349.942 135.059 352.772 137.355 346.09C138.031 344.122 139.677 341.762 138.888 339.512C137.512 335.582 132.31 335.427 128.968 336.382C127.039 336.95 125.832 339.667 125.163 341.367C126.334 345.177 130.232 350.597 122.441 350.375C114.054 350.132 105.633 350.527 97.2959 350.142C96.8052 350.12 96.1737 348.377 96.0139 347.972C95.4084 347.737 94.1484 348.182 93.4714 348.315C89.1709 349.162 84.7522 347.74 80.7204 346.477C77.3064 349.492 74.6659 349.632 70.3262 350.517C61.6654 352.285 51.9827 353.035 43.4904 350.225C36.2444 347.83 31.0754 343.445 27.9997 336.547C23.4047 327.4 23.5777 313.165 26.8252 303.552C27.4869 304.85 27.0569 307.787 27.2882 309.59C26.7594 320.957 26.3352 332.31 34.4364 341.697C39.3514 347.392 46.9504 348.992 54.1872 349.425C60.3297 349.792 71.7227 348.145 77.5827 346.37L77.8754 346.06C76.5832 345.972 73.8684 346.52 73.1697 345.535C68.2907 338.652 68.3169 324.99 74.1107 318.62C75.0202 317.617 77.2079 317.572 77.5484 316.917C76.5027 316.3 63.2254 315.487 61.3694 314.785C57.8732 313.462 44.4409 316.847 43.4402 315.385C44.8452 312.035 55.5852 312.045 58.8867 312.097Z" fill="black"/>
<path d="M120.58 296.185C120.692 293.757 120.809 292.405 122.759 290.612C126.361 287.3 131.852 287.492 135.182 291.105C138.887 295.122 132.278 298.555 135.15 302.322C135.994 303.43 137.346 304.367 138.772 303.745C139.606 304.69 140.346 304.732 141.556 304.807C144.37 304.987 158.583 304.167 159.923 305.697C160.317 306.147 160.266 306.707 160.55 307.172C162.67 308.99 162.162 312.835 162.618 315.462C163.068 318.055 162.281 321.975 159.069 322.12C157.254 322.24 155.649 320.912 154.337 319.74C153.176 319.75 151.756 319.73 150.625 319.812C145.377 322.875 147.661 325.092 145.713 327.682C144.939 328.282 144.355 329.682 143.872 330.615C145.302 331.557 147.149 333.17 148.852 332.262C148.941 332.06 149.121 331.682 149.174 331.485L149.375 332.18C152.905 335.507 156.893 331.33 159.298 332.275C159.94 335.107 157.488 343.61 157.008 347.165L156.964 347.495C150.855 347.48 145.755 347.84 139.478 347.52C144.149 341.442 142.204 335.692 134.793 333.765C132.099 333.055 129.232 333.445 126.826 334.85C121.253 338.13 122.485 343.032 125.443 347.527C121.354 348.005 115.031 347.717 110.826 347.667C106.451 347.617 102.041 347.787 97.7214 347.712C101.108 346.29 106.451 346.015 109.269 342.31C110.725 340.395 110.449 339.032 110.159 336.855C114.722 335.712 117.078 334.317 116.748 329.322C117.829 327.615 120.074 325.812 119.022 323.257C118.374 321.682 116.873 321.12 115.372 320.552C122.75 312.48 103.999 313.49 100.639 313.477C101.186 312.145 101.255 311.725 101.512 310.3C103.6 309.155 105.786 307.18 106.94 305.065C108.097 303.852 108.546 304.982 109.519 303.312C111.39 302.785 112.832 303.36 114.757 303.567C120.304 304.165 127.061 302.377 120.58 296.185Z" fill="#FA8F24"/>
<path d="M160.55 307.172C162.67 308.99 162.163 312.835 162.619 315.462C163.068 318.055 162.281 321.975 159.07 322.12C157.254 322.24 155.65 320.912 154.337 319.74C153.177 319.75 151.757 319.73 150.625 319.812C145.377 322.875 147.661 325.092 145.713 327.682C145.059 327.302 145.09 327.322 144.633 326.715C144.197 325.145 144.579 322.555 145.333 321.12C148.709 314.692 155.019 317.1 159.689 319.447C159.901 315.615 159.255 311.66 159.889 307.917C159.889 307.915 160.488 307.242 160.55 307.172Z" fill="black"/>
<path d="M101.041 305.75C100.836 304.228 101.471 301.93 102.697 300.918C103.736 300.058 104.321 300.225 105.589 300.288C106.758 300.44 108.2 300.533 109.242 300.998L109.465 301.463L109.519 303.313C108.546 304.983 108.097 303.853 106.94 305.065C105.786 307.18 103.6 309.155 101.512 310.3C101.31 309.633 101.111 309.183 100.834 308.54C100.138 308.018 100.499 308.085 99.7501 308.188C98.4894 309.435 98.2304 311.36 97.8289 313.095C95.9474 313.22 93.9389 313.185 92.7921 314.968C94.4351 317.85 114.097 313.575 114.211 317.99C111.325 322.118 95.5296 320.505 95.6554 324.05C98.3676 326.91 112.456 321.945 116.343 323.043C117.104 323.258 117.495 324.638 117.091 325.125C114.698 328 108.949 328.433 105.489 329.548C103.398 330.223 96.6909 330.07 95.9324 332.093L96.2499 332.535C99.9861 333.903 113.536 329.69 114.674 330.67C114.486 331.535 113.412 332.338 112.756 332.923C108.148 337.038 101.712 336.518 96.3686 338.51C95.9556 339.32 96.0754 339.038 96.1339 340.05C97.9984 341.373 106.025 338.303 108.165 338.923L108.293 339.325C105.691 344.368 90.8694 347.778 85.5849 345.823C83.5276 345.063 81.3211 344.178 79.1696 343.585C78.0711 343.283 76.1439 343.985 75.2241 343.633C70.8699 338.863 72.1911 324.633 75.8216 319.503C76.8956 319.1 76.0161 319.843 77.4646 320.098C79.3174 319.078 82.7784 316.365 84.3954 314.875C86.2856 313.133 88.0369 311.82 88.1539 309.275L88.1661 308.973L88.3739 308.378C89.7741 307.64 93.0736 307.953 94.9581 307.308C96.0701 306.473 99.3286 304.665 100.676 304.948L101.041 305.75Z" fill="white"/>
<path d="M105.589 300.288C106.758 300.44 108.2 300.533 109.243 300.998L109.465 301.463L109.52 303.313C108.546 304.983 108.097 303.853 106.94 305.065C106.113 303.013 106.2 301.778 105.589 300.288Z" fill="#F8E7CF"/>
<path d="M94.9583 307.308C96.0703 306.473 99.3287 304.665 100.676 304.948L101.041 305.75L100.92 307.018C100.223 307.215 99.349 306.725 98.5358 306.788C97.3698 306.88 96.1113 307.185 94.9583 307.308Z" fill="black"/>
<path d="M119.8 244.302C127.789 244.05 146.823 241.723 153.8 238.205C155.002 237.599 155.989 236.726 156.901 235.746C159.384 233.078 161.931 230.089 164.056 227.13C165.413 225.242 166.61 223.24 167.946 221.337C169.336 219.357 170.86 217.468 172.201 215.453C174.826 211.507 181.424 199.112 185.266 197.314C186.732 197.534 186.333 198.586 187.253 198.305C188.703 195.529 190.964 191.384 191.657 188.423C193.989 178.408 194.282 168.102 196.512 158.075C197.608 153.396 197.973 148.08 199.894 143.68C200.756 141.706 203.044 140.822 204.927 143.026C207.49 146.024 209.201 140.85 211.635 148.041C212.509 146.731 213.724 144.589 215.126 144.013C216.657 143.996 217.465 144.79 217.794 146.25C217.594 147.162 217.834 146.834 217.135 147.323C216.217 147.246 215.917 147.15 215.017 146.901L214.768 147.127C214.766 148.109 214.9 149.233 214.916 150.221C214.961 153.096 214.245 162.249 215.004 164.372C216.475 165.005 218.091 165.384 218.484 166.86C219.128 169.277 221.416 176.92 221.505 179.044C221.063 179.651 221.351 179.429 220.555 179.649C217.347 178.423 218.277 168.598 215.369 167.369C214.926 167.476 214.441 167.488 214.277 168.013C213.004 172.151 213.812 176.718 213.666 181.017C213.492 186.138 213.438 191.295 213.44 196.417C213.441 199.51 216.742 200.493 217.792 202.498C219.073 204.943 219.543 207.753 220.778 210.388C226.145 208.72 230.63 205.18 233.726 200.502C232.485 197.412 229.708 193.073 229.084 190.214C226.791 179.702 224.677 169.022 223.491 158.324C223.15 155.159 220.95 148.704 221.863 146.046C222.448 145.441 222.107 145.604 222.894 145.485C223.762 146.334 224.057 150.195 224.356 151.653C226.863 163.886 228.558 176.274 231.259 188.477C232.043 192.021 233.454 194.406 234.636 197.628C235.741 197.258 236.879 196.847 238.015 196.601C240.364 198.971 241.951 200.934 243.481 203.937C246.023 208.926 249.949 213.101 253.098 217.73C256.385 222.561 260.563 226.901 264.02 231.596C266.478 231.397 273.525 233.046 276.675 233.462C283.053 234.305 290.115 234.376 296.305 235.25C295.938 233.476 295.938 232.361 295.93 230.536C292.023 230.379 286.538 230.334 283.843 227.199C280.158 222.912 278.593 214.303 278.875 208.881C278.915 208.177 278.97 207.474 279.038 206.772C276.128 205.132 275.405 204.444 274.185 201.251L274.37 201.035C275.798 199.406 279.583 196.793 280.278 195.495C282.375 191.587 281.035 188.466 283.245 183.825C286.495 199.366 277.41 199.168 277.21 202.093C278.02 203.556 280.058 204.726 281.528 205.513C281.378 212.089 280.893 220.365 285.653 225.23C290.26 229.937 297.99 229.011 303.358 226.59C303.733 226.422 304.148 226.749 304.498 226.94C305.353 228.886 299.815 230.741 298.425 231.142C298.835 233.948 299.35 237.938 298.615 240.657L298.205 241.111C297.158 240.737 296.735 238.901 296.435 237.91C286.025 236.427 274.63 236.837 264.53 233.607C263.548 236.012 260.388 244.917 258.168 245.421C256.445 243.689 261.908 234.788 262.945 232.87C261.075 231.215 258.603 229.168 257.063 227.227C252.648 221.661 248.348 215.809 244.333 209.954C241.938 206.46 239.983 202.566 237.332 199.286C232.472 207.497 226.108 212.341 216.52 213.817C219.854 220.544 222.04 226.497 225.078 232.985C229.758 242.781 235.398 252.088 241.917 260.77C243.26 262.59 244.622 264.7 246.139 266.358C248.683 269.138 251.938 271.558 254.765 274.03C258.62 277.4 264.878 279.415 268.645 282.38C268.713 276.92 268.578 271.903 269.925 266.553L270.388 266.128L270.915 266.175C272.15 267.725 271.373 274.705 271.518 276.88C271.915 282.875 271.278 290.028 272.105 295.895C272.313 296.325 272.475 296.685 272.73 297.095L273.228 296.69C273.98 297.193 274.143 297.455 274.59 298.24L274.993 298.285L275.28 297.715C276.63 298.303 276.598 298.833 276.978 300.175L276.24 301.398C276.55 302.373 276.528 301.89 276.305 302.898C274.598 305.193 266.988 305.963 264.145 306.568C263.023 306.805 262.613 306.678 261.71 306.065C263.4 303.308 267.605 303.163 270.653 302.64C269.818 296.66 269.593 291.02 268.955 285.08C268.155 284.758 267.365 284.413 266.583 284.048C249.863 276.163 241.676 266.94 232.417 251.163C225.887 240.035 219.99 228.973 215.189 216.87C213.673 213.047 213.413 210.622 217.651 209.385C216.109 204.142 215.581 202.917 211.672 199.002C207.276 202.578 206.712 204.673 204.872 209.746C206.154 210.162 206.951 210.455 207.655 211.607C208.329 214.736 199.657 232.537 197.659 236.113C196.686 238.315 194.161 241.306 193.356 243.443C190.889 249.99 188.343 255.173 183.894 260.575C183.197 261.423 182.488 264.455 181.659 265.555C178.945 268.745 176.408 273.07 173.535 276.023C165.849 283.925 155.615 288.303 145.344 290.923C145.19 293.653 145.219 297.808 144.141 300.238C143.74 301.143 143.133 301.353 142.244 301.653C142.119 297.685 142.921 292.91 143.036 288.793C143.099 286.538 142.545 274.493 143.746 273.718C146.502 274.35 145.572 285.448 145.528 288.158C154.28 286.73 164.951 280.668 171.342 274.51C175.752 270.263 179.345 263.905 183.496 259.245C184.553 258.06 186.022 252.4 187.239 250.958C191.234 245.875 193.418 240.881 195.549 234.844C196.619 231.971 198.726 228.63 199.962 225.605C201.729 221.28 203.851 217.11 205.604 212.727C201.921 213.274 196.436 211.683 193.638 209.182L194.255 208.571C191.871 208.702 190.505 206.541 189.771 204.646L189.17 205.744C185.858 202.719 186.065 202.892 185.317 198.646C182.444 204.674 180.362 207.041 176.893 212.35C171.259 220.97 165.663 229.656 158.878 237.459C157.608 238.978 156.789 239.154 155.624 240.118C155.142 240.44 155.233 240.491 154.746 240.536L154.464 240.667C149.112 243.122 139.667 245.053 133.722 245.683C131.955 245.87 129.248 245.672 127.761 245.887C125.509 246.211 123.601 246.501 121.286 246.749C121.452 247.362 121.45 247.2 121.844 247.711C124.164 250.73 123.034 254.288 120.955 256.878C120.339 252.795 122.104 251.63 119.922 246.526C119.401 247.564 119.001 248.623 118.033 249.251L117.487 249.334C115.885 247.281 118.498 242.49 117.705 240.083C117.472 239.374 117.198 238.138 117.392 237.414C118.797 236.66 121.537 237.614 123.258 237.67C136.751 238.109 138.919 225.917 137.799 215.133C140.022 213.677 140.979 212.954 142.783 211.009C138.905 208.894 137.336 208.043 135.846 203.726C135.181 201.797 134.107 195.34 134.809 193.822L135.29 193.685C136.651 194.797 137.254 202.576 138.274 204.232C140.07 207.147 143.108 207.607 145.318 210.687C144.92 211.632 144.614 212.338 144.048 213.202C143.6 213.887 140.515 216.508 140.529 216.99C140.745 224.162 139.546 235.12 131.938 238.303C128.993 239.535 124.803 239.521 121.608 239.528C121.086 240.985 120.449 242.943 119.8 244.302Z" fill="black"/>
<path d="M188.182 201.276C193.27 192.59 194.079 190.252 195.206 180.219C195.97 173.414 198.163 165.53 199.111 158.648C199.641 156.008 201.059 145.208 202.953 144.105C203.62 144.775 203.809 145.85 203.651 146.779C203.28 148.96 201.276 161.261 202.212 162.641C202.841 162.801 202.802 162.769 203.416 162.529C204.852 160.83 203.927 147.786 206.876 146.502C207.342 146.683 207.987 147.047 208.057 147.533C208.785 152.636 208.129 159.581 208.425 164.662C207.131 164.89 206.365 164.895 205.548 166.021C204.014 168.136 203.769 173.004 203.627 175.619L203.764 175.364C205.031 172.97 206.395 168.025 208.634 167.097C212.601 167.633 209.914 177.737 210.315 180.776C211.089 186.642 210.078 192.017 209.315 197.785C209.108 199.294 206.548 200.732 205.705 201.924C203.885 205.561 203.557 207.869 201.237 211.383C198.228 209.279 196.817 209.699 194.255 208.571C191.871 208.702 190.505 206.541 189.771 204.646L188.182 201.276Z" fill="white"/>
<path d="M272.105 295.895C272.312 296.325 272.475 296.685 272.73 297.095L273.227 296.69C273.98 297.193 274.142 297.455 274.59 298.24L274.992 298.285L275.28 297.715C276.63 298.303 276.597 298.833 276.977 300.175L276.24 301.398C275.097 301.74 273.457 302.065 272.257 302.338C272.252 300.183 272.282 298.045 272.105 295.895Z" fill="#F1EFED"/>
<path d="M120.503 301.193C118.888 298.89 117.363 296.46 117.826 293.518C118.711 287.888 126.052 285.46 131.009 286.385C135.943 287.305 140.179 290.893 138.907 296.38C138.529 297.99 137.079 299.828 136.227 301.258C137.392 301.445 138.781 301.468 139.479 302.51L138.773 303.745C137.346 304.368 135.994 303.43 135.15 302.323C132.278 298.555 138.888 295.123 135.183 291.105C131.852 287.493 126.361 287.3 122.76 290.613C120.809 292.405 120.692 293.758 120.58 296.185C127.061 302.378 120.304 304.165 114.758 303.568C112.832 303.36 111.39 302.785 109.52 303.313L109.465 301.463C110.719 301.84 118.287 301.173 120.503 301.193Z" fill="black"/>
<path d="M189.771 204.646C190.505 206.541 191.871 208.702 194.255 208.571L193.638 209.182C192.167 210.994 192.094 212.226 190.179 214.162C188.393 212.77 187.388 211.757 185.8 210.165C187.26 208.81 188.169 207.441 189.17 205.744L189.771 204.646Z" fill="#F1EFED"/>
<path d="M154.746 240.536C155.233 240.491 155.142 240.44 155.624 240.118C156.936 243.9 157.705 247.476 159.8 250.993C160.089 251.478 159.86 252.065 159.643 252.515L159.304 252.608C158.097 251.845 155.138 242.145 154.746 240.536Z" fill="#3D1900"/>
<path d="M28.7187 298.945C28.6787 300.92 27.7814 303.525 27.5784 305.665C27.4889 306.607 27.4179 308.935 27.2882 309.59C27.0569 307.787 27.4869 304.85 26.8252 303.552C27.2999 301.945 28.0232 300.47 28.7187 298.945Z" fill="#061515"/>
<path d="M283.715 181.665C280.495 180.782 276.865 179.423 275.337 176.259C272.637 170.67 275.465 165.841 281.347 164.727C282.12 161.16 279.577 156.3 284.417 153.464C289.85 150.282 296.527 151.428 299.867 156.817C300.167 157.306 300.46 157.8 300.742 158.299C302.49 157.362 304.062 156.241 305.86 155.767C313.265 153.814 321.167 153.079 328.06 157.031C329.132 157.647 330.95 158.491 332.167 158.225C333.342 157.966 335.597 159.724 335.872 160.785C335.5 161.412 335.37 161.457 334.785 161.86C335.022 162.47 335.642 162.567 336.347 162.976C339.445 164.768 341.542 170.757 342.597 174.012C345.117 181.765 343.67 189.946 340.575 197.323C344.915 200.022 356.56 207.175 357.755 212.024C358.122 213.473 357.877 215.01 357.075 216.272C354.275 220.636 349.307 218.938 348.05 219.829L348.212 220.092C348.642 220.797 348.912 221.06 348.82 221.849C347.617 223.669 343.95 225.68 341.785 226.072C338.92 226.592 333.365 225.79 330.855 224.221C330.327 223.889 328.025 221.845 327.452 221.34C325.75 222.304 325.097 223.08 323.14 223.243C322.37 224.9 324.735 232.687 325.37 234.731C329.175 235.435 331.565 236.732 334.945 237.622C357.005 243.433 365.137 264.523 372.245 283.833C376.61 295.69 385.215 317.335 382.875 329.815C381.815 335.77 378.39 341.04 373.38 344.428C366.655 348.943 354.897 351.553 346.817 352.358C345.62 352.478 341.7 351.545 341.332 351.555C340.21 351.588 336.195 354.885 334.595 355.478C330.51 356.985 326.862 356.948 322.662 357.54C319.227 358.023 315.802 358.903 312.32 358.968C310.942 358.995 309.052 358.688 307.69 358.423C305.99 358.095 304.245 357.408 303.265 355.903C302.595 354.875 302.747 354.235 302.842 353.03C301.282 352.62 299.93 352.37 298.432 351.48C297.717 351.053 296.915 349.485 296.247 349.495C292.58 349.55 277.72 356.065 279.382 347.423C279.477 346.93 280.875 344.388 281.207 343.53C278.43 338.418 272.96 337.283 270.902 343.338C270.24 345.618 273.962 349.43 271.952 351.23C270.96 352.12 264.085 352.618 262.995 351.193C262.457 350.49 261.737 348.36 261.555 347.448C260.697 343.175 259.207 338.578 259.317 334.215C259.347 333.085 261.26 331.585 262.08 330.928C263.01 331.24 264.045 331.548 264.962 331.9C266.342 332.43 267.275 332.488 268.627 331.785C271.07 330.515 271.677 327.08 270.212 324.863C269.135 323.12 267.775 322.77 265.91 322.168L261.617 324.773C259.005 323.635 258.095 323.185 258.237 320.095C258.385 316.908 258.242 313.53 258.77 310.39C258.857 309.895 259.342 309.79 259.715 309.665C262.325 308.863 259.647 308.605 261.71 306.065C262.612 306.678 263.022 306.805 264.145 306.568C266.987 305.963 274.597 305.193 276.305 302.898C276.527 301.89 276.55 302.373 276.24 301.398L276.977 300.175C276.597 298.833 276.63 298.303 275.28 297.715L274.992 298.285L274.59 298.24C274.142 297.455 273.98 297.193 273.227 296.69C274.215 295.348 274.867 294.16 276.132 293.055C280.457 289.283 284.44 292.243 287.232 295.96C287.26 297.235 287.315 298.523 287.252 299.793C290.37 298.33 295.01 296.628 298.575 297.355C299.29 297.5 299.547 298.083 299.81 298.718C299.86 299.508 300.37 300.168 300.905 300.755C304.685 303.173 307.03 311.688 310 315.085C310.022 315.113 313.04 315.445 313.397 315.605C316.53 317 330.995 316.813 330.557 321.64L330.127 321.988C329.067 321.915 323.54 319.908 321.785 319.503C318.215 318.675 314.527 317.873 310.962 317.038C311.652 320.118 311.92 321.335 313.492 324.04C314.865 323.768 318.282 322.668 319.117 323.62C318.672 325.653 316.742 325.673 315.1 326.243C311.89 327.36 295.407 330.845 295.67 335.298C298.632 338.345 312.647 332.478 315.042 333.693L315.16 334.213C313.83 337.648 295.165 338.608 294.722 343.12C296.52 346.443 309.42 342.373 311.08 343.583L311.135 344.243C309.78 347.463 300.155 345.588 299.242 348.313C301.087 352.11 308.872 349.7 309.657 351.993C308.747 353.175 306.24 353.228 305.302 354.523C306.03 358.943 330.49 354.56 333.46 353.183C340.487 349.918 338.967 347.103 347.585 346.425C349.752 340.21 348.942 333.01 344.917 327.703C343.712 326.113 341.005 324.703 341.605 322.528L342.14 322.293C343.517 322.455 344.372 323.093 345.467 324.138C351.08 329.505 353.157 341.745 348.182 347.995C347.852 348.41 346.177 348.75 345.622 349.305C348.682 350.4 362.997 346.813 366.32 345.35C372.815 342.488 379.475 336.673 380.235 329.17C381.782 315.745 376.115 302.75 371.952 290.328C368.925 281.295 366.102 273.648 361.56 265.15C359.327 260.97 358.242 258.383 355.267 254.443C348.137 245.004 337.82 240.136 326.652 237.192C326.042 237.031 325.707 237.322 325.26 237.7L324.982 237.939C321 237.472 320.002 219.43 320.427 215.935C320.017 215.84 319.607 215.732 319.205 215.613C318.1 215.284 315.917 214.294 315.347 213.236C316.717 211.507 320.242 213.936 323.017 212.978C330.372 210.44 333.475 200.324 326.025 196.028C321.52 193.431 317.795 199.384 314.455 201.033C313.815 201.349 312.177 200.892 311.48 200.496C309.997 198.779 310.107 193.56 309.985 191.099C307.937 189.838 306.712 190.745 306.1 187.579C305.925 186.689 305.36 185.014 305.055 184.075C303.697 184.921 303.26 185.04 301.655 184.923C300.78 185.145 301.127 184.927 300.535 185.539C299.77 184.81 298.805 184.09 297.967 183.426L298.585 182.459C298.34 181.811 298.007 179.624 297.752 179.43C293.645 180.798 290.545 181.344 288.065 176.848C287.467 177.043 284.802 180.614 283.715 181.665Z" fill="black"/>
<path d="M273.227 296.69C274.215 295.347 274.867 294.16 276.132 293.055C280.457 289.282 284.44 292.242 287.232 295.96C287.26 297.235 287.315 298.522 287.252 299.792C290.37 298.33 295.01 296.627 298.575 297.355C299.29 297.5 299.547 298.082 299.81 298.717C299.86 299.507 300.37 300.167 300.905 300.755C302.495 308.612 308.12 317.365 311.405 325.042C305.967 326.277 297.027 328.485 293.42 333.122C292.24 334.64 293.54 336.34 295.017 337.135L295.15 338.855C293.165 339.91 291.79 342.032 292.872 344.222C293.79 346.082 294.912 346.35 296.707 347.015C292.842 347.262 285.705 349.955 282.245 349.107C281.19 348.112 282.932 344.37 282.682 342.512C281.96 337.165 275.755 334.995 271.407 338.007C269.67 339.22 268.505 341.092 268.187 343.187C267.805 345.62 269.247 347.347 270.565 349.19C268.385 349.21 266.465 349.392 264.3 349.587C262.842 344.027 261.83 339.402 261.707 333.645C273.597 340.245 277.16 322.357 267.527 319.65C264.825 318.887 263.092 320.885 261.12 322.277C260.89 319.527 261.317 311.592 260.547 309.855L259.715 309.665C262.325 308.862 259.647 308.605 261.71 306.065C262.612 306.677 263.022 306.805 264.145 306.567C266.987 305.962 274.597 305.192 276.305 302.897C276.527 301.89 276.55 302.372 276.24 301.397L276.977 300.175C276.597 298.832 276.63 298.302 275.28 297.715L274.992 298.285L274.59 298.24C274.142 297.455 273.98 297.192 273.227 296.69Z" fill="#FD9E2D"/>
<path d="M273.228 296.69C274.215 295.347 274.868 294.16 276.133 293.055C280.458 289.282 284.44 292.242 287.233 295.96C287.26 297.235 287.315 298.522 287.253 299.792C290.37 298.33 295.01 296.627 298.575 297.355C299.29 297.5 299.548 298.082 299.81 298.717C299.153 298.967 297.708 299.115 296.9 299.34C293.825 300.205 290.798 301.135 287.703 301.922C286.485 301.125 285.335 300.897 284.6 299.877C284.38 298.917 284.57 298.465 284.788 297.505C281.408 297.827 279.945 298.462 276.978 300.175C276.598 298.832 276.63 298.302 275.28 297.715L274.993 298.285L274.59 298.24C274.143 297.455 273.98 297.192 273.228 296.69Z" fill="black"/>
<path d="M281.05 292.53C282.815 293.952 284.79 295.055 284.787 297.505C281.407 297.827 279.945 298.462 276.977 300.175C276.597 298.832 276.63 298.302 275.28 297.715C274.952 294.845 278.927 293.4 281.05 292.53Z" fill="#FFDE7E"/>
<path d="M298.585 182.459C299.752 183.833 300.032 183.967 301.655 184.923C300.78 185.145 301.127 184.927 300.535 185.539C299.77 184.81 298.805 184.09 297.967 183.426L298.585 182.459Z" fill="#F1EFED"/>
<path d="M295.018 337.135C295.863 337.377 296.495 337.407 297.038 337.967C296.62 338.497 295.83 338.64 295.15 338.855L295.018 337.135Z" fill="#FA8F24"/>
<path d="M316.083 156.351C322.945 156.458 327.15 159.749 333.073 161.76L333.418 161.876C334.933 164.923 339.273 169.682 340.068 172.155C342.233 178.898 341.66 189.819 338.938 196.091L332.878 191.618C330.528 190.051 327.268 187.981 325.098 186.274C320.785 182.884 319.575 181.337 314.715 178.901C314.743 176.717 314.76 175.905 314.385 173.758C312.835 172.135 311.688 171.977 309.583 171.307C308.13 169.46 315.093 163.723 304.04 158.621C308.805 157.435 311.075 156.633 316.083 156.351Z" fill="#FD9E2D"/>
<path d="M331.167 192.99C333.41 194.305 337.34 197.762 339.647 199.414C343.64 202.272 353.945 208.422 355.672 213.025L355.61 213.193L355.502 213.473C355.015 214.768 355.002 214.998 354.06 216.063C349.467 218.437 345.96 217.466 341.332 216.234C341.345 215.364 341.397 213.772 341.21 212.974C340.38 209.449 331.195 195.241 331.167 192.99Z" fill="#FD9E2D"/>
<path d="M291.88 166.741C294.052 166.554 299.062 167.066 299.135 169.91L298.93 170.123C296.54 169.728 295.38 166.903 292.012 167.956C290.81 169.038 288.842 170.703 288.65 172.307C288.57 172.985 288.492 173.821 288.165 174.364C287.35 170.966 289.117 168.468 291.88 166.741Z" fill="#BFBFBF"/>
<path d="M56.2894 170.555C57.1234 168.933 58.5859 165.818 59.7842 164.658C67.5912 157.103 84.7352 159.563 87.5854 171.076C87.9502 172.55 87.9904 173.725 88.0482 175.207C97.1567 169.575 110.028 169.929 119.745 173.708C121.925 172.801 123.46 172.337 125.882 172.456C129.4 172.632 132.702 174.205 135.056 176.825C136.994 179.024 140.624 185.365 137.701 187.909C135.753 187.753 136.73 184.351 136.191 182.899C133.729 176.277 127.91 174.386 121.526 174.575C126.913 177.213 130.659 181.887 133.803 186.863C134.551 188.047 136.281 191.181 134.623 192.153C132.37 191.199 128.212 181.717 124.055 180.668C119.624 179.551 119.918 188.579 119.095 191.475C117.04 198.699 113.986 199.922 107.907 203.37C107.56 205.05 107.303 209.016 105.875 209.801C102.028 211.544 99.2734 206.29 95.3804 206.035C91.1207 205.756 88.5299 208.943 88.1377 212.915C87.5222 219.149 96.6529 226.807 101.857 221.539C102.828 222.484 103.337 222.744 103.252 224.128C102.485 225.208 101.271 225.373 100.001 225.639C99.7634 226.768 99.5372 227.9 99.3229 229.034L96.9744 230.339C95.7524 236.498 94.8642 239.031 91.9607 244.464C90.8277 244.318 88.7707 244.482 87.5494 244.542C87.4569 249.322 89.1534 253.965 92.3062 257.557C95.9122 261.667 101.954 264.645 107.5 264.462C109.872 264.385 112.823 263.652 115.152 263.88C113.308 266.025 111.181 267.112 108.474 267.272C101.014 267.707 96.8734 264.742 92.5517 259.077C91.8389 258.145 89.9224 257.522 89.0174 256.745C87.1804 254.332 85.3687 248.983 85.2077 246.067C85.1847 245.636 85.1689 245.205 85.1599 244.773C77.5452 245.518 69.1619 246.039 62.1522 249.476C57.8217 251.6 52.4164 256.062 49.1989 259.707C47.4479 261.692 45.9972 264.317 44.4249 266.455C43.1904 268.285 41.2882 270.49 40.3582 272.435C38.1747 277.002 35.9509 281.595 33.7584 286.157C33.2032 287.312 31.1557 291.675 30.4929 292.51C29.4047 288.65 31.4217 288.105 32.7032 285.05C33.3009 283.625 33.3447 281.085 34.1887 279.485C36.5514 275.002 38.8294 270.455 41.3579 266.067C44.3547 261.64 50.7239 253.75 55.0224 250.762C62.4057 245.629 72.9747 243 81.8519 242.622C84.8564 242.517 87.5042 242.002 90.5854 242.491C91.6854 240.203 94.8219 233.677 94.2234 231.526C92.7079 230.363 91.2112 233.025 89.1799 232.353L89.2607 232.072C90.1522 231.717 90.7174 231.484 91.5589 231.028L91.6192 230.675C90.3614 229.776 88.4267 229.425 86.9784 228.79C75.4174 223.725 70.3364 212.99 72.1259 200.726C69.8332 203.129 68.5972 204.159 65.4799 205.476C61.5604 207.133 55.1882 204.936 53.8114 200.723L54.0177 200.399C54.9687 200.374 57.8517 202.703 59.9109 203.058C62.2532 203.463 62.7174 203.45 65.1962 203.306C62.0472 202.475 58.9269 201.762 56.5219 199.231C56.2614 199 55.2989 197.319 55.0477 197.261C52.9399 196.744 51.1022 197.469 49.0334 196.395C39.7472 191.574 39.9982 180.735 47.2144 174.085C50.1617 171.369 52.2859 170.518 56.2894 170.555Z" fill="black"/>
<path d="M53.9855 172.974L54.3323 173.275C53.9 174.21 50.404 176.409 49.1195 179.612C47.6315 183.322 47.3363 187.526 49.0688 191.299C49.5575 192.363 50.899 193.423 51.3848 194.713C50.767 194.898 50.5995 194.617 49.814 194.229C47.9463 192.51 46.3875 190.907 45.3673 188.544C42.554 182.029 48.1245 175.318 53.9855 172.974Z" fill="white"/>
<path d="M118.287 181.904C118.694 182.968 117.818 184.471 117.72 185.765C117.296 191.399 116.487 194.148 112.226 198.024L112.136 197.697C112.528 196.354 114.242 194.841 114.951 192.442C116.327 187.781 115.428 186.067 118.287 181.904Z" fill="#F1EFED"/>
<path d="M84.3611 186.292C87.2636 186.67 89.9076 186.979 92.8306 187.087C94.2771 187.141 101.002 186.989 101.922 187.574L101.941 188.268C97.8766 188.949 87.4053 188.801 84.3611 186.292Z" fill="#D6D5D7"/>
<path d="M63.8071 170.123C70.2621 169.485 74.2156 171.801 76.2408 177.868C74.7341 176.151 74.5731 175.476 72.6393 173.768C69.6816 171.72 66.0121 170.273 62.3268 170.9C60.7263 171.172 60.2841 171.963 58.4238 171.331L58.4533 171.022C60.1588 170.15 62.1493 170.638 63.8071 170.123Z" fill="#F1EFED"/>
<path d="M76.3291 183.968C78.8628 180.088 81.7426 178.295 86.1978 176.83C84.0618 178.842 81.5073 180.333 79.6943 182.601C79.3321 183.054 77.9836 185.334 77.7083 185.574C76.7838 185.845 77.2883 186.105 76.4463 186.037C76.1131 185.407 76.2853 184.781 76.3291 183.968Z" fill="#F8E7CF"/>
<path d="M72.7825 195.947C72.5672 190.942 73.268 188.049 76.329 183.969C76.2852 184.781 76.113 185.408 76.4462 186.037C77.2882 186.106 76.7837 185.845 77.7082 185.575C75.766 189.667 74.4102 191.311 72.7825 195.947Z" fill="#FFDE7E"/>
<path d="M97.9009 179.345C100.918 178.791 104.293 179.31 107.133 180.421C105.445 180.627 102.242 180.406 100.426 180.346C97.2151 180.492 94.1816 181.028 90.8694 181.109C93.6521 179.935 94.8754 179.733 97.9009 179.345Z" fill="#F1EFED"/>
<path d="M60.2759 102.916C60.4434 102.655 60.6144 102.396 60.7886 102.139C62.3586 99.8112 65.4071 96.8575 68.3546 96.6522C84.4679 95.53 100.679 94.346 116.834 94.1022C118.689 94.0742 122.661 94.541 122.974 96.8967C122.448 97.6657 122.276 97.5122 121.218 97.834C121.154 99.5745 121.972 102.296 122.901 103.648C124.949 107.237 123.665 125.357 124.682 130.125C124.886 131.082 124.845 133.432 124.721 134.456C123.878 137.621 119.427 138.312 116.968 137.098L116.758 137.305C117.453 138.975 117.925 146.141 116.184 147.201C115.362 146.89 115.637 147.034 115.089 146.089C112.883 143.473 110.181 139.025 106.086 138.2C104.163 138.802 102.556 139.03 100.548 139.182C89.7309 140.004 78.8861 140.998 68.0448 141.377C65.5136 141.586 62.1416 140.043 61.8201 137.21C60.5881 126.362 59.9701 113.782 60.2759 102.916Z" fill="#FD9E2D"/>
<path d="M60.2759 102.916C60.4434 102.655 60.6144 102.396 60.7886 102.139C62.3586 99.8112 65.4071 96.8575 68.3546 96.6522C84.4679 95.53 100.679 94.346 116.834 94.1022C118.689 94.0742 122.661 94.541 122.974 96.8967C122.448 97.6657 122.276 97.5122 121.218 97.834C117.69 96.5977 103.935 97.5652 99.2461 97.6867C94.9371 97.7655 90.6274 97.8127 86.3176 97.828C84.2789 97.8127 79.8119 97.8845 77.8751 98.2947C74.9176 98.6137 68.6516 99.3975 65.9856 98.5092C64.8088 98.949 63.9699 100.544 63.4874 101.672C62.3356 104.363 63.6079 134.182 64.8971 137.463C65.7929 138.4 67.3546 138.488 68.5871 138.516C73.7009 138.631 103.739 135.463 105.621 137.492C105.814 137.7 105.947 137.956 106.086 138.2C104.163 138.802 102.556 139.03 100.548 139.182C89.7309 140.004 78.8861 140.998 68.0448 141.377C65.5136 141.586 62.1416 140.043 61.8201 137.21C60.5881 126.362 59.9701 113.782 60.2759 102.916Z" fill="black"/>
<path d="M122.701 104.558L122.901 103.648C124.949 107.237 123.665 125.357 124.682 130.125C124.886 131.082 124.845 133.432 124.721 134.456C123.878 137.621 119.427 138.312 116.968 137.098C117.465 136.57 121.074 134.624 122.355 133.621C122.053 130.326 122.136 126.147 122.13 122.815C122.122 118.517 122.07 113.728 122.386 109.465L122.701 104.558Z" fill="black"/>
<path d="M116.758 137.305C117.453 138.975 117.925 146.141 116.184 147.201C115.362 146.89 115.637 147.034 115.089 146.089C115.428 143.766 114.78 140.811 115.452 138.49C115.68 137.705 116.118 137.628 116.758 137.305Z" fill="black"/>
<path d="M77.875 98.2943C79.8118 97.884 84.2787 97.8123 86.3175 97.8275C85.3567 98.4513 84.7458 98.376 83.62 98.4108L84.6332 98.5638C82.0985 100.297 80.2887 99.7253 77.875 98.2943Z" fill="#F4AE6A"/>
<path d="M92.281 114.232C97.1588 114.42 98.0335 119.082 93.435 121.734C88.4753 121.852 87.8415 116.992 92.281 114.232Z" fill="white"/>
<path d="M78.5325 114.744C83.1717 115.605 83.8772 119.861 79.4545 122.174C74.448 122.225 74.2355 117.389 78.5325 114.744Z" fill="white"/>
<path d="M106.573 113.506C110.807 113.383 111.79 118.21 107.5 120.868C102.713 120.437 102.136 115.908 106.573 113.506Z" fill="white"/>
<path d="M201.326 70.2824C201.821 66.7069 203.555 62.8474 204.216 59.1952C204.597 57.0892 205.732 49.7557 207.226 48.4827C210.818 48.0269 214.448 67.0467 214.632 70.2804C220.12 70.3234 225.601 70.3839 231.09 70.2857C233.379 70.2447 237.625 69.6177 237.467 72.9909C236.647 73.9977 222.024 83.0174 220.408 83.6692C222.951 88.8762 224.298 94.7112 226.733 99.9889C226.969 100.502 226.938 101.207 226.822 101.758C224.301 105.309 212.149 93.6232 208.53 92.0197C204.477 94.0522 200.274 98.4849 195.364 100.903C193.978 101.897 192.797 103.106 191.253 101.772C190.741 100.227 191.246 99.2874 191.792 97.7717C192.901 94.3739 195.096 86.6109 196.259 83.9229L196.378 83.6422C194.256 82.4589 179.864 73.7654 179.276 72.6142C179.325 72.0497 179.289 71.8974 179.736 71.4979C181.83 69.6267 197.75 70.1192 201.326 70.2824Z" fill="#FEC22A"/>
<path d="M195.363 100.904C193.977 101.898 192.797 103.106 191.253 101.772C190.741 100.228 191.246 99.2877 191.792 97.772L192.052 97.9567C193.69 99.1102 193.941 99.5015 195.363 100.904Z" fill="#FFDE7E"/>
<path d="M141.546 130.716C143.895 131.818 146.389 132.065 148.942 132.594C149.137 134.333 149.907 143.256 147.641 143.453C147.413 143.106 147.182 142.76 146.948 142.417C145.517 142.954 146.419 143.797 143.67 144.488C142.42 144.569 137.495 144.041 135.991 143.916L135.773 143.53C135.833 141.936 136.322 140.415 136.989 138.978C133.376 131.807 139.024 133.868 141.546 130.716Z" fill="black"/>
<path d="M143.193 133.534C147.825 135.304 146.774 137.254 145.806 141.323C144.005 141.681 143.219 141.771 141.384 141.843C139.503 140.978 139.183 140.487 137.991 138.88C138.339 137.675 138.633 136.271 138.92 135.036C140.335 134.39 141.715 133.994 143.193 133.534Z" fill="#FEC22A"/>
<path d="M201.361 297.953C204.681 298.333 202.699 301.885 201.698 303.458C204.11 305.11 206.392 308.255 209.652 307.783C217.362 306.665 216.032 312.6 210.747 315.208C208.814 314.1 206.819 312.12 205.138 310.595C203.445 309.11 202.547 308.448 200.619 307.298C200.3 309.503 198.609 314.5 195.67 312.608C194.224 310.08 196.543 307.328 197.968 305.305C197.167 305.328 196.261 305.323 195.469 305.33C193.455 305.353 193.831 301.13 195.069 300.405C195.94 299.895 197.284 300.355 198.241 300.573C198.815 300.425 200.156 298.773 201.361 297.953Z" fill="#FD9E2D"/>
<path d="M224.414 281.607C225.994 279.652 229.179 276.485 231.906 277.842C233.369 279.91 230.61 282.007 228.951 282.975C228.705 283.117 228.456 283.255 228.204 283.385C229.349 285.11 231.639 287.402 231.376 289.04C230.048 290.747 228.377 289.95 226.928 288.8C225.454 287.63 225.108 286.335 224.498 284.647C223.334 286.525 221.748 289.612 219.529 290.237C217.978 290.677 216.949 289.597 215.852 288.712L215.711 288.597L218.931 285.22L218.755 284.51C212.519 284.077 214.011 277.362 218.207 278.567C219.621 278.972 222.84 280.872 224.414 281.607Z" fill="#FD9E2D"/>
<path d="M218.755 284.51C219.744 284.15 220.394 283.792 221.414 283.945L221.621 284.237C220.742 285.255 220.092 284.895 218.931 285.22L218.755 284.51Z" fill="#FFDE7E"/>
<path d="M333.015 281.422C333.855 281.465 333.85 281.46 334.642 281.73C335.522 282.765 343.665 312.102 344.532 315.032C347.975 313.527 358.747 309.05 361.577 312.727C361.635 313.6 361.757 313.237 361.322 313.885C360.275 314.072 356.935 313.637 354.892 313.805C350.017 314.567 342.7 319.037 337.917 319.315L337.655 319.045C338.305 317.67 340.755 316.717 342.247 315.935C341.827 314.797 341.51 313.46 341.227 312.265C338.952 302.66 335.452 293.392 332.905 283.867C332.665 282.967 332.737 282.295 333.015 281.422Z" fill="black"/>
<path d="M295.102 238.88C296.402 239.863 295.315 244.439 296.662 247.014C298.082 249.707 300.557 251.688 303.497 252.483C309.192 254.063 317.457 249.644 321.402 245.656C323.14 243.901 325.007 239.816 327.025 238.679L327.52 238.917C328.012 240.541 327.69 240.735 326.845 242.158C322.1 249.853 313.097 256.453 303.637 254.858C296.887 253.72 292.417 247.782 293.51 240.993C293.707 239.766 294.17 239.47 295.102 238.88Z" fill="black"/>
<path d="M291.108 105.931C291.923 105.887 292.283 106.248 292.833 106.736C293.175 107.039 293.62 108.071 293.428 108.441C291.145 112.808 284.145 123.526 280.863 126.693C280.198 126.305 277.633 124.838 278.23 123.857C281.148 119.055 286.983 109.34 291.108 105.931Z" fill="#FD9E2D"/>
<path d="M296.05 208.718C296.88 208.925 297.332 209.283 297.815 209.949C298.687 213.303 293.825 217.705 291.155 219.23C289.11 219.336 288.277 219.555 286.535 218.458C286.04 217.812 284.015 213.167 283.667 212.268C284.04 211.59 285.222 211.596 285.975 211.589C289.745 211.55 292.612 210.149 296.05 208.718Z" fill="black"/>
<path d="M293.962 212.243L294.15 212.567C293.882 214.801 291.417 216.942 288.927 216.516C288.202 215.723 288.172 215.787 288.062 214.89C288.707 213.776 291.803 213.283 293.605 212.417L293.962 212.243Z" fill="#F1EFED"/>
<path d="M257.593 140.527C258.448 140.497 260.87 140.567 261.34 141.135C267.803 148.951 252.81 150.577 249.193 151.57C247.917 151.753 246.019 152.279 245 151.42L245.11 151.027C246.627 149.509 253.77 147.162 256.118 146.403L255.618 145.134C254.503 142.31 254.873 141.594 257.593 140.527Z" fill="black"/>
<path d="M257.888 142.717C259.275 142.713 260.223 142.77 260.473 144.331C260.12 145.251 260.023 145.269 259.205 145.89C258.388 146.139 258.06 146.349 257.32 146.056C256.195 144.809 256.803 143.756 257.888 142.717Z" fill="#F1EFED"/>
<path d="M169.176 134.768C170.685 134.932 173.01 136.018 173.082 137.745C171.487 139.451 168.913 137.703 167.091 139.389C165.389 143.607 176.769 148.572 179.882 150.181C180.444 150.872 180.368 150.513 180.321 151.236C178.577 152.47 174.252 150.339 172.601 149.405C168.436 147.048 165.571 145.589 164.17 140.782C164.922 137.433 165.781 135.893 169.176 134.768Z" fill="black"/>
<path d="M252.13 118.164C254.63 118.503 255.82 120.44 256.717 122.513C255.627 125.47 253.08 128.575 251.047 131.027C250.602 130.302 249.723 129.014 249.765 128.092C249.843 126.405 255.215 123.463 253.11 121.704C252.287 121.823 251.79 122.263 251.085 122.734C249.717 123.663 248.572 124.506 247.282 125.52C245.908 126.601 243.465 129.212 242.054 129.818C241.338 129.608 241.296 129.49 240.826 128.927C241.081 126.463 247.627 122.344 249.468 120.689C250.46 119.796 251.02 119.105 252.13 118.164Z" fill="black"/>
<path d="M149.339 107.405C149.957 107.396 150.524 107.372 151.009 107.809C152.729 109.357 158.971 118.761 159.193 120.452C158.782 121.25 158.049 121.492 157.216 121.935C156.859 121.956 156.56 121.911 156.198 121.88C155.355 121.101 154.41 118.888 153.548 117.534C152.148 115.335 148.466 112.399 147.69 110.152C147.402 109.316 148.726 108.058 149.339 107.405Z" fill="#FD9E2D"/>
<path d="M300.535 185.539C301.272 186.687 301.927 188.297 301.465 189.658C300.407 190.525 298.14 187.73 296.49 186.751C294.432 185.531 289.942 187.47 290.275 184.638C291.862 182.088 295.557 182.44 297.967 183.426C298.805 184.09 299.77 184.81 300.535 185.539Z" fill="black"/>
<path d="M190.311 121.481C190.981 121.442 191.235 121.468 191.882 121.533C193.587 122.422 195.567 130.592 197.291 132.526C197.516 132.779 197.432 132.817 197.445 133.239L196.775 133.86L195.36 134.243C194.541 133.793 190.933 125.47 190.155 123.923C189.585 122.791 189.677 122.421 190.311 121.481Z" fill="black"/>
<path d="M124.186 218.426C125.754 218.424 127.355 220.047 129.117 220.596C130.618 221.063 134.642 220.707 135.557 221.476L135.353 221.954C134.406 222.54 133.171 222.628 132.037 222.816C130.853 222.646 130.048 222.541 128.845 222.483C128.116 223.186 129.203 223.237 128.645 224.358C127.141 224.287 122.847 221.035 123.135 219.192L124.186 218.426Z" fill="black"/>
<path d="M228.94 122.608C229.454 122.874 230.981 124.08 231.528 124.494C228.724 126.888 227.412 129.315 225.471 132.411C225.081 132.829 225.067 132.787 224.516 132.979L223.934 132.682C222.723 130.498 227.485 124.359 228.94 122.608Z" fill="black"/>
<path d="M123.552 193.321C124.205 193.27 124.859 193.233 125.514 193.209C126.948 193.168 127.193 193.46 128.243 194.467L128.25 194.92C126.312 196.257 125.035 194.697 121.249 197.741C120.357 198.624 119.482 199.72 118.254 198.89C117.506 196.095 121.389 194.064 123.552 193.321Z" fill="black"/>
<path d="M182.035 167.603C182.947 167.514 182.682 167.408 183.359 167.801C183.653 168.669 183.665 168.249 183.306 169.104C181.658 170.466 176.082 171.321 173.376 172.246L172.561 172.186L172.055 171.562C171.945 169.115 180 167.799 182.035 167.603Z" fill="black"/>
<path d="M219.683 115.751C220.882 115.651 221.199 115.583 221.988 116.21C222.741 118.186 221.193 122.079 220.544 124.27C220.329 124.346 219.868 124.395 219.621 124.431C217.601 123.067 218.797 117.633 219.683 115.751Z" fill="black"/>
<path d="M292.427 191.311C295.76 192.389 294.013 196.614 292.7 198.614C289.223 196.834 291.072 193.917 292.427 191.311Z" fill="black"/>
<path d="M126.462 201.475C129.287 202.318 129.041 206.78 127.561 208.543C124.888 207.84 124.978 203.251 126.462 201.475Z" fill="black"/>
<path d="M94.416 210.502C94.7605 210.481 95.736 210.423 96.0198 210.525C97.546 211.074 100.897 213.859 100.165 215.624L99.3425 215.892C98.1612 215.019 97.1543 213.673 96.208 212.523C95.2603 212.55 93.7633 212.773 93.1458 212.017C93.3648 211.225 93.7393 211.053 94.416 210.502Z" fill="black"/>
<path d="M322.465 200.262C323.862 200.255 324.142 200.366 325.34 201.099L325.44 201.569C323.522 203.892 323.322 199.739 320.205 205.276C320.022 205.824 320.03 205.782 319.57 206.142L318.997 206.041L318.677 205.484C318.507 203.041 320.45 201.271 322.465 200.262Z" fill="black"/>
<path d="M239.57 167.724C240.476 167.745 241.373 167.906 242.23 168.202C243.984 168.81 245.405 169.606 244.636 171.626C242.8 170.999 239.964 170.78 239.056 169.366C238.982 168.549 239.109 168.465 239.57 167.724Z" fill="black"/>
</g>
<defs>
<clipPath id="clip0_442_777">
<rect width="400" height="400" fill="white"/>
</clipPath>
</defs>
</svg>
