<svg width="400" height="400" viewBox="0 0 400 400" fill="none" xmlns="http://www.w3.org/2000/svg">
<g clip-path="url(#clip0_442_688)">
<path d="M0 0H400V160.197V164.375V168.221V181.25V183.863V186.712V251.613V254.965V312.272V314.763V351.625V354.375V400H0V245.024V232.74V96.437V91.9918V62.79V59.3997V0Z" fill="#FFFEFF"/>
<path d="M0 62.79C7.56845 71.772 6.233 82.7235 0 91.9918V62.79Z" fill="#FFFEFF"/>
<path d="M134.073 84.4563C134.296 85.3768 134.094 85.099 134.75 85.6568C136.449 85.6418 141.84 83.9983 143.822 83.425C152.688 80.8615 159.603 79.2122 168.798 82.1257C179.034 85.3695 184.165 93.438 184.511 104.013C184.61 107.062 183.883 113.515 182.224 116.226C182.132 116.339 181.711 116.672 181.561 116.79C182.349 118.031 183.128 119.291 183.983 120.485C191.748 118.255 196.003 117.625 204.159 118.576C205.739 118.76 208.708 118.014 210.419 118.086C216.964 117.858 224.8 120.488 229.593 125.024C232.392 127.674 235.948 131.845 238.134 135.001C241.23 139.473 241.743 146.78 239.116 151.559C238.413 152.859 236.04 154.942 234.863 156.032L233.78 152.642C232.951 152.273 232.385 152.98 231.871 152.982C230.796 152.985 229.373 151.375 228.247 151.409C226.483 151.464 224.008 153.008 222.63 151.931C222.602 151.252 222.729 150.883 223.207 150.382C226.672 146.753 230.507 148.994 233.706 151.077C228.883 138.607 229.753 135.48 215.416 132.538C214.56 131.524 213.668 130.503 212.872 129.444C213.084 130.238 213.605 131.783 213.462 132.503C206.692 134.173 201.188 134.644 201.335 143.568C201.452 150.692 196.577 153.961 190.556 156.32C189.605 161.169 189.947 164.903 184.821 166.902L184.617 166.693C182.28 164.283 179.447 159.453 175.858 160.056C163.43 162.144 168.07 180.624 178.687 181.567C179.469 181.636 180.948 181.064 181.782 180.942C182.956 180.689 183.733 180.276 184.742 181.216C186.202 182.577 187.415 185.404 187.471 187.365C186.744 188.903 186.078 188.4 184.601 188.576C184 193.937 182.438 206.746 178.818 210.659C185.715 218.412 195.576 223.796 201.987 232.283C202.765 233.312 203.874 234.122 204.868 234.931C206.136 233.025 214.033 219.189 213.761 217.593C212.809 216.952 212.287 217.943 210.971 217.314C209.42 215.597 210.937 208.514 211.391 206.187C208.128 205.674 197.795 200.967 197.321 197.381L197.522 196.793C198.333 196.633 201.861 198.659 202.985 199.169C208.41 201.631 217.28 202.974 222.832 200.008C231.107 195.586 235.734 182.779 235.525 173.77C235.477 171.724 234.396 165.332 235.314 164.073C238.352 164.027 238.31 172.069 238.293 174.008C238.198 184.949 234.312 192.785 227.129 200.761C228.576 202.39 229.249 202.781 229.303 204.908C229.324 205.758 229.306 205.803 229.776 206.475L230.202 206.509L230.422 206.251C231.07 205.81 231.558 205.557 232.355 205.729C234.097 206.104 235.87 208.432 236.72 209.908C237.631 211.488 238.235 213.311 238.284 215.143C238.302 215.802 237.74 218.994 237.856 219.199C238.231 219.864 241.448 221.082 242.258 221.583C244.542 222.998 246.667 224.801 248.622 226.641C257.517 235.017 261.515 245.685 266.137 256.63C267.962 260.95 270.025 265.303 271.557 269.73C281.24 259.248 292.12 255.125 305.25 250.52C307.402 249.766 314.117 246.88 315.802 247.925C316.455 249.015 316.575 250.248 316.817 251.52C318.47 252.565 320.027 253.525 321.342 254.995C322.715 254.487 324.857 253.415 326.312 254.12C326.867 254.39 327.147 254.852 327.245 255.45C327.58 257.497 315.182 286.832 315.567 288.77C315.605 288.962 315.892 289.29 316.037 289.418C318.032 291.15 320.03 291.027 320.587 294.215C321.325 298.417 319.407 298.205 319.025 300.83C318.562 304.035 320.522 305.25 318.127 308.552C317.587 309.295 316.787 310.115 316.427 310.955C315.905 312.185 316.297 313.76 315.77 315.01C315.11 316.573 313.552 317.225 312.592 318.503C312 319.288 312.085 320.802 311.722 321.745C310.497 324.932 305.722 326.855 302.622 327.277C301.96 327.367 301.282 327.385 300.615 327.408L300.53 327.41C298.535 333.378 298.767 334.84 292.752 337.707C282.615 342.535 272.302 347.12 262.207 352.005C259.525 353.303 256.282 355.265 253.597 356.695C251.177 358.233 248.829 360.69 245.996 361.448C243.489 362.118 238.583 362.11 236.144 361.045C232.483 359.45 230.469 358.592 226.463 357.812L225.959 357.957C224.747 359.53 224.337 359.097 222.495 359.365C221.32 359.535 220.106 359.627 218.925 359.75C203.308 361.51 187.572 361.987 171.876 361.177C165.73 360.865 159.593 360.413 153.468 359.818C150.724 359.545 145.155 359.448 143.33 357.445C127.668 362.398 102.788 364.565 87.5427 356.865C81.1972 353.657 73.6342 346.29 71.5735 339.247C66.6202 322.32 74.4762 306.195 82.0032 291.605L91.4637 273.47C88.9855 270.373 84.8045 263.86 82.6805 260.337C78.536 261.872 73.5312 261.878 69.5025 259.908C65.3177 257.863 64.1865 255.38 62.7192 251.242C65.0377 250.2 67.739 248.524 69.199 246.336C74.766 237.993 66.5865 232.319 65.628 224.742C63.5527 208.335 76.1365 200.036 89.5395 194.779C91.6557 193.948 97.9272 192.943 98.7782 191.788C98.7532 190.918 98.697 190.875 98.263 190.09C97.3902 189.611 96.7027 189.687 95.741 189.796C87.1435 190.785 77.3135 192.335 70.3815 197.877C63.7712 203.161 58.2407 210.396 60.093 219.311C60.838 222.897 62.5542 224.043 64.8347 226.712C63.335 227.583 62.874 227.763 61.2232 228.326C58.8092 224.479 57.2257 220.909 56.9437 216.276C56.5742 210.987 58.351 205.772 61.8732 201.81C73.0542 189.244 83.4942 188.452 99.343 187.438C100.131 185.113 101.276 183.713 102.889 181.937C109.537 174.616 118.453 176.718 125.782 170.234C131.392 165.271 133.181 154.665 133.59 147.427L133.467 147.21C131.226 146.171 116.24 152.914 112.514 153.169C109.865 153.351 110.481 153.621 107.353 153.043C107.061 152.802 106.772 152.558 106.486 152.311C102.556 148.904 100.498 143.09 99.9735 137.998C99.0697 129.233 104.907 115.577 110.746 108.924C112.59 110.445 116.732 113.262 118.363 110.305C122.424 102.944 126.698 95.693 130.949 88.4365C131.735 87.095 133.042 85.6265 134.073 84.4563Z" fill="black"/>
<path d="M123.098 232.845C128.298 226.404 138.575 220.016 146.772 218.722C153.882 217.6 168.198 231.337 175.214 234.928C182.154 238.48 183.77 238.748 191.275 240.66L191.529 252.97C191.56 254.955 191.509 258.175 191.701 260.03C190.092 260.617 190.05 263.51 190.418 264.922L191.67 266.437C192.813 267.01 194.391 268.395 194.289 269.782C194.27 270.04 194.336 270.207 194.416 270.445C194.271 271.492 192.861 275.962 192.474 277.265C190.924 282.625 189.271 287.952 187.516 293.25C175.465 297.102 166.966 304.777 158.382 313.545C157.286 312.272 156.76 311.807 155.342 310.975C153.654 310.967 147.173 311.302 146.241 311.11C141.521 310.14 139.274 309.272 134.216 308.942C138.689 299.162 142.12 288.595 147.762 279.342C148.741 277.737 151.631 274.285 151.627 272.657L151.137 272.262C147.701 272.022 143.433 280.462 142.467 283.24C139.401 292.062 134.201 300.292 130.609 308.755C127.003 308.702 123.397 308.812 119.801 309.085C114.188 309.517 104.74 311.152 100.875 315.652C100.057 316.605 98.3998 318.792 98.5253 320.105C98.6916 320.24 98.9353 320.547 99.1171 320.352C106.463 312.485 117.057 311.092 127.428 311.4C131.744 311.527 140.14 311.277 143.856 314.4C146.534 313.852 150.677 313.565 153.421 313.427C151.776 314.215 150.491 314.76 149.321 316.202C145.764 320.592 144.851 328.26 145.483 333.677C146.56 342.92 148.611 344.832 155.143 350.255C153.293 350.875 150.145 351.32 148.55 352.042C137.281 357.38 126.885 358.357 114.67 358.84C94.0748 359.65 71.8006 351.057 72.7376 326.675C72.9598 321.615 73.9536 316.622 75.6843 311.865C78.4651 304.055 82.7261 296.037 86.4878 288.655C89.7936 282.167 93.1663 275.585 97.3193 269.602C98.9483 267.257 100.176 264.492 101.756 262.095C106.465 254.807 110.79 247.243 116.389 240.581C118.065 238.587 119.506 236.448 121.429 234.669L123.098 232.845Z" fill="#B95CDC"/>
<path d="M137.238 238.738C139.105 238.529 140.373 241.2 141.45 242.568C146.435 248.896 148.596 256.247 148.468 264.257C147.388 264.24 147.385 264.42 146.661 263.915C146.043 261.705 146.003 258.972 145.523 256.652C144.854 253.42 143.479 249.883 142.376 246.824C141.442 244.234 137.309 240.453 137.238 238.738Z" fill="black"/>
<path d="M129.52 234.567C131.603 234.892 135.246 236.494 136.906 237.808C137.127 238.282 137.16 238.24 137.238 238.738C135.299 238.725 131.151 235.846 129.081 235.429C128.025 235.216 125.678 235.26 124.476 235.217C126.051 235.012 128.413 235.324 129.52 234.567Z" fill="#D982F5"/>
<path d="M123.097 232.845C125.365 233.642 127.516 233.65 129.519 234.567C128.413 235.324 126.051 235.012 124.476 235.217C123.425 235.199 122.36 235.16 121.429 234.669L123.097 232.845Z" fill="#EFDFF9"/>
<path d="M94.3333 348.44C95.272 348.872 97.6883 349.297 98.7973 349.587C106.682 351.657 114.381 351.862 122.456 352.417C123.458 352.487 128.577 352.717 129.218 353.042C129.474 353.845 129.207 354.695 128.717 355.332C127.942 355.605 120.358 355.357 118.866 355.362C115.341 356.337 97.1938 356.11 96.5185 351.81C96.698 351.832 97.6305 352.127 97.8643 352.195C98.3658 349.667 98.7255 351.037 99.0003 350.06C98.7728 349.945 98.5393 349.84 98.3008 349.747C97.67 349.5 95.5408 348.89 94.918 349.162C93.8638 350.987 94.3443 353.077 93.9193 354.68C93.7778 352.97 94.2088 350.332 94.3333 348.44Z" fill="#DFAFF3"/>
<path d="M142.138 348.775C139.246 346.435 137.716 344.183 136.769 340.543C136.315 338.8 135.01 334.843 137.589 334.228C139.045 335.49 138.545 339.213 139.493 341.463C140.548 343.968 141.686 346.073 142.93 348.46L142.138 348.775Z" fill="black"/>
<path d="M138.51 324.795L138.635 325.207C137.365 328.647 138.704 331.295 137.425 333.432L136.594 333.617C134.721 331.402 136.717 326.787 138.238 324.817L138.51 324.795Z" fill="black"/>
<path d="M138.801 322.28C138.47 320.298 140.208 315.773 142.685 316.46L142.903 317.083C142.714 318.64 141.663 319.813 140.687 321.003L138.801 322.28Z" fill="black"/>
<path d="M138.801 322.28L140.687 321.002C141.453 322.867 140.185 324.17 138.509 324.795L138.238 324.817C138.06 324.755 137.783 324.575 137.607 324.472C137.602 323.402 138.306 323.33 138.801 322.28Z" fill="#DFAFF3"/>
<path d="M142.93 348.46C143.805 349.397 144.655 350.36 145.48 351.342C144.021 350.447 143.366 350.002 142.138 348.775L142.93 348.46Z" fill="#13021A"/>
<path d="M134.073 84.4563C134.296 85.3768 134.094 85.099 134.75 85.6568C136.449 85.6418 141.84 83.9983 143.822 83.425C152.688 80.8615 159.603 79.2122 168.798 82.1257C179.034 85.3695 184.165 93.438 184.511 104.013C184.61 107.062 183.883 113.515 182.224 116.226C182.132 116.339 181.711 116.672 181.561 116.79C172.323 106.46 159.696 106.77 148.31 114.047C139.809 119.48 135.56 130.07 134.334 139.957C134.183 141.179 133.89 146.534 133.59 147.427L133.467 147.21C131.226 146.171 116.24 152.914 112.514 153.169C109.865 153.351 110.481 153.621 107.353 153.043C107.061 152.802 106.772 152.558 106.486 152.311C102.556 148.904 100.498 143.09 99.9734 137.998C99.0696 129.233 104.907 115.577 110.746 108.924C112.59 110.445 116.732 113.262 118.363 110.305C122.424 102.944 126.698 95.693 130.949 88.4365C131.735 87.095 133.042 85.6265 134.073 84.4563Z" fill="#EFDFF9"/>
<path d="M178.451 188.929C179.664 189.355 180.562 189.3 181.844 189.327C181.229 191.931 181.061 194.702 180.676 197.392C180.292 200.08 179.365 203.362 179.112 205.933C176.35 205.133 175.815 204.842 173.377 206.482L173.076 206.301C171.032 205.056 167.1 201.55 165.385 201.217C162.341 203.343 168.647 206.552 170.293 207.728C172.419 209.28 174.482 210.915 176.477 212.63C177.615 213.614 178.658 214.657 179.752 215.682C185.018 220.617 191.483 224.652 196.333 230.026C199.305 233.319 201.707 235.664 204.971 238.631C205.841 237.293 208.951 232.029 209.611 231.203L210.071 231.289L211.375 229.859C211.152 230.485 211.097 230.404 211.16 231.01C212.226 230.783 214.692 229.146 215.51 228.39C224.502 220.946 225.011 216.975 224.182 205.963C224.309 204.898 224.48 203.923 224.39 202.856L223.796 202.588C224.941 201.889 227.801 204.279 229.303 204.908C229.324 205.758 229.306 205.803 229.776 206.475L230.202 206.509L230.422 206.251C239.328 215.442 234.763 221.621 226.771 229.786C224.457 232.15 221.71 234.557 218.588 235.731C218.221 234.489 218.162 233.467 216.798 233.051C215.015 233.758 215.499 235.677 215.696 237.203C213.811 237.834 212.165 238.178 210.882 239.734L210.93 240.204C212.426 240.909 214.266 240.181 215.904 239.758C216.431 244.377 216.929 252.358 217.747 256.59C216.492 256.32 214.997 256.025 213.775 255.715C209.129 254.535 208.278 253.833 206.277 258.48C203.856 259.338 202.406 260.325 200.944 262.36C199.375 262.735 197.882 261.31 196.734 263.438C195.645 265.455 195.303 268.28 194.416 270.445C194.336 270.208 194.27 270.04 194.289 269.783C194.39 268.395 192.813 267.01 191.67 266.438L190.418 264.923C190.05 263.51 190.091 260.618 191.7 260.03C192.675 259.903 192.894 259.893 193.779 259.483C194.726 257.993 194.034 243.893 193.991 241.063C195.266 241.279 196.976 241.822 197.798 240.612C197.107 239.176 195.539 239.309 194.09 239.155C193.963 237.222 193.968 235.74 192.066 234.671C190.222 234.927 190.654 236.987 190.725 238.425C186.429 236.734 181.101 235.461 177.173 233.025C172.968 230.418 168.748 227.586 164.64 224.815C158.638 220.767 151.673 214.501 143.85 216.912C141.214 217.723 138.631 218.704 136.042 219.666C135.979 218.406 135.868 216.917 135.969 215.676C136.642 207.408 142.378 200.886 150.848 201.23C153.145 194.224 153.934 194.336 160.784 191.861C161.698 191.531 162.442 191.25 163.097 190.514C163.571 190.643 165.709 189.933 166.529 189.724C168.653 189.182 177.139 189.49 178.451 188.929Z" fill="#B95CDC"/>
<path d="M190.418 264.922C191.216 263.705 191.784 262.495 193.315 263.162C194.13 264.265 193.894 265.37 192.885 266.252L191.67 266.437L190.418 264.922Z" fill="#DFAFF3"/>
<path d="M156.066 199.805C158.295 197.331 161.972 194.953 165.245 194.255C166.909 193.901 173.45 192.759 174.733 193.574L174.734 194.237C170.457 196.072 161.313 194.607 158.477 200.695C156.488 204.966 165.424 208.958 166.542 210.85L169.538 212.254C170.763 212.696 172.084 213.217 172.932 214.225L173.038 214.727C172.486 215.426 172.206 215.458 171.211 215.586C171.829 216.612 172.794 217.766 173.553 218.728C172.537 218.206 169.394 216.623 168.626 215.876C165.872 213.198 164.681 211.674 161.525 209.289C159.441 207.922 157.913 206.876 156.094 205.096C155.809 202.85 155.725 202.059 156.066 199.805Z" fill="#DFAFF3"/>
<path d="M169.538 212.254C170.763 212.696 172.084 213.217 172.931 214.225L173.037 214.727C172.485 215.426 172.205 215.458 171.211 215.586C170.451 214.722 169.771 214.438 168.773 213.903C169.328 213.591 169.346 213.615 169.761 213.145L169.538 212.254Z" fill="#D982F5"/>
<path d="M162.864 343.848C169.123 345.718 172.487 344.673 178.245 345.385C181.799 346.173 185.328 347.083 188.873 347.915C198.408 350.158 208.008 352.215 217.316 355.308C220.207 356.268 223.689 356.783 226.463 357.813L225.959 357.958C224.747 359.53 224.337 359.098 222.495 359.365C221.321 359.535 220.106 359.628 218.926 359.75C203.308 361.51 187.572 361.988 171.876 361.178C165.731 360.865 159.593 360.413 153.468 359.818C150.724 359.545 145.155 359.448 143.33 357.445C145.93 356.34 149.219 355.11 151.88 354.198C158.621 351.885 160.257 350.205 162.864 343.848Z" fill="#DFAFF3"/>
<path d="M97.9779 240.573C98.7074 246.211 100.113 249.481 105.324 252.232C103.008 254.777 101.314 257.887 99.2624 260.622C96.1497 264.77 93.9562 268.948 91.4637 273.47C88.9854 270.373 84.8044 263.86 82.6804 260.337C91.2802 255.995 93.2437 251.043 94.8152 241.913C95.8189 241.468 96.9517 240.926 97.9779 240.573Z" fill="#EFDFF9"/>
<path d="M214.437 204.514C218.573 203.85 219.573 204.156 223.796 202.588L224.39 202.856C224.48 203.922 224.309 204.898 224.182 205.963C225.011 216.975 224.502 220.946 215.51 228.39C214.692 229.146 212.226 230.782 211.16 231.009C211.097 230.404 211.153 230.485 211.375 229.859L210.071 231.289L209.611 231.202C210.273 229.91 211.961 227.72 212.831 226.371C214.736 223.365 216.564 219.997 217.725 216.625C218.521 214.316 219.977 210.356 216.692 209.507C214.788 209.946 216.689 212.057 215.181 213.575C214.339 213.551 214.539 213.675 213.923 213.273C213.143 211.373 214.087 206.725 214.437 204.514Z" fill="#CC75EC"/>
<path d="M215.51 228.39C214.982 228.228 214.964 228.252 214.527 227.929C214.912 226.848 215.971 226.621 216.819 225.594C219.295 222.599 221.275 220.619 222.689 217.002C224.038 213.551 222.216 208.268 224.182 205.963C225.011 216.975 224.502 220.946 215.51 228.39Z" fill="#F8B8FF"/>
<path d="M166.484 175.671C167.388 176.979 168.632 178.633 169.737 179.828C170.348 180.647 174.284 183.392 174.474 184.156C175.303 187.493 174.911 187.081 178.451 188.929C177.139 189.49 168.653 189.182 166.529 189.724C165.709 189.933 163.571 190.643 163.097 190.514C166.016 185.105 166.661 181.6 166.484 175.671Z" fill="#FFFEFF"/>
<path d="M198.832 264.683C206.324 267.378 215.24 269.523 222.885 271.94L245.426 278.938C249.34 280.148 254.57 282.148 258.508 282.59L259.323 281.808L259.77 282.11C259.328 283.095 259.623 283.923 259.858 285.02C259.563 285.978 259.463 286.585 258.523 287.07L258.493 286.798C258.288 286.018 258.433 286.13 257.945 285.615L257.465 285.86C253.368 292.245 251.803 299.903 249.482 307.058L239.778 336.863C237.672 343.44 234.314 350.293 233.243 356.988C222.589 353.328 211.123 350.735 200.195 348.075C194.641 346.665 189.096 345.22 183.56 343.74C189.866 342.65 202.583 339.068 206.365 333.453C206.895 333.055 207.067 329.348 207.215 329.178C209.988 326.013 213.749 326.01 212.965 320.575C216.81 315.973 217.838 311.69 210.323 311.055L210.803 310.548C220.64 300.153 194.881 303.383 191.399 304.04C190.405 304.228 188.355 304.368 187.262 304.51C188.115 299.313 189.8 295.62 191.135 290.773C193.446 282.38 196.914 273.015 198.832 264.683Z" fill="#A741CB"/>
<path d="M259.322 281.808L259.77 282.11C259.327 283.095 259.622 283.923 259.857 285.02C259.562 285.978 259.462 286.585 258.522 287.07L258.492 286.798C258.57 285.503 258.517 283.913 258.507 282.59L259.322 281.808Z" fill="#DFAFF3"/>
<path d="M275.932 283.818C276.842 282.485 277.375 281.74 278.737 280.828C283.942 277.333 289.877 274.505 295.42 271.593L323.815 256.663C321.722 264.078 319.197 270.765 316.525 277.965C315.462 280.828 313.132 286.633 312.415 289.423C308.327 289.453 303.885 289.33 299.892 290.13C295.732 290.963 294.02 293.918 297.075 297.365C295.222 297.52 293.845 297.548 292.197 298.503C289.712 299.945 288.805 302.525 290.56 304.925C290.817 307.64 285.692 308.133 292.62 312.958C292.065 313.905 291.41 314.953 290.947 315.935C291.587 319.088 291.98 319.825 294.622 321.858C295.18 322.288 298.65 324.19 298.63 324.508C298.48 326.795 296.68 330.958 296.002 333.313C287.465 336.578 279.652 341.17 271.29 344.858C265.165 347.558 259.23 350.858 252.982 353.333C255.955 345.745 258.63 338.045 261 330.248C261.405 328.938 261.775 327.553 262.085 326.218C263.28 321.083 265.792 316.338 267.18 311.25C268.635 305.918 268.987 300.793 271.39 295.705C271.82 294.38 272.262 292.365 272.617 290.965C272.86 290.565 272.902 290.395 273.08 289.953C273.692 288.27 274.197 286.79 274.712 285.075L275.932 283.818Z" fill="#A741CB"/>
<path d="M275.933 283.817C277.208 285.685 275.313 288.89 274.095 290.48L273.08 289.952C273.693 288.27 274.198 286.79 274.713 285.075L275.933 283.817Z" fill="#F7F6F7"/>
<path d="M272.618 290.965C272.86 290.565 272.903 290.395 273.08 289.953L274.095 290.48C272.838 292.22 273.788 294.395 271.39 295.705C271.82 294.38 272.263 292.365 272.618 290.965Z" fill="#EFDFF9"/>
<path d="M186.354 296.54L186.575 296.61C186.586 297.443 184.637 300.723 184.278 301.915C183.995 302.86 183.766 303.645 183.533 304.665C183.234 304.685 182.935 304.71 182.636 304.738C181.265 304.87 180.926 304.945 180.028 306.045L180.113 306.495C184.693 308.913 209.224 302.685 210.605 307.115C209.097 311.963 188.182 311.545 187.431 315.205C189.644 318.41 208.416 311.915 213.157 313.855C213.695 314.533 213.569 314.2 213.513 315.19C212.079 317.835 202.514 320.775 199.276 321.598C197.423 322.068 192.151 322.87 190.927 323.88L190.871 324.565L191.292 324.93C195.859 326.313 208.661 320.655 210.509 322.123C210.094 325.338 200.434 328.628 197.809 329.613C195.187 330.558 192.774 331.088 190.103 331.83C189.537 331.985 189.615 332.143 189.37 332.693L189.586 333.185C193.088 334.815 203.364 329.963 205.089 330.468L205.13 330.965C204.29 332.563 201.42 334.048 199.701 335.148C192.195 339.948 181.68 341.713 172.902 342.343C169.596 342.58 166.226 341.648 163.144 341.608C160.63 341.575 154.585 342.918 152.27 343.775C145.84 336.27 146.224 325.67 151.84 317.808C158.513 317.06 161.043 314.24 165.771 309.895C172.49 303.72 177.948 300.095 186.354 296.54Z" fill="#FFFEFF"/>
<path d="M236.718 221.722C244.289 225.855 247.116 228.562 252.15 235.485C257.907 243.403 261.092 251.258 264.675 260.328C265.92 263.315 267.758 268.88 269.188 271.473C268.365 272.94 267.395 274.57 266.715 276.09C266.027 275.308 262.523 273.67 261.475 273.175L261.53 272.625C258.782 269.348 252.545 265.738 248.49 264.315C248.203 261.788 247.176 254.478 245.222 252.973L244.775 253.033C243.688 254.635 245.316 261.078 245.992 262.923L246.081 263.173C246.1 263.223 246.119 263.27 246.138 263.32C238.846 260.86 228.004 257.985 220.361 257.125C219.776 250.89 218.894 244.493 218.406 238.326C225.929 236.423 232.397 227.918 236.718 221.722Z" fill="#B95CDC"/>
<path d="M259.858 285.02C263.515 287.873 270.763 285.363 274.713 285.075C274.198 286.79 273.693 288.27 273.08 289.953C272.903 290.395 272.86 290.565 272.618 290.965C269.953 292.523 268.123 302.055 267.295 304.968C266.29 308.51 264.76 311.888 263.67 315.408C262.858 317.065 262.42 321.693 261.623 323.038C258.938 327.558 257.64 332.32 255.828 337.168C253.275 343.993 250.863 350.55 248.874 357.553C243.196 359.785 241.182 359.32 235.256 358.598C239.094 347.738 242.742 336.81 246.197 325.82C247.614 321.318 248.769 316.673 250.248 312.193C251.498 308.463 252.785 304.748 254.118 301.048C255.663 296.855 258.345 291.343 258.523 287.07C259.463 286.585 259.563 285.978 259.858 285.02Z" fill="#A741CB"/>
<path d="M266.715 276.09C266.955 276.245 267.41 276.667 267.665 276.475C274.513 271.335 279.628 263.992 287.75 260.507C291.355 258.96 311.83 250.067 314.223 251.147C314.518 251.91 314.48 251.887 314.343 252.72C312.63 254.19 308.765 255.145 306.275 256.365C302.225 258.345 296.525 260.725 292.695 263.142C292.375 263.345 292.253 264.52 292.213 264.91L292.475 265.385C293.825 265.66 301.97 261.035 303.928 260.145C307.235 258.642 311.885 257.187 314.788 255.292C315.378 254.915 315.948 254.507 316.495 254.075C317.483 254.812 318.348 255.502 319.438 256.085C310.103 260.742 300.893 265.03 291.88 270.327C286.565 273.452 280.493 275.825 275.458 279.5C274.56 280.097 274.233 280.822 273.868 281.792C269.973 282.477 263.618 283.352 259.77 282.11L259.323 281.807C257.848 279.725 252.59 278.495 250.108 277.692C245.27 276.102 240.402 274.602 235.509 273.19C227.789 270.882 220.146 268.365 212.501 265.83C209.716 264.905 206.697 264.247 203.802 263.315C206.545 260.762 207.645 260.795 209.705 257.307C216.314 259.095 220.364 259.567 226.938 260.907C232.186 262.027 237.382 263.387 242.507 264.98C248.859 267.01 254.085 270.765 261.475 273.175C262.523 273.67 266.028 275.307 266.715 276.09Z" fill="#FFFEFF"/>
<path d="M216.274 261.555C218.37 261.943 222.259 262.448 224.377 263.083C224.684 263.175 224.647 263.53 224.734 263.97C222.92 263.995 217.191 263.05 216.274 261.555Z" fill="black"/>
<path d="M314.522 291.597C317.627 290.907 318.745 295.97 317.515 298.01C317.167 298.582 315.642 299.917 315.737 300.532C315.965 302.01 317.335 303.465 316.867 305.16C316.255 307.302 315.045 308.142 313.335 309.32C313.62 314.117 314.227 314.307 309.537 316.52C309.457 321.187 309.395 321.107 305.347 323.277C302.74 322.417 294.675 320.672 293.902 317.557C292.06 310.122 303.93 320.12 305.46 316.672C304.727 312.925 292.73 313.97 292.055 308.2C292.34 307.75 292.487 307.602 292.835 307.21C296.24 306.317 306.14 311.485 309.165 309.177L309.227 308.637C307.352 306.455 296.25 306.17 293.215 303.462C290 295.62 310.87 303.515 313.037 299.717C310.747 297.092 300.347 298.515 297.862 294.822C297.62 291.082 311.135 292.3 314.225 291.662L314.522 291.597Z" fill="#FFFEFF"/>
<path d="M181.027 120.85C181.733 120.856 181.48 120.714 181.889 121.116C181.081 122.03 177.953 123.318 176.734 124.291C166.017 132.837 159.656 144.523 161.43 158.521C161.691 160.583 163.548 166.753 162.979 168.234C158.252 160.34 158.862 148.829 162.145 140.515C162.75 138.982 164.276 137.069 164.803 135.568C167.748 127.194 171.645 121.846 181.027 120.85Z" fill="#EFDFF9"/>
<path d="M134.248 197.714L134.623 197.901C134.369 198.767 132.907 200.054 132.264 200.787C124.833 209.261 115.296 209.25 107.033 215.221C101.88 218.943 96.8365 225.015 95.8465 231.451C95.4793 233.838 95.4728 236.603 95.1143 239.223L94.688 238.881C93.644 236.621 94.2535 230.875 94.7975 228.495C96.1763 222.464 104.542 213.744 110.164 211.086C114.395 209.087 118.594 208.105 123.242 205.541C127.684 203.091 130.451 199.922 134.248 197.714Z" fill="#FFFEFF"/>
<path d="M155.885 131.724L156.092 131.934C156.106 132.11 156.12 132.286 156.134 132.462C154.437 134.455 151.531 136.426 149.783 138.406C148.674 139.678 147.777 141.12 147.126 142.677C144.118 149.738 144.344 156.87 144.797 164.307C145.028 168.09 145.192 171.946 143.919 175.564L143.618 175.188C143.328 173.46 143.458 170.248 143.385 168.303C143.092 160.523 142.238 153.878 144.348 146.206C146.496 138.393 149.139 135.62 155.885 131.724Z" fill="#FFFEFF"/>
<path d="M199.095 139.92C199.885 141.134 199.602 143.599 199.449 145.073C199.084 148.601 197.069 150.039 194.511 152.004L194.34 151.797C198.43 147.527 196.155 145.052 199.095 139.92Z" fill="#F7F6F8"/>
<path d="M100.49 190.771C101.034 190.731 101.579 190.698 102.124 190.671C102.795 190.64 104.342 190.559 104.81 190.983L104.2 191.274C102.96 191.561 101.377 192.288 100.363 191.731L100.49 190.771Z" fill="#775E7F"/>
<path d="M161.374 130.279L161.766 130.396L161.85 130.729C161.014 131.469 159.633 131.953 158.568 132.411C158.392 132.448 158.27 132.389 158.067 132.344L158.105 131.808C159.114 130.726 160.003 130.546 161.374 130.279Z" fill="#ABAAAC"/>
<path d="M298.052 154.574C303.585 154.118 303.54 158.656 303.58 162.691C307.535 162.767 312.498 163.562 316.478 164.105C316.483 163.669 316.49 163.234 316.502 162.799C316.69 156.041 322.042 156.06 325.905 160.787C326.1 162.495 326.18 164.012 326.263 165.72C329.155 165.928 332.12 166.041 334.905 166.815C336.31 162.924 337.252 160.833 341.315 159.585C343.202 160.013 343.7 160.137 345.293 161.168C346.723 163.75 346.837 165.046 346.802 167.928C348.917 168.146 353.33 168.276 354.557 169.964C354.985 170.983 354.687 173.43 354.557 174.462C352.295 192.416 349.977 210.358 347.745 228.315C347.687 228.781 347.482 230.283 347.112 230.452C344.76 231.522 339.84 230.422 337.405 229.973C336.922 232.495 336.572 234.203 334.745 236.073C326.54 234.686 318.325 233.597 310.12 232.247C304.71 231.356 299.292 230.284 293.87 229.503L277.397 227.198C274.302 226.761 265.81 226.195 264.2 223.63C263.78 220.288 274.727 190.514 276.337 185.454C277.612 181.51 278.802 177.539 279.907 173.543C280.905 169.977 282.478 163.871 284.138 160.661C286.268 159.356 289.897 160.182 292.392 160.51C293.6 157.114 294.41 155.617 298.052 154.574Z" fill="black"/>
<path d="M281.915 174.915C284.11 175.29 286.405 175.584 288.62 175.814C300.118 177.008 311.423 179.134 322.82 180.889C331.335 182.2 340.028 182.764 348.53 184.352C345.183 196.997 340.963 208.291 337.313 220.736C336.15 224.703 334.495 229.425 333.618 233.355L287.508 225.749C283.748 225.125 279.978 224.555 276.203 224.04C273.188 223.637 269.608 223.327 266.718 222.525C270.515 211.923 274.09 201.243 277.44 190.492C278.878 185.906 281.173 179.441 281.915 174.915Z" fill="#FFFEFF"/>
<path d="M305.52 182.619C306.372 182.838 306.492 182.822 307.13 183.381C307.667 184.786 306.207 187.805 305.647 189.506C307.162 189.506 309.345 189.407 310.182 190.886C309.167 192.634 305.88 192.137 304.152 192.005C303.24 194.464 302.728 197.992 302.263 200.63C304.13 201.089 310.01 201.353 310.902 202.71L310.777 203.254C309.495 203.702 302.777 202.855 301.267 202.355C300.565 205.151 299.307 208.861 298.442 211.69C301.777 211.989 305.597 212.685 308.877 213.367C309.58 211.335 311.495 207.603 311.9 206.025C313.245 200.755 313.37 198.128 315.785 193.031C314.465 192.762 313.005 192.629 311.867 191.987C311.667 191.335 311.658 191.65 311.915 191.009C312.983 190.511 315.057 191.584 315.58 191.201C317.06 190.117 317.023 185.297 319.013 184.75C319.793 184.994 319.488 184.763 319.918 185.512C320.093 187.288 319.065 189.692 318.44 191.427C320.02 191.497 321.12 191.41 322.35 192.452L322.315 192.896C320.715 194.005 319.152 193.727 317.207 193.682C316.812 196.637 316.447 199.761 315.55 202.598C317.017 202.655 321.153 202.652 321.04 204.569L320.573 204.976C318.988 205.3 316.492 204.292 314.842 203.812C314.31 204.638 311.927 212.126 311.132 214.086C314.4 214.367 318.2 215.637 321.65 216.311C322.032 215.335 322.547 214.132 322.895 213.175C323.66 211.069 323.682 211.694 325.235 210.762C325.057 210.065 324.307 209.465 323.772 208.928C325.42 203.313 323.547 206.308 322.44 204.503L322.687 203.846C323.612 203.307 324.292 203.484 325.485 203.46C326.58 202.654 328.247 196.962 328.642 195.504C327.44 194.992 325.992 194.577 325.235 193.626L325.317 193.155C326.542 192.437 328.082 192.55 329.44 192.643C330.002 190.555 330.392 189.3 331.28 187.339L331.805 186.573C332.717 186.26 332.315 186.208 333.062 186.563C333.602 187.918 332.293 191.652 331.853 193.212C333.733 193.421 337.502 193.344 338.682 194.776C338.787 195.675 338.835 195.315 338.372 196.165C336.975 196.949 332.48 195.793 330.627 195.453C330.49 198.33 329.81 201.114 329.108 203.898C330.78 204.093 335.42 204.237 335.91 206.059L335.492 206.46C333.18 207.262 330.582 206.492 328.162 206.036C327.312 208.486 326.775 209.203 325.69 211.389C325.545 211.681 324.9 214.958 324.57 215.979L324.485 216.231C326.11 216.386 330.543 216.603 331.358 218.122L331.11 218.521C329.027 219.432 325.757 218.806 323.502 218.519C323.095 220.041 322.085 225.142 320.11 224.781C319.02 223.126 320.625 219.616 321.26 217.866C317.925 217.69 314.025 216.91 310.455 216.665C309.957 218.64 309.225 222.461 306.955 222.976C305.145 221.918 307.26 217.769 307.885 216.267C304.178 215.756 301.27 215.33 297.67 214.342C297.188 216.319 296.487 220.167 294.867 221.287C294.012 221.296 294.42 221.406 293.657 220.795C293.14 219.249 294.657 215.829 295.195 213.955C293.497 213.484 289.72 213.338 288.75 212.317C288.48 211.369 288.417 211.679 288.74 210.921C290.41 209.961 294.28 211.044 296.255 211.461C296.89 208.371 298.24 205.806 298.763 202.378C297.303 202.258 294.755 201.778 293.885 200.484L294.03 200.132C295.585 199.311 297.727 199.873 299.507 200.136C300.567 196.044 300.662 195.27 302.807 191.641C300.755 191.186 297.957 190.941 296.58 189.385L296.655 188.936C298.307 187.999 301.065 188.593 302.983 188.832C303.71 186.53 304.172 184.609 305.52 182.619Z" fill="black"/>
<path d="M288.908 192.188C289.748 192.11 289.83 192.115 290.668 192.253C292.12 193.432 291.385 195.51 290.853 197.078C290.168 199.104 288.783 203.937 286.3 204.168L285.853 203.718C285.565 202.779 285.788 202.039 285.94 201.051C285.848 199.179 282.508 200.635 280.96 198.897C280.665 197.99 280.635 198.327 280.898 197.51C281.74 197.165 285.553 197.946 286.81 198.132C287.39 196.182 288.063 194.025 288.908 192.188Z" fill="black"/>
<path d="M293.58 181.367C294.607 181.46 294.852 181.463 295.417 182.296C294.997 184.313 293.835 188.486 293.102 190.343C292.037 190.731 287.922 189.38 286.33 189.059C285.305 188.896 285.087 188.867 284.15 188.437C283.61 187.701 283.687 188.082 283.745 187.299C284.837 186.411 289.182 187.165 290.702 187.31C291.527 185.005 292.06 183.279 293.58 181.367Z" fill="black"/>
<path d="M284.85 210.278C284.693 211.95 284.323 218.972 281.823 218.756C280.203 216.499 282.593 212.344 283.895 210.437L284.85 210.278Z" fill="black"/>
<path d="M277.108 208.448C278.253 208.472 282.312 209.497 283.147 210.216L283.188 210.889C281.225 210.91 279.102 211.165 277.397 210.309C276.832 209.517 277.028 209.696 277.108 208.448Z" fill="black"/>
<path d="M283.895 210.437C284.303 208.553 284.37 208 285.378 206.39L285.593 206.495C285.68 208.27 285.145 208.651 284.85 210.279L283.895 210.437Z" fill="black"/>
<path d="M285.595 162.888C288.032 163.309 289.525 163.52 291.992 163.676C291.842 171.736 299.137 172.743 299.27 164.552C303.29 165.638 307.992 165.849 312.162 166.24C312.325 167.888 312.387 169.86 313.285 171.253C315.335 172.418 314.802 169.614 317.222 172.038C317.98 172.159 317.747 172.259 318.33 172.039C318.195 170.474 318.212 168.736 318.192 167.153C319.947 167.457 321.93 167.663 323.712 167.888C324.68 167.989 326.012 168.083 326.932 168.296C329.242 168.375 331.89 168.942 334.235 169.149C334.237 170.151 334.207 171.515 334.27 172.482C335.41 174.029 336.575 175.534 338.695 175.496C338.84 175.691 338.94 175.663 339.252 175.781C340.06 175.527 340.402 175.456 341.12 175.027C341.995 173.54 341.005 172.971 341.547 170.511L341.62 170.185C344.91 170.335 349.152 170.543 352.397 171.041C351.425 174.181 349.902 178.439 349.357 181.544C336.767 180.428 325.232 177.132 312.625 176.122C302.515 175.313 292.982 173.126 282.752 172.411C283.812 169.212 284.682 166.128 285.595 162.888Z" fill="#B95CDC"/>
<path d="M318.192 167.153C319.947 167.457 321.93 167.663 323.712 167.888C323.18 169.53 322.707 171.065 322.782 172.822C322.345 173.183 322.287 173.124 321.705 173.193C320.605 172.939 319.045 172.742 318.33 172.039C318.195 170.474 318.212 168.736 318.192 167.153Z" fill="#EFDFF9"/>
<path d="M323.713 167.888C324.68 167.989 326.013 168.083 326.933 168.296L326.725 168.662C324.85 168.652 322.635 169.621 323.293 171.842C324.138 172.408 326.408 172.976 327.448 173.173C329.18 173.5 329.748 175.67 330.37 177.127C327.553 175.804 324.403 174.554 321.705 173.193C322.288 173.124 322.345 173.183 322.783 172.822C322.708 171.065 323.18 169.53 323.713 167.888Z" fill="#D982F5"/>
<path d="M349.362 190.887L349.692 191.273C349.767 193.858 348.477 202.214 348.067 205.278C347.027 213.027 346.065 220.787 345.18 228.555C343.387 228.383 341.705 228.047 339.94 227.721C339.21 227.608 338.915 227.624 338.31 227.191C338.087 225.528 343.125 211.325 343.972 208.757C345.89 202.968 347.597 196.748 349.362 190.887Z" fill="#FFFEFF"/>
<path d="M338.695 175.496C338.387 174.635 338.305 174.055 337.837 172.863C336.742 170.07 338.01 161.503 342.455 163.402C343.582 163.884 343.927 165.919 344.1 167.286C342.432 167.24 340.217 166.981 339.23 168.64L339.46 169.241C340.162 169.905 340.677 169.942 341.62 170.186L341.547 170.511C341.005 172.971 341.995 173.54 341.12 175.027C340.402 175.456 340.06 175.528 339.252 175.781C338.94 175.663 338.84 175.692 338.695 175.496Z" fill="#FFFEFF"/>
<path d="M297.272 157.229C300.442 157.134 301.722 159.603 300.377 162.175C299.257 162.634 299.835 161.54 298.232 161.345C296.572 163.101 298.297 164.262 298.262 166.511C297.705 167.371 297.665 167.514 296.862 168.106C295.9 168.237 296.327 168.338 295.532 167.828C293.52 164.718 295.02 159.876 297.272 157.229Z" fill="#FFFEFF"/>
<path d="M320.1 160.501C320.57 160.523 321.45 160.481 321.798 160.719C322.853 161.441 323.375 163.747 322.6 164.761L321.813 164.808L318.393 164.613C318.783 163.288 319.2 161.494 320.1 160.501Z" fill="#FFFEFF"/>
<path d="M102.552 60.3688C106.078 36.4441 145.578 39.9771 139.458 70.7771C139.022 72.9191 138.395 75.0176 137.582 77.0471C136.605 79.3301 135.395 82.4273 134.074 84.4563C133.042 85.6266 131.735 87.0951 130.949 88.4366C126.699 95.6931 122.424 102.944 118.363 110.305C116.732 113.262 112.59 110.445 110.747 108.925C101.635 102.607 86.867 99.5348 78.092 91.0431C73.5038 86.6811 70.877 80.6473 70.8105 74.3171C70.745 68.7188 72.9205 63.3268 76.8525 59.3413C84.9853 51.2166 94.8713 52.5016 102.552 60.3688Z" fill="#A741CB"/>
<path d="M132.257 78.6371C132.782 77.9059 134.349 75.7696 134.63 75.0304C135.13 73.7164 135.118 71.9269 135.833 70.6219C136.598 70.3506 137.232 70.5871 138.057 70.7554C138.722 70.9584 138.784 70.8946 139.458 70.7771C139.022 72.9191 138.395 75.0176 137.582 77.0471L137.146 76.7131C135.775 77.1436 133.658 78.0701 132.257 78.6371Z" fill="#FFFEFF"/>
<path d="M139.458 70.7771C139.022 72.9191 138.394 75.0176 137.582 77.0471L137.146 76.7131C137.696 75.8171 137.976 71.9509 138.057 70.7554C138.722 70.9584 138.784 70.8946 139.458 70.7771Z" fill="#DFAFF3"/>
<path d="M81.6852 61.2031C82.7409 62.3926 79.5862 67.2856 79.0374 68.9301C74.4864 82.5721 89.2482 90.6619 99.6612 95.0666C102.007 96.0589 105.31 97.7386 107.018 99.5896C107.205 100.492 107.247 100.064 106.876 100.916L106.36 101.115L105.616 100.741C96.9747 95.6074 84.0272 92.6524 77.9637 83.4511C75.2939 79.3746 74.3919 74.3894 75.4642 69.6359C76.4062 65.2846 78.1204 63.4824 81.6852 61.2031Z" fill="#FFFEFF"/>
<path d="M131.355 82.4204L131.795 82.6039C132.324 84.5079 129.163 87.7207 127.802 88.8559C127.657 88.8192 127.44 88.6779 127.296 88.5972C127.291 87.1139 130.284 83.5267 131.355 82.4204Z" fill="#EFDFF9"/>
<path d="M135.85 63.1245C137.155 63.2363 137.722 63.1058 138.48 64.2105C138.633 65.2285 138.362 65.9138 138.105 66.9185C137.406 67.1945 137.27 67.0995 136.732 66.7848C136.094 65.7155 136.033 64.3943 135.85 63.1245Z" fill="#EFDFF9"/>
<path d="M65.8113 118.759C66.3538 118.745 67.926 118.684 68.0048 119.005C68.8668 122.521 68.8613 128.133 70.619 131.272C73.6648 136.71 77.968 135.209 82.2313 137.556C82.5483 137.731 82.4513 137.918 82.445 138.328C81.0095 140.294 74.5243 140.255 72.5165 143.084C69.4208 147.447 69.252 151.97 68.3273 157.024C68.3273 157.024 67.7433 157.557 67.6853 157.61C66.9535 157.488 66.7285 157.484 66.0455 157.147C65.6873 156.508 65.4655 153.855 65.355 153.035C64.6813 146.338 61.8113 141.596 54.91 140.23C53.697 139.99 50.916 139.595 50.8115 138.179C51.0558 137.804 51.3578 137.226 51.838 137.152C63.735 135.313 65.0803 129.898 65.8113 118.759Z" fill="black"/>
<path d="M67.0083 129.628C67.3721 129.942 67.9528 131.387 68.1818 131.897C69.7281 135.343 71.3038 136.793 74.8736 137.862C74.9308 138.329 71.8623 140.188 71.1286 140.875C68.9036 142.959 68.0566 145.131 67.0966 147.94C63.9836 141.634 64.9016 141.4 57.7161 137.999C63.1338 137.281 65.0373 134.374 67.0083 129.628Z" fill="#FFFEFF"/>
<path d="M234.651 66.9097C238.16 67.2759 239.503 66.9742 241.501 70.1572C240.081 71.1042 238.963 71.7499 237.464 72.5759C238.432 74.7892 241.53 78.8739 241.395 80.2437C241.166 80.7159 241.069 80.8514 240.628 81.1202C237.764 82.8689 235.897 78.0662 235.002 76.1929C231.788 81.5259 230.886 89.7152 231.544 95.7279C233.025 109.272 240.458 119.887 251.973 126.934C254.148 128.265 257.55 129.21 259.21 130.691C259.015 131.767 258.993 132.004 258.033 132.578C250.15 133.085 237.414 120.425 233.721 113.906C228.712 105.062 227.04 93.3509 228.723 83.3482C229.102 81.0932 231.841 76.5957 231.646 75.4217C229.924 75.6659 228.625 79.0224 226.021 78.2712C225.715 77.8774 225.22 77.3317 225.396 76.7529C226.874 71.8719 230.423 72.7017 233.666 70.2734C234.608 69.5677 234.565 67.9869 234.651 66.9097Z" fill="#A741CB"/>
<path d="M295.997 45.3789C302.83 47.7462 309.2 50.9282 314.082 56.5599C323.927 67.9207 330.225 84.7117 325.73 99.5734C324.75 102.813 322.61 105.788 320.52 108.45C320.632 108.785 320.742 109.121 320.85 109.458C321.145 110.366 321.245 110.432 321.047 111.345C320.435 111.818 317.815 112.045 316.907 112.044C313.612 112.043 311.052 112.766 311.137 108.758C312.307 107.377 315.062 107.662 316.882 107.513C315.89 104.922 313.192 101.192 316.165 99.0252C318.297 98.7367 319.112 103.106 319.655 104.784C320.63 102.646 321.787 100.181 322.247 97.8779C326.13 78.4147 316.32 56.6762 297.352 49.2512C296.18 48.7924 295.272 48.2157 294.847 47.0397C295.022 46.2019 295.352 46.0139 295.997 45.3789Z" fill="#A741CB"/>
<path d="M272.408 34.1753C275.6 34.3128 280.94 41.791 282.875 44.4308C281.598 45.9215 274.528 53.3635 272.823 53.2098C267.74 52.7523 273.728 48.3785 275.075 47.2168L276.92 45.521C271.593 45.1548 266.54 45.3808 261.253 45.368C260.43 45.366 260.39 43.7858 260.795 43.0013C263.235 41.176 272.573 41.6925 276.015 41.7525C274.75 40.4263 271.758 37.706 271.55 35.874C271.475 35.1973 271.98 34.6838 272.408 34.1753Z" fill="#A741CB"/>
<path d="M279.405 124.945C280.105 125.035 280.278 125.174 280.885 125.5C282.453 127.759 277.733 130.933 276.083 132.388C278.208 132.669 288.668 133.17 289.675 133.652C290.013 134.146 290.105 134.06 289.955 134.691C288.863 139.301 277.61 135.166 276.078 136.166C277.098 137.249 279.613 139.639 279.7 141.028C279.73 141.594 279.485 142.141 279.04 142.492C278.45 142.967 278.113 142.883 277.498 142.85C275.9 141.813 270.265 135.306 269.33 133.21C270.918 131.546 273.125 130.175 274.908 128.664C276.463 127.347 277.718 126.127 279.405 124.945Z" fill="#A741CB"/>
<path d="M87.6196 153.579C88.1273 153.654 88.3213 153.71 88.8191 153.832C89.3638 154.556 90.1148 158.646 90.6441 160.05C91.8276 163.188 95.9201 162.904 96.6556 164.653C95.9018 165.552 94.1033 165.662 92.7998 166.643C89.9693 168.774 89.6738 172.117 89.0738 175.339C86.3721 175.476 87.1291 170.939 85.7203 168.641C84.1901 166.145 81.1516 166.165 80.4136 164.792L80.6273 164.25C81.6286 163.341 82.9146 163.021 84.2063 162.573C86.7601 158.689 86.5416 158.032 87.6196 153.579Z" fill="black"/>
<path d="M88.0128 160.914C88.652 161.386 89.5848 163.184 91.063 164.44C89.9165 165.726 89.16 166.803 88.3295 168.298C87.142 167.041 87.5593 166.346 85.4685 164.618C86.918 163.271 87.1933 162.643 88.0128 160.914Z" fill="#FFFEFF"/>
<path d="M316.005 114.874C320.078 115.88 316.795 120.832 315.525 122.977C312.375 128.299 307.708 132.446 301.878 134.575C300.458 135.094 298.085 135.447 296.553 135.793L295.868 135.946C291.858 133.31 302.323 130.574 304.105 129.472C307.97 127.047 311.155 123.679 313.36 119.685C314.245 118.067 314.91 116.37 316.005 114.874Z" fill="#A741CB"/>
<path d="M254.545 42.4992C255.705 42.4742 256.645 43.1822 256.837 44.3327C256.207 45.5639 252.482 46.9152 250.95 47.7814C249.77 48.4507 248.646 49.2137 247.588 50.0629C244 52.9542 241.747 55.8892 239.819 60.0259C239.104 61.5577 238.361 63.4634 236.993 64.4469C235.812 64.5679 235.287 64.4507 234.696 63.4119C234.499 61.6524 235.551 59.7772 236.371 58.2539C240.247 51.0577 246.577 44.8727 254.545 42.4992Z" fill="#A741CB"/>
<path d="M219.792 161.612C220.278 161.715 220.277 161.758 220.697 162.039C222.828 166.265 230.317 177.698 220.944 177.984L220.583 177.919C219.596 177.733 219.45 177.676 218.976 176.967C219.504 175.685 222.204 174.834 223.691 174.12C222.031 170.964 218.919 167.272 218.706 163.792C218.638 162.667 219.136 162.304 219.792 161.612Z" fill="black"/>
<path d="M208.322 181.141C211.12 180.943 213.588 184.815 216.807 184.913C220.07 185.013 221.069 183.969 224.002 183.03C224.329 182.925 224.412 183.13 224.746 183.416C224.921 184.461 224.986 184.031 224.426 185.035C221.878 187.29 218.951 187.713 215.642 187.051C213.118 186.546 209.819 185.253 208.378 182.968C207.879 182.178 208.096 181.953 208.322 181.141Z" fill="black"/>
<path d="M204.305 149.548C206.332 149.378 210.518 149.417 211.269 151.929C210.463 153.4 207.13 152.49 205.713 152.644C204.936 152.728 204.162 153.04 203.433 153.312C201.325 154.182 199.843 155.972 198.755 156.158C197.591 155.336 198.209 153.686 198.88 152.683C200.212 150.693 202.077 150.025 204.305 149.548Z" fill="black"/>
<path d="M227.732 158.856C231.814 159.417 231.041 164.178 228.694 166.456C225.796 166.597 225.42 160.877 227.732 158.856Z" fill="black"/>
<path d="M205.877 160.234C210.196 160.078 209.846 165.061 207.874 167.347C207.591 167.342 207.067 167.262 206.765 167.227C204.26 165.667 204.773 162.52 205.877 160.234Z" fill="black"/>
<path d="M175.171 165.991C176.612 165.948 177.601 166.155 178.749 167.079C179.91 168.013 182.278 170.453 181.028 171.898L180.274 171.856C179.547 170.858 178.567 169.398 177.632 168.612C176.658 167.792 174.675 168.488 173.842 167.685C174.052 166.888 174.55 166.566 175.171 165.991Z" fill="black"/>
</g>
<defs>
<clipPath id="clip0_442_688">
<rect width="400" height="400" fill="white"/>
</clipPath>
</defs>
</svg>
