<svg width="400" height="400" viewBox="0 0 400 400" fill="none" xmlns="http://www.w3.org/2000/svg">
<g clip-path="url(#clip0_442_614)">
<path d="M0 0H400V400H0V0Z" fill="white"/>
<path d="M147.353 117.454C150.096 116.193 155.483 115.097 156.809 112.632C160.422 105.636 168.202 102.222 175.95 102.147C186.511 102.045 193.305 107.151 193.553 117.709C197.726 118.887 201.928 121.562 202.837 126.148C203.711 130.563 202.188 137.118 199.28 140.644C198.326 141.799 196.874 142.389 196.193 143.485C196.562 145.219 198.497 149.746 196.03 150.346C195.095 149.886 194.071 148.263 193.309 147.378C189.533 142.992 185.761 147.317 182.483 147.067C179.802 143.823 186.531 137.264 193.491 143.797C191.915 140.456 189.696 137.001 187.793 133.781C187.456 134.24 186.944 134.815 186.534 135.195C183.644 137.87 168.578 143.967 165.715 140.858L165.807 140.399C166.064 140.219 166.858 139.674 166.972 139.474C167.619 138.333 166.978 133.754 166.864 132.435C157.498 136.698 166.19 138.167 161.973 145.705C160.941 146.379 160.22 146.846 159.263 147.629C156.955 148.911 154.334 148.886 151.768 148.975C151.82 150.116 151.859 151.257 151.886 152.398C151.924 154.419 151.747 157.92 150.172 159.287C148.849 160.435 149.153 162.735 148.451 164.242C147.978 165.257 146.226 165.832 145.211 166.206C142.074 163.539 140.313 161.829 136.279 160.684C135.006 160.917 133.871 161.154 132.719 161.759C130.774 162.761 129.319 164.51 128.687 166.606C128.232 168.076 128.087 169.859 128.281 171.382C129.527 181.125 137.871 185.838 146.543 180.987C151.133 187.103 150.925 188.903 146.822 189.31C146.627 189.329 146.414 194.28 146.198 195.359C144.852 202.05 146.242 213.007 137.439 214.299C143.366 225.306 154.979 228.58 166.575 228.882C167.164 226.159 167.421 225.482 169.074 223.243C169.49 218.889 169.926 217.485 172.874 214.243C173.234 210.695 175.279 208.238 175.642 204.795C175.771 203.577 171.462 202.869 170.522 202.684C169.15 202.413 158.634 199.114 161.672 196.63C163.189 196.44 165.889 197.925 167.351 198.622C166.768 197.092 166.033 194.556 167.191 193.165C172.255 187.083 186.012 191.269 190.987 195.139C199.918 185.739 200.306 174.529 197.829 162.388C197.53 160.92 193.048 156.205 195.197 154.428C197.307 157.011 198.173 158.547 200.959 160.34L200.788 160.032C198.7 156.235 198.45 151.365 199.544 147.192C200.704 142.765 203.986 142.887 206.263 141.682C206.331 140.764 206.201 139.956 206.261 139.192C206.378 137.671 207.116 136.265 208.302 135.305C211.731 132.518 225.377 131.907 229.772 133.372C234.908 135.085 238.513 137.696 244.435 137.808C251.112 137.934 257.667 137.571 264.327 137.366L293.515 136.749C297.445 136.695 302.222 136.29 306.095 136.575C310.562 136.383 312.657 136.434 316.922 138.289C320.92 139.801 322.425 141.246 324.227 145.101C327.31 151.704 327.092 157.007 324.725 163.719C319.52 178.475 306.262 174.852 294.007 173.635C284.265 172.617 274.515 171.684 264.755 170.838C264.86 176.595 264.497 178.393 263.072 184.013C271.952 183.71 269.542 191.716 271.492 197.653C271.99 199.168 274.575 199.43 275.002 201.348C278.085 210.943 281.095 220.677 284.102 230.289C287.115 239.92 288.36 251.09 288.787 261.118C288.897 273.353 287.31 283.965 278.542 293.17C277.095 294.69 275.525 295.705 274.15 296.968C268.635 302.03 263.4 303.393 255.89 303.51C247.185 303.648 240.054 300.843 232.381 297.015C229.325 295.49 226.341 294.218 223.486 292.115C224.459 311.243 225.224 330.38 225.783 349.523C225.874 354.283 226.384 359.06 226.377 363.803C226.375 364.888 226.305 365.263 225.634 366C224.798 366.27 224.69 366.273 223.817 366.17C218.082 366.728 203.519 368.033 198.297 368.318C190.491 368.74 150.809 369.48 144.641 366.878C141.399 367.835 138.884 369.915 135.743 371.318C125.784 375.718 114.703 376.91 104.036 374.733C88.3119 371.378 75.3464 356.29 70.5147 341.398C63.0689 317.788 63.7424 292.48 68.4987 268.373C72.6164 247.501 82.9989 229.359 103.485 221.011C107.583 219.341 120.799 214.321 124.84 215.202C126.677 215.652 133.33 213.235 135.263 212.577C136.882 211.829 138.27 211.609 140.014 211.409C142.014 205.655 143.982 197.104 144.342 190.988C141.009 189.733 140.629 188.623 139.913 185.343C133.147 185.111 128.384 181.954 126.261 175.485C124.724 170.803 124.824 169.349 121.205 165.849C115.753 165.475 112.727 161.548 112.024 156.386C111.09 149.522 114.404 144.648 120.192 141.418C115.707 131.892 119.963 121.419 129.411 117.369C136.008 114.541 140.798 115.046 147.353 117.454Z" fill="black"/>
<path d="M124.84 215.202C126.677 215.652 133.33 213.235 135.263 212.577C135.358 219.538 140.569 223.045 146.038 226.277C152.711 230.221 158.884 231.637 166.643 231.546C167.374 236.283 170.814 239.561 175.11 241.339C175.197 244.071 175.261 246.229 176.329 248.804C177.464 251.54 178.759 252.85 179.209 255.815C174.638 267.083 176.836 270.788 176.453 281.813L173.66 280.265C171.442 281.33 165.026 285.078 164.919 287.84C166.209 288.413 171.541 284.565 172.739 283.54C176.385 289.563 189.735 305.22 195.623 308.728C193.63 310.968 191.526 313.2 189.702 315.583C188.319 317.39 188.494 317.74 188.602 319.883C185.221 323.613 182.739 327.485 179.64 331.145C169.347 343.308 158.13 354.27 145.078 363.418C143.572 364.473 141.121 365.385 139.484 366.355C131.766 370.338 126.294 372.413 117.575 373.005C106.715 373.745 95.9372 370.378 87.7767 363.158C73.4702 349.905 68.3227 328.305 67.7124 309.32C66.9817 286.588 69.9392 259.708 82.9794 240.394C90.2797 229.582 101.066 224.654 112.823 220.226C115.73 219.131 123.619 217.93 124.84 215.202Z" fill="#32AF53"/>
<path d="M120.238 309.242C124.249 306.005 129.219 303.965 133.675 301.157C140.505 296.855 147.871 292.935 154.758 288.68C156.701 287.48 161.483 284.84 163.38 286.71C163.559 288.087 162.407 288.085 161.254 288.522C158.756 289.472 156.609 291.24 154.251 292.505C147.97 295.545 142.347 299.312 136.409 302.875L117.724 314.022C112.799 316.945 108.086 320.035 102.895 322.485C101.227 323.27 96.8578 326.425 95.769 323.112C96.2578 319.807 107.354 314.06 111.045 314.06C112.406 314.06 118.948 310.557 119.592 309.452L120.238 309.242Z" fill="black"/>
<path d="M118.577 305.795C116.6 301.74 115.523 296.495 114.557 292.15C112.673 283.673 110.793 275.585 107.049 267.725C106.8 267.203 107.012 266.695 107.3 266.24C108.138 266.205 108.642 266.495 109.251 267.088C112.309 270.065 117.289 289.52 118.153 294.088C118.697 296.965 119.015 299.805 119.034 302.733C118.992 303.76 119.076 304.965 118.577 305.795Z" fill="black"/>
<path d="M166.328 291.875C170.065 292.435 173.315 299.252 175.823 302.057C178.826 305.417 181.833 308.955 184.611 312.505C184.998 312.998 184.685 313.717 184.539 314.245C179.711 312.417 169.198 299.228 166.485 294.353C165.946 293.383 165.979 292.868 166.328 291.875Z" fill="black"/>
<path d="M119.034 302.732C119.206 304.687 119.466 307.447 120.238 309.242L119.592 309.452C119.259 308.5 118.856 306.82 118.577 305.795C119.075 304.965 118.992 303.76 119.034 302.732Z" fill="#003601"/>
<path d="M144.642 366.878C145.417 366.208 146.33 365.76 147.198 365.185C164.436 353.758 178.592 337.665 190.736 321.085C191.254 320.628 190.952 317.82 191.147 317.56C192.783 315.393 194.971 313.775 196.792 311.72C198.72 309.545 198.847 308.69 197.247 306.28C195.1 303.048 201.833 301.095 203.711 300.203C207.37 298.465 209.84 296.525 212.638 293.643C215.067 291.173 216.544 288.378 219.841 286.935C220.109 288.508 220.311 290.215 220.433 291.808C222.075 313.263 222.531 334.735 223.286 356.233C223.402 359.555 223.466 362.858 223.817 366.17C218.082 366.728 203.519 368.033 198.298 368.318C190.491 368.74 150.81 369.48 144.642 366.878Z" fill="#32AF53"/>
<path d="M306.095 136.575C310.563 136.383 312.658 136.434 316.923 138.289L316.78 138.742C317.518 139.241 318.255 139.85 318.96 140.404C319.495 142.087 320.218 143.895 321.063 145.43C325.52 153.55 324.18 165.324 315.585 170.19C312.4 171.993 309.8 171.91 306.255 172.016C311.923 169.924 315.345 166.517 317.185 160.588C318.505 156.335 317.918 151.029 315.595 147.225C314.475 145.39 313.198 143.827 312.155 141.879L311.978 141.544C312.803 142.121 316.323 144.892 317.25 144.579C316.688 143.265 314.13 141.516 312.868 140.995C304.91 137.721 298.323 147.682 297.678 154.49C297.55 155.838 297.7 158.321 297.26 159.382L296.945 159.32C295.835 157.049 296.605 151.503 297.265 149.014C298.545 144.192 303.305 139.748 307.59 137.379C307.23 136.878 306.703 136.789 306.095 136.575Z" fill="white"/>
<path d="M306.095 136.575C310.562 136.383 312.657 136.434 316.922 138.289L316.78 138.742C313.265 137.333 311.355 137.133 307.59 137.379C307.23 136.878 306.702 136.789 306.095 136.575Z" fill="#1F2126"/>
<path d="M233.548 193.064C235.557 194.633 236.933 196.059 239.508 196.761C245.72 198.454 252.89 197.415 258.543 194.342C259.525 193.807 265.21 190.4 265.588 189.15C265.638 188.984 264.975 187.496 265.248 186.587L265.685 186.527C267.17 187.508 268.465 196.401 270.11 197.794C270.225 197.892 271.065 198.759 271.11 198.868C272.578 202.368 274.24 207.543 275.333 211.11C281.555 231.415 288.92 251.253 285.465 272.865C284.443 278.918 279.558 290.805 274.423 294.348C268.11 298.698 258.023 301.828 250.455 300.3C242.473 298.693 227.234 293.418 222.54 286.735C225.989 282.303 232.237 272.428 224.893 268.373C225.272 265.715 225.347 264.698 224.771 262.1C224.252 261.545 223.761 260.985 223.048 260.72C220.153 259.645 222.827 256.72 221.751 254.808C220.773 253.073 218.213 252.148 216.399 251.59C218.073 249.52 219.346 247.162 218.29 244.417C217.857 243.31 216.99 242.428 215.89 241.977C212.596 240.601 209.081 242.551 205.991 243.829C203.338 238.567 205.331 233.908 205.957 228.372C206.291 225.424 206.562 222.774 206.713 219.799C211.4 223.098 216.951 224.783 221.582 228.636C227.107 233.233 232.29 236.645 236.898 242.301C237.363 245.427 238.022 249.347 238.251 252.43C239.776 259.925 240.584 259.218 239.5 267.203C239.947 267.248 239.984 267.213 240.436 267.158C241.09 265.98 241.157 263.833 241.301 262.485C242.318 252.923 240.471 244.277 238.893 234.913C237.805 228.639 236.832 222.347 235.976 216.038C235.299 211.04 234.841 206.909 234.763 201.872C234.728 199.574 233.853 195.568 233.548 193.064Z" fill="#32AF53"/>
<path d="M238.251 252.43C239.776 259.925 240.584 259.218 239.5 267.203C235.325 262.955 235.657 263.685 237.761 260.51C238.206 259.84 238.27 253.683 238.251 252.43Z" fill="#26823B"/>
<path d="M262.85 199.982L263.377 200.212C263.53 200.593 263.73 200.848 263.577 201.204C260.79 207.717 245.697 207.527 241.305 206.652L240.367 206.308C239.719 205.549 239.678 205.744 239.588 204.926C240.136 204.341 242.052 204.645 242.979 204.711C250.382 205.237 256.41 203.92 262.85 199.982Z" fill="black"/>
<path d="M212.459 243.774C213.576 243.699 214.529 243.625 215.305 244.542C218.922 248.814 211.424 251.275 208.81 253.162C208.419 253.95 208.511 253.63 208.695 254.64C210.66 256.807 220.002 250.822 218.892 258.357C217.771 259.825 214.859 259.84 214.27 261.71C215.384 263.572 217.729 262.385 219.416 261.87C228.174 265.725 217.481 268.047 218.573 270.43C220.799 271.465 223.775 269.075 224.996 271.862C225.854 273.82 225.448 275.85 224.756 277.765C224.036 279.757 222.951 281.267 221.494 282.772C219.475 284.967 216.996 286.15 214.737 288.077C212.048 290.375 209.26 293.43 206.316 295.342C204.701 296.392 201.499 297.73 199.66 298.552C196.576 299.942 195.206 301.452 193.414 304.212C190.279 300.615 186.92 297.17 183.879 293.672C180.98 290.337 179.529 287.88 176.171 284.387C177.732 283.117 177.947 282.925 179.055 281.327C179.547 276.18 178.899 270.775 179.295 265.59C179.525 262.57 179.868 259.577 180.208 256.57C182.715 258.212 185.723 258.772 188.113 260.645C190.961 258.922 192.644 256.92 195.095 254.807C200.093 250.497 206.113 245.703 212.459 243.774Z" fill="white"/>
<path d="M200.49 162.857C202.736 163.71 206.517 164.11 209.026 164.472C211.926 166.963 214.797 168.878 216.96 172.162C219.514 176.04 220.62 179.8 224.174 183.088C227.571 186.232 231.482 187.322 235.177 189.889L235.495 190.113C234.37 190.489 232.425 190.943 231.589 191.887C229.638 194.091 232.654 200.098 232.654 201.972C232.654 204.813 232.035 206.127 232.488 209.441C233.774 218.848 235.752 228.127 236.351 237.616L234.462 236.065C231.726 233.8 228.331 230.515 225.653 228.45C220.628 224.574 212.816 219.515 206.795 217.604C206.775 214.477 206.508 211.276 204.698 208.608C201.608 204.051 197.912 200.317 193.328 197.264C195.358 194.596 197.045 192.402 198.471 189.317C201.681 182.376 203.193 169.943 200.49 162.857Z" fill="white"/>
<path d="M173.384 192.546C179.328 192.226 185.29 194.417 190.159 197.86C202.621 206.669 205.442 211.496 203.19 226.447C202.749 229.374 201.925 233.568 201.655 236.553C201.488 238.399 202.402 242.689 202.797 244.64C202.25 246.07 193.341 252.737 191.608 254.72C184.332 263.04 178.221 248.227 177.91 242.443C177.744 239.35 177.84 236.763 178.019 233.588C177.689 233.349 177.357 233.113 177.022 232.88C176.145 232.274 175.824 232.014 174.81 232.203L174.451 232.742C174.331 233.854 174.621 234.603 174.91 235.687C175.071 236.386 175.251 237.136 174.865 237.728C174.781 237.722 174.697 237.717 174.613 237.712C170.283 235.827 169.376 231.862 169.736 228.306C170.5 220.748 179.949 226.48 182.102 224.885L181.941 224.358C179.646 222.087 175.105 221.671 172.027 221.463C174.731 210.849 184.255 219.925 187.146 217.259C187.17 214.541 177.147 213.679 175.114 213.524C175.425 212.872 175.711 212.282 176.076 211.658C179.982 204.974 188.643 211.17 192.406 210.243L192.589 209.853C192.079 208.522 182.569 200.795 181 199.724C171.603 202.985 164.663 195.539 173.384 192.546Z" fill="white"/>
<path d="M233.399 140.334C234.389 140.45 242.438 140.249 244.13 140.183C251.68 139.887 259.67 140.247 267.095 139.972C257.345 146.677 258.587 159.005 264.547 167.92C260.177 166.994 253.907 166.884 249.257 166.36C241.392 165.472 233.741 164.548 225.839 163.948C222.325 160.365 218.666 157.206 213.422 156.875C210.444 156.688 209.551 158.864 208.704 161.094C206.985 160.441 204.957 159.743 203.098 159.691C202.052 155.619 201 151.551 203.274 147.566C204.194 145.955 205.766 144.803 207.669 144.376C208.106 144.279 209.423 145.388 210.151 145.243C214.235 144.435 228.858 142.78 231.753 141.317C232.256 140.829 232.768 140.64 233.399 140.334Z" fill="#32AF53"/>
<path d="M233.399 140.334C233.26 142.81 228.697 147.754 228.785 152.377C228.86 156.248 232.128 159.449 231.537 161.514C230.385 161.876 230.352 160.68 229.737 160.016C227.902 158.034 227.289 155.538 226.926 152.935C225.981 147.705 231.156 144.51 231.754 141.317C232.256 140.829 232.769 140.64 233.399 140.334Z" fill="white"/>
<path d="M213.678 159.274C218.4 159.238 223.82 166.088 227.147 168.498L227.39 168.671L229.401 167.146C233.448 167.753 236.272 168.865 239.496 171.588C240.507 172.442 241.845 174.273 242.938 174.622L243.384 174.327C244.225 172.306 241.31 169.371 240.118 167.75C247.37 168.643 254.72 169.812 261.972 170.563C261.832 172.607 260.662 183.303 260.87 184.604C261.37 186.056 261.775 187.923 262.145 189.442C255.295 194.256 246.231 195.54 238.178 193.563C237.741 191.203 237.081 188.344 235.969 186.229C233.883 185.34 231.695 184.706 229.593 183.729C223.435 180.865 221.617 173.123 217.325 168.277C215.667 166.405 207.387 160.911 213.678 159.274Z" fill="white"/>
<path d="M270.408 139.667C277.665 138.963 290.133 140.265 296.74 139.244C293.038 141.984 290.648 146 289.4 150.422C288.24 154.542 288.455 161.95 290.673 165.692C290.633 166.125 290.675 166.219 290.51 166.594C286.91 165.467 270.573 164.142 266.298 163.955C260.385 157.634 263.663 144.103 270.408 139.667Z" fill="#32AF53"/>
<path d="M221.573 134.878L222.001 134.942C222.478 135.448 222.68 135.649 223.211 136.092C224.444 136.253 225.045 135.487 226.01 135.276C227.946 134.851 231.572 137.198 233.29 138.156C228.623 139.615 225.638 140.243 220.81 140.683C218.163 140.887 211.361 142.087 209.149 141.167C205.508 136.547 219.202 135.043 221.573 134.878Z" fill="white"/>
<path d="M297.485 141.9L297.725 142.018C297.895 142.738 296.483 145.595 296.065 146.672C294.87 149.821 294.32 153.178 294.45 156.543C294.568 160.018 295.69 163.199 297.078 166.36C297.66 167.685 299.205 169.85 299.265 171.159L298.923 171.343L297.74 170.833C297.02 170.258 296.348 169.626 295.73 168.943C289.438 162.099 290.64 148.191 297.485 141.9Z" fill="#32AF53"/>
<path d="M290.673 165.692C292.245 166.887 293.94 169.69 295.068 171.431C288.655 170.316 281.788 170.045 275.35 168.726C273.36 168.319 271.165 168.349 269.188 167.82C268.25 167.611 267.55 166.123 267.083 165.333C270.353 165.672 289.075 168.537 290.585 167.584C290.568 167.204 290.56 166.972 290.51 166.594C290.675 166.219 290.633 166.125 290.673 165.692Z" fill="#095C28"/>
<path d="M167.652 131.825C172.171 132.491 176.56 132.818 181.118 132.405C182.084 132.318 184.129 131.827 184.897 132.099L184.948 132.6C184.374 133.474 183.919 133.722 183.084 134.339C179.777 135.168 173.56 137.985 171.12 135.701C170.429 135.055 167.737 132.553 167.652 131.825Z" fill="white"/>
<path d="M134.375 119.327L134.92 119.333C134.426 119.984 130.239 121.802 129.111 122.584C126.654 124.287 125.655 125.039 123.663 127.324L123.441 127.667L123.156 127.623C123.564 122.307 129.99 120.135 134.375 119.327Z" fill="white"/>
<path d="M180.97 203.13C181.926 203.268 183.83 204.885 183.761 205.773L183.062 205.749C181.873 205.804 180.624 205.908 179.431 205.988C179.922 205.041 180.462 204.071 180.97 203.13Z" fill="white"/>
<path d="M165.035 106.938L165.366 107.247C164.878 108.107 163.556 109.129 162.75 109.829C162.552 109.707 162.516 109.596 162.363 109.386C162.632 108.53 164.179 107.589 165.035 106.938Z" fill="#5A595B"/>
<path d="M81.8963 54.0574C83.111 53.9184 85.7275 54.2959 86.7583 54.9916C98.0253 62.5959 108.204 71.9054 119.016 80.1441C121.356 81.9276 123.368 83.8316 125.78 85.4931C130.066 83.4834 137.189 75.5271 140.742 71.9901C145.215 67.5381 149.683 63.1471 154.315 58.8686C156.041 57.2744 157.343 55.1864 159.588 54.2714C160.483 53.9066 161.508 53.7176 162.411 54.1646C163.367 54.6371 163.961 55.7236 164.237 56.7104C165.386 60.8176 160.344 90.9889 158.156 94.2931C157.762 94.8891 157.411 94.9994 156.749 95.1754C156.419 95.0511 156.11 94.9394 155.835 94.7114C154.31 93.4504 153.943 80.6416 153.692 78.0286C149.281 80.8494 144.761 88.0034 141.058 92.0529C137.59 95.8459 132.633 104.643 126.456 104.05C119.885 103.419 112.562 95.1059 106.955 91.5519C102.051 88.0201 95.8648 83.7616 91.8303 79.6466L91.9563 81.9376C92.0668 95.2049 94.3313 109.328 95.1198 122.646C95.6303 131.268 90.5345 131.716 83.5445 131.677C76.5838 131.638 69.6468 132.336 62.7523 132.372C64.238 133.38 65.4975 134.81 66.7875 136.063C70.9878 140.125 74.941 143.525 79.3423 147.447C80.4285 148.415 87.0755 152.248 83.2393 154.883C82.786 155.195 81.1675 154.773 80.6188 154.516C77.936 153.259 75.357 151.7 72.7438 150.272C65.5793 146.402 58.514 142.352 51.5543 138.125C49.1833 136.711 42.3975 132.575 40.7518 130.601C33.1063 121.43 51.709 120.823 55.6585 120.367L77.047 117.956C78.1908 113.338 75.0008 95.2781 74.6508 89.4459C74.1795 81.5931 71.5658 72.4919 72.4385 64.2296C72.649 62.0911 73.4228 60.0469 74.6813 58.3051C76.7788 55.3496 78.5128 54.6196 81.8963 54.0574Z" fill="#32AF53"/>
<path d="M303.632 55.1C308.82 54.8593 311.927 55.8298 316.287 58.8495C322.105 62.6848 323.96 71.8753 319.667 77.4685C316.062 82.1623 310.935 83.2595 305.49 84.0033C304.845 85.3698 304.395 87.633 303.755 88.7875C302.49 91.0643 295.772 88.4518 294.252 87.3728C294.065 85.5135 294.64 82.0248 295.31 80.3281C297.06 73.9518 304.12 76.2265 307.497 74.0538C314.775 69.372 309.15 66.1165 304.15 65.1518C302.705 66.23 301.235 68.2266 299.43 68.4693C293.227 69.3026 291.682 62.2283 295.362 58.2935C297.805 55.6833 300.217 55.3468 303.632 55.1Z" fill="black"/>
<path d="M302.088 58.0478C309.058 57.4631 315.623 59.0343 318.528 66.3303C320.688 71.7581 315.515 78.6576 310.218 79.7576C308.38 80.1388 306.465 80.2553 304.61 80.8858L304.35 80.9768C302.56 82.7466 301.88 84.5663 301.16 86.9098C299.865 86.5228 298.595 86.3308 297.503 85.5791C296.973 84.7003 297.183 84.7888 297.44 83.5586C298.825 72.6458 312.18 82.4536 313.385 70.6101C313.905 65.5018 309.608 62.5868 304.963 62.6213C301.793 62.6448 299.703 63.8023 297.488 66.0023C294.348 61.0696 297.298 59.0858 302.088 58.0478Z" fill="white"/>
<path d="M346.237 62.2319C348.035 62.2149 349.25 62.6991 350.645 63.7081C366.865 75.4331 360.7 103.946 341.145 108.334C339.795 108.636 338.107 108.493 336.655 108.746C336.427 109.241 336.235 109.724 336.012 110.219C330.732 121.909 320.645 126.056 308.785 122.297C307.8 121.875 306.5 121.232 305.845 120.377L305.91 119.932C307.285 119.22 312.132 120.518 313.867 120.688C323.947 121.675 331.957 116.23 334.057 106.483C341.64 106.049 345.735 104.64 351.02 99.0229C357.252 92.3974 358.4 83.2974 355.782 74.8386C354.235 69.8321 351.587 68.5696 347.807 65.2794C346.525 64.1619 346.277 63.8176 346.237 62.2319Z" fill="black"/>
<path d="M51.9933 179.077C54.0213 179.751 54.0958 185.381 54.8988 187.565C56.8453 192.86 61.0268 192.129 65.0315 194.013L65.1515 194.437C64.0668 195.525 59.376 196.658 57.2015 198.714C53.6243 202.096 54.3373 208.163 52.8988 210.23C52.754 210.173 51.9098 209.778 51.8958 209.747C50.4885 206.618 50.836 203.194 48.8538 200.027C47.045 197.137 41.1588 196.947 39.5825 194.716C39.738 193.321 46.6858 192.107 48.372 190.244C51.1488 187.176 50.21 182.215 51.9933 179.077Z" fill="black"/>
<path d="M52.013 188.438C54.3682 192.21 54.6467 192.657 58.845 194.264C55.617 196.323 54.6802 197.182 52.6227 200.383L52.503 200.622L52.1647 200.614C51.44 199.416 50.5695 197.982 49.6735 196.914C48.872 195.958 47.7925 195.385 47.1577 194.289C47.6092 193.694 48.1332 193.596 48.7515 193.164C50.513 191.934 51.2542 190.339 52.013 188.438Z" fill="white"/>
<path d="M276.92 327.375C282.885 329.37 270.907 339.902 269.1 341.53C271.507 341.532 279.662 341.09 281.297 341.41C282.005 342.228 281.927 343.97 281.177 344.763C279.34 345.44 270.66 345.28 268.235 345.295C272.5 348.59 274.635 349.95 277.782 354.358C278.65 355.698 279.132 356.245 278.84 357.86C278.287 358.615 278.642 358.398 277.767 358.575C275.655 357.955 274.817 355.692 272.997 354.122C271.212 352.38 269.5 350.813 267.575 349.223C266.552 348.375 260.782 345.022 260.865 344.122C261.11 341.497 265.715 339.705 267.412 337.955C270.7 334.567 273.852 330.98 276.92 327.375Z" fill="#32AF53"/>
<path d="M270.017 47.0341C271.287 46.9486 272.825 46.7086 273.825 47.4844L273.753 47.9386C272.84 49.0296 271.043 49.8364 269.715 50.2829C262.263 52.7896 259.105 57.4146 257.035 64.8256C255.07 71.8641 258.198 77.4214 261.788 83.3289C262.973 83.8649 263.862 84.1191 263.87 85.5649C262.915 86.8231 262.012 86.5106 260.557 86.4156C253.78 90.4919 253.368 95.0189 255.523 101.953C255.543 102.917 255.627 103.566 255.337 104.489C254.785 105.077 255.115 104.923 254.322 104.983C250.93 102.976 251.273 94.5069 252.53 91.2321C253.893 87.6871 256.11 85.9544 259.415 84.4041C257.52 82.3214 255.265 78.7326 254.455 75.9596C253.28 71.8754 253.23 64.1694 255.388 60.4141C256.5 58.4771 258.92 56.4376 260.112 53.6786C261.562 50.3349 266.52 48.0086 270.017 47.0341Z" fill="black"/>
<path d="M275.273 102.383C276.765 103.109 276.5 103.831 276.94 105.396C277.42 107.125 278.238 108.741 279.345 110.151C282.515 114.099 288.353 115.465 293.138 114.394C295.153 113.942 299.02 112.467 300.878 112.664C301.643 113.181 301.403 112.846 301.698 113.641C301.445 114.261 300.913 114.571 300.308 114.838C293.6 117.79 290.163 118.624 283.163 116.026C278.538 113.824 276.43 111.971 274.735 107.064C270.398 110.815 263.18 113.188 258.265 109.099C257.923 108.305 257.925 108.682 258.128 107.939C261.028 106.054 268.03 111.317 275.273 102.383Z" fill="black"/>
<path d="M322.583 31.0949C336.193 30.1552 347.993 41.4079 348.5 54.8777C348.573 56.7612 348.488 57.767 347.92 59.5597C347.243 60.2402 347.635 60.0517 346.73 60.1947C345.908 59.4987 345.73 54.3067 345.578 52.7277C342.765 41.1207 333.438 31.9667 320.915 33.8469C319.188 34.1062 315.448 35.7784 313.968 35.3737L313.745 34.9539C314.195 31.9117 320.173 31.3542 322.583 31.0949Z" fill="black"/>
<path d="M77.5737 167.704C81.2257 167.643 79.2211 170.996 80.8671 173.391C82.2246 175.366 85.2189 175.858 86.6464 177.522C86.3769 178.138 84.5849 179.067 83.8974 179.554C80.3371 182.074 80.0304 183.98 79.3429 187.95C76.4914 187.232 78.0306 183.197 75.9359 181.098C74.5536 179.713 72.1526 179.828 70.5604 178.548C70.1301 177.693 70.2061 178.132 70.3159 177.187C71.0124 176.286 73.5586 176.267 74.9711 175.021C77.3094 172.959 77.2987 170.541 77.5737 167.704Z" fill="black"/>
<path d="M78.468 174.625C78.9133 174.856 80.5913 176.684 81.4603 177.312C80.3475 178.54 79.8708 179.353 78.9845 180.767C78.2178 180.595 76.9273 178.406 76.3835 177.592C76.4478 177.14 77.819 175.648 78.3275 174.849L78.468 174.625Z" fill="white"/>
<path d="M293.503 92.0614C297.653 91.4139 300.328 92.8984 301.833 96.8337C301.508 98.4942 301.303 99.1589 300.728 100.756C299.495 101.833 299.058 102.114 297.628 102.893C294.178 103.882 291.015 101.764 289.89 98.4879C289.605 97.6642 289.73 96.1307 289.773 95.2309C290.878 93.7389 291.968 93.0214 293.503 92.0614Z" fill="black"/>
<path d="M295.565 93.8882C300.177 95.0237 298.192 98.1834 295.932 100.442C291.93 98.3629 292.447 96.5912 295.565 93.8882Z" fill="#32AF53"/>
<path d="M338.675 286.685C339.507 286.94 339.81 287.225 340.17 288.003C340.117 291.01 335.135 293.158 332.752 293.988C332.635 295.943 332.67 300.083 330.765 300.983C329.675 300.913 329.987 301.078 329.19 300.51C328.742 299.133 329.61 298.398 329.405 296.65C328.785 296.28 328.875 296.43 327.942 296.58C326.527 296.868 323.295 297.195 323.587 294.915C324.97 293.228 327.4 293.06 329.625 292.515C329.692 291.065 329.805 288.653 330.887 287.595C332.657 287.318 332.557 289.325 333.967 289.62C335.517 289.148 337.325 287.66 338.675 286.685Z" fill="#32AF53"/>
<path d="M244.022 107.529C246.381 107.366 248.813 107.935 249.826 110.335C250.272 111.384 250.277 112.569 249.839 113.621C248.964 115.703 247.297 116.395 245.377 117.223C241.495 118.345 240.707 116.718 239.418 113.227C240.513 110.782 241.586 108.741 244.022 107.529Z" fill="black"/>
<path d="M244.919 109.604C246.325 110.319 247.607 111.106 247.312 112.761C246.672 113.574 246.272 113.708 245.371 114.199C244.4 114.424 244.303 114.466 243.326 114.4C242.621 113.925 242.855 114.241 242.612 113.412C242.904 111.696 243.778 110.812 244.919 109.604Z" fill="white"/>
<path d="M162.356 146.057C164.521 144.64 171.256 143.93 171.002 147.93C169.761 149.958 167.606 148.848 165.678 149.12C161.879 149.658 159.937 152.418 157.48 154.925C157.418 152.201 157.161 149.989 159.518 148.083L159.263 147.629C160.221 146.845 160.941 146.378 161.973 145.705L162.356 146.057Z" fill="black"/>
<path d="M159.263 147.629C160.22 146.846 160.941 146.379 161.973 145.705L162.356 146.057C161.415 146.749 160.493 147.441 159.518 148.083L159.263 147.629Z" fill="#5A595B"/>
<path d="M180.764 157.426C181.267 157.462 181.768 157.523 182.27 157.577C183.304 158.524 183.943 160.616 184.848 161.6C188.521 165.591 192.992 171.145 184.455 173.294C183.531 173.293 182.915 173.349 182.458 172.483C183.217 170.532 187.308 169.976 186.03 167.816C184.656 165.493 178.958 160.32 180.764 157.426Z" fill="black"/>
<path d="M285.357 34.9597C286.237 34.5957 289.362 33.2722 290.167 33.1425C294.16 32.5677 298.625 33.2005 302.342 34.7437C303.702 35.3077 305.797 36.2902 306.45 37.6635C306.92 38.6515 306.542 39.324 305.81 39.9855C304.02 40.3582 302.87 37.8742 301.472 37.195C297.862 35.4417 290.142 34.9057 286.24 35.3197L285.357 34.9597Z" fill="black"/>
<path d="M316.463 322.88C317.38 323.06 317.95 323.285 318.62 323.89C319.31 325.67 317.638 327.145 316.378 328.272C313.923 330.472 311.28 332.72 308.483 334.467L308.303 334.6C307.435 334.127 306.613 333.162 305.903 332.43C306.8 331.532 309.465 329.827 310.72 328.722C312.918 326.787 314.478 325.032 316.463 322.88Z" fill="#32AF53"/>
<path d="M327.173 306.39C333.79 306.383 324.705 317.845 323.49 319.6C322.203 319.533 321.408 318.608 321.165 317.418C321.575 316 326.17 307.793 327.173 306.39Z" fill="#32AF53"/>
<path d="M340.367 224.527C341.082 224.432 342.282 224.274 342.91 224.776C345.467 226.826 347.725 230.898 348.497 234.061C348.765 235.157 348.49 235.532 347.912 236.386C347.185 236.566 347.155 236.543 346.437 236.525C345.435 235.613 340.942 227.67 339.835 226.027C339.52 225.559 340.055 224.988 340.367 224.527Z" fill="#32AF53"/>
<path d="M349.718 242.589C353.955 243.22 353.698 250.377 353.775 253.652C353.805 254.965 353.115 255.502 352.16 256.265C351.528 256.42 351.845 256.412 351.17 256.217C349.728 254.567 349.405 247.077 348.83 244.592C348.618 243.672 349.188 243.173 349.718 242.589Z" fill="#32AF53"/>
<path d="M350.053 262.457C350.86 262.46 353.165 262.368 353.293 263.323C353.758 266.835 351.288 272.5 349.755 275.515C349.43 275.71 349.245 275.703 348.85 275.795C347.915 275.4 348.245 275.642 347.648 274.812C347.225 272.832 349.508 265.52 350.053 262.457Z" fill="#32AF53"/>
<path d="M299.743 335.725C300.62 335.98 300.765 336.13 301.54 336.653C302.003 337.495 301.948 337.07 301.798 337.953C300.233 340.025 293.723 342.003 290.983 343.005C289.235 343.19 288.315 341.483 288.79 340.873C290.433 338.773 297.365 336.975 299.743 335.725Z" fill="#32AF53"/>
<path d="M316.93 261.295C320.54 261.122 323.693 262.54 326.225 265.205C326.778 265.782 326.88 266.472 326.805 267.237C326.38 268.127 326.168 268.157 325.27 268.687C323.295 269.062 322.245 266.322 320.673 265.83C318.258 265.072 312.543 264.942 316.93 261.295Z" fill="#32AF53"/>
<path d="M308.32 288.63L309.248 288.682C310.708 289.56 311.858 291.537 313.53 292.71C315.045 293.77 317.013 293.797 317.905 295.032C317.705 295.765 316.86 296.547 316.318 297.145C313.288 297.585 306.533 293.287 306.843 290.17C307.258 289.255 307.44 289.217 308.32 288.63Z" fill="#32AF53"/>
<path d="M312.765 200.946C315.583 200.958 322.168 204.711 323.32 207.393C323.215 208.26 323.215 208.021 322.573 208.818C320.59 209.214 312.883 204.94 312.098 202.752C312.088 201.843 312.235 201.746 312.765 200.946Z" fill="#32AF53"/>
<path d="M187.228 177.666C188.109 177.809 188.367 178.124 188.568 178.932C188.172 180.201 187.358 180.717 186.278 181.412C181.637 184.401 178.924 183.038 173.827 181.903C173.135 181.104 173.724 179.692 174.183 178.912C177.027 177.598 177.237 184.61 187.228 177.666Z" fill="black"/>
<path d="M305.378 271.478C306.218 271.653 306.243 271.65 307.01 272.023C307.835 273.198 306.898 276.005 306.88 277.625C306.863 279.355 306.708 281.16 306.705 282.903C306.703 283.56 305.88 283.98 305.395 284.335C301.93 283.235 302.82 273.933 305.378 271.478Z" fill="#32AF53"/>
<path d="M295.883 193.996C298.303 194.289 305.13 196.079 305.443 198.989C305.218 199.84 305.09 199.876 304.388 200.482C302.66 199.816 289.828 197.173 295.883 193.996Z" fill="#32AF53"/>
<path d="M329.945 272.612C331.642 273.37 333.682 282.02 332.81 284.05C332.482 284.81 331.745 284.82 331.095 285.01C330.725 284.91 330.515 284.782 330.16 284.615C329.71 283.795 328.282 276.052 328.062 274.695C327.967 274.112 329.32 273.06 329.945 272.612Z" fill="#32AF53"/>
<path d="M329.17 211.361C331.04 211.591 336.525 216.468 337.302 218.187C337.337 219.218 337.412 218.821 336.722 219.791C336.237 219.901 335.4 220.148 334.932 219.829C332.765 218.354 329.552 215.952 328.552 213.465C328.265 212.754 328.815 211.872 329.17 211.361Z" fill="#32AF53"/>
<path d="M189.278 151.871C189.599 151.983 192.353 153.902 193.356 154.43C192.434 156.615 192.016 157.718 190.496 159.538L190 159.699C185.824 158.853 187.061 154.335 189.278 151.871Z" fill="black"/>
<path d="M166.666 156.175C170.538 156.547 171.762 161.019 169.336 163.346C164.809 164.256 164.321 158.283 166.666 156.175Z" fill="black"/>
<path d="M135.833 166.999C138.199 166.906 138.817 167.482 140.568 169.054C141.759 170.123 143.128 171.569 143.188 173.241C142.607 173.961 142.382 173.826 141.343 174.1C139.028 170.904 139.082 170.184 134.958 169.872C134.317 169.823 133.93 169.783 133.402 169.426L133.403 168.9C134.077 167.957 134.839 167.607 135.833 166.999Z" fill="black"/>
<path d="M310.427 263.482C314.167 264.982 312.045 268.227 309.155 269.215C308.37 269 308.142 268.89 307.402 268.54C306.027 266.615 308.977 264.82 310.427 263.482Z" fill="#32AF53"/>
<path d="M344.13 280.478C344.902 280.313 345.542 280.618 346.107 281.113C346.932 282.915 345.322 284.978 343.817 285.883C342.73 285.635 342.55 285.653 341.67 285.028C340.48 282.923 342.5 281.523 344.13 280.478Z" fill="#32AF53"/>
<path d="M281.585 37.4561L281.782 37.8308C280.7 39.3683 277.797 43.5263 275.965 43.6891C274.7 41.3161 280.007 38.2578 281.585 37.4561Z" fill="black"/>
<path d="M281.585 37.4562C282.722 36.2675 283.86 35.585 285.357 34.96L286.24 35.32C283.862 35.8745 283.442 36.9527 281.782 37.831L281.585 37.4562Z" fill="#B1B1B7"/>
</g>
<defs>
<clipPath id="clip0_442_614">
<rect width="400" height="400" fill="white"/>
</clipPath>
</defs>
</svg>
